<?xml version="1.0" encoding="UTF-8"?>
<svg xmlns="http://www.w3.org/2000/svg" xmlns:xlink="http://www.w3.org/1999/xlink" width="40px" height="47px" viewBox="0 0 40 47" version="1.1">
  <title>Nav Icon - Token Service-std</title>
  <defs>
    <linearGradient x1="12.506384%" y1="-2.1297453e-14%" x2="87.493616%" y2="100%" id="linearGradient-1">
      <stop stop-color="#2D84EB" offset="0%"></stop>
      <stop stop-color="#D173DE" offset="100%"></stop>
    </linearGradient>
  </defs>
  <g id="Homepage" stroke="none" stroke-width="1" fill="none" fill-rule="evenodd">
    <g id="Main-Nav---Prod-1" transform="translate(-110.000000, -202.000000)" fill="url(#linearGradient-1)">
      <g id="Nav-Icon---Token-Service" transform="translate(110.032000, 202.845000)">
        <path d="M20.01,0 L23.708,2.135 L23.708,5.845 L33.086,11.306 L36.27,9.468 L39.968,11.603 L39.968,15.873 L36.77,17.72 L36.77,28.589 L39.968,30.436 L39.968,34.706 L36.27,36.841 L33.058,34.987 L23.708,40.342 L23.708,44.019 L20.01,46.155 L16.312,44.019 L16.312,40.348 L6.917,34.984 L3.698,36.841 L0,34.706 L0,30.436 L3.198,28.589 L3.198,17.72 L0,15.873 L0,11.603 L3.698,9.468 L6.888,11.309 L16.312,5.839 L16.312,2.135 L20.01,0 Z M20.01,38.769 L17.312,40.327 L17.312,43.442 L20.01,45 L22.708,43.442 L22.708,40.327 L20.01,38.769 Z M16.821,6.7 L7.398,12.17 L7.398,15.874 L4.198,17.72 L4.198,28.589 L7.398,30.436 L7.398,34.107 L16.792,39.472 L20.01,37.614 L23.222,39.468 L32.572,34.113 L32.572,30.436 L35.77,28.589 L35.77,17.72 L32.572,15.873 L32.572,12.164 L23.193,6.703 L20.01,8.541 L16.821,6.7 Z M36.27,29.455 L33.572,31.013 L33.572,34.129 L36.27,35.687 L38.968,34.129 L38.968,31.013 L36.27,29.455 Z M3.698,29.455 L1,31.013 L1,34.129 L3.698,35.687 L6.398,34.129 L6.398,31.013 L3.698,29.455 Z M20.01,11.154 C26.727,11.154 32.191,16.619 32.191,23.335 C32.191,30.051 26.727,35.515 20.01,35.515 C13.294,35.515 7.83,30.051 7.83,23.335 C7.83,16.619 13.294,11.154 20.01,11.154 Z M20.01,12.154 C13.846,12.154 8.83,17.17 8.83,23.335 C8.83,29.5 13.846,34.515 20.01,34.515 C26.175,34.515 31.191,29.5 31.191,23.335 C31.191,17.17 26.175,12.154 20.01,12.154 Z M20.01,15.6451 L27.045,19.3011 L27.045,27.3691 L20.01,31.0251 L12.976,27.3691 L12.976,19.3011 L20.01,15.6451 Z M26.045,20.4281 L20.51,23.3041 L20.51,29.6381 L26.045,26.7621 L26.045,20.4281 Z M13.976,20.4281 L13.976,26.7621 L19.51,29.6381 L19.51,23.3041 L13.976,20.4281 Z M20.01,16.7721 L14.56,19.6041 L20.01,22.4371 L25.461,19.6041 L20.01,16.7721 Z M3.698,10.623 L1,12.18 L1,15.296 L3.698,16.854 L6.398,15.296 L6.398,12.181 L3.698,10.623 Z M36.27,10.623 L33.572,12.181 L33.572,15.296 L36.27,16.854 L38.968,15.296 L38.968,12.18 L36.27,10.623 Z M20.01,1.155 L17.312,2.712 L17.312,5.828 L20.01,7.386 L22.708,5.828 L22.708,2.712 L20.01,1.155 Z" id="Combined-Shape"></path>
      </g>
    </g>
  </g>
</svg>
