<?xml version="1.0" encoding="UTF-8"?>
<svg xmlns="http://www.w3.org/2000/svg" xmlns:xlink="http://www.w3.org/1999/xlink" width="44px" height="47px" viewBox="0 0 44 47" version="1.1">
  <title>Nav Icon - Smart Contracts-std</title>
  <defs>
    <linearGradient x1="4.64961056%" y1="-2.1297453e-14%" x2="95.3503894%" y2="100%" id="linearGradient-1">
      <stop stop-color="#2D84EB" offset="0%"></stop>
      <stop stop-color="#D173DE" offset="100%"></stop>
    </linearGradient>
  </defs>
  <g id="Homepage" stroke="none" stroke-width="1" fill="none" fill-rule="evenodd">
    <g id="Main-Nav---Prod-1" transform="translate(-106.000000, -363.000000)" fill="url(#linearGradient-1)">
      <g id="Nav-Icon---Smart-Contracts" transform="translate(106.191000, 363.500000)">
        <path d="M33.379,0 C39.13,0 43.809,4.679 43.809,10.43 C43.809,16.012 39.397,20.571 33.879,20.834 L33.879,25.166 C39.397,25.429 43.809,29.988 43.809,35.57 C43.809,41.321 39.13,46 33.379,46 C27.628,46 22.949,41.321 22.949,35.57 C22.949,34.008 23.32,32.466 23.992,31.064 L19.338,28.547 C17.451,31.663 14.093,33.593 10.43,33.593 C4.679,33.593 0,28.914 0,23.163 C0,17.412 4.679,12.733 10.43,12.733 C14.046,12.733 17.381,14.626 19.278,17.682 L24.044,15.038 C23.338,13.611 22.949,12.033 22.949,10.43 C22.949,4.679 27.628,0 33.379,0 Z M33.379,26.14 C29.913,26.14 26.733,28.035 25.081,31.085 C24.341,32.454 23.949,34.005 23.949,35.57 C23.949,40.77 28.18,45 33.379,45 C38.578,45 42.809,40.77 42.809,35.57 C42.809,30.371 38.578,26.14 33.379,26.14 Z M29.8913,39.9116 C32.0873,38.9126 34.6713,38.9126 36.8663,39.9116 C37.1173,40.0256 37.2283,40.3226 37.1143,40.5736 C37.0303,40.7576 36.8483,40.8666 36.6593,40.8666 C36.5903,40.8666 36.5193,40.8526 36.4523,40.8216 C34.5183,39.9426 32.2393,39.9426 30.3053,40.8216 C30.0553,40.9356 29.7593,40.8256 29.6433,40.5736 C29.5293,40.3226 29.6403,40.0256 29.8913,39.9116 Z M33.379,30.274 C35.561,30.274 37.335,32.048 37.335,34.23 C37.335,36.411 35.561,38.186 33.379,38.186 C31.197,38.186 29.423,36.411 29.423,34.23 C29.423,32.048 31.197,30.274 33.379,30.274 Z M33.379,31.274 C31.749,31.274 30.423,32.6 30.423,34.23 C30.423,35.86 31.749,37.186 33.379,37.186 C35.009,37.186 36.335,35.86 36.335,34.23 C36.335,32.6 35.009,31.274 33.379,31.274 Z M10.43,13.733 C5.231,13.733 1,17.964 1,23.163 C1,28.363 5.231,32.593 10.43,32.593 C13.895,32.593 17.074,30.698 18.728,27.648 C19.468,26.279 19.859,24.728 19.859,23.163 C19.859,21.563 19.45,19.98 18.676,18.588 C17.012,15.594 13.852,13.733 10.43,13.733 Z M24.531,15.911 L19.765,18.555 C20.47,19.984 20.859,21.561 20.859,23.163 C20.859,24.725 20.489,26.268 19.817,27.669 L24.47,30.186 C26.27,27.213 29.411,25.341 32.879,25.174 L32.879,20.826 C29.458,20.66 26.339,18.825 24.531,15.911 Z M6.9421,27.5044 C9.1401,26.5054 11.7201,26.5054 13.9171,27.5044 C14.1681,27.6184 14.2791,27.9154 14.1651,28.1664 C14.0811,28.3504 13.8991,28.4594 13.7101,28.4594 C13.6411,28.4594 13.5701,28.4454 13.5031,28.4144 C11.5691,27.5354 9.2901,27.5354 7.3561,28.4144 C7.1041,28.5284 6.8091,28.4184 6.6941,28.1664 C6.5801,27.9154 6.6911,27.6184 6.9421,27.5044 Z M10.4298,17.8668 C12.6118,17.8668 14.3858,19.6418 14.3858,21.8228 C14.3858,24.0038 12.6118,25.7788 10.4298,25.7788 C8.2478,25.7788 6.4738,24.0038 6.4738,21.8228 C6.4738,19.6418 8.2478,17.8668 10.4298,17.8668 Z M10.4298,18.8668 C8.7998,18.8668 7.4738,20.1928 7.4738,21.8228 C7.4738,23.4528 8.7998,24.7788 10.4298,24.7788 C12.0598,24.7788 13.3858,23.4528 13.3858,21.8228 C13.3858,20.1928 12.0598,18.8668 10.4298,18.8668 Z M33.379,1 C28.18,1 23.949,5.23 23.949,10.43 C23.949,12.032 24.358,13.614 25.131,15.004 L25.2885332,15.2759468 C26.9906951,18.1109596 30.0616667,19.859 33.379,19.859 C38.578,19.859 42.809,15.629 42.809,10.43 C42.809,5.23 38.578,1 33.379,1 Z M36.4445,5.4924 C36.7205,5.4924 36.9445,5.7154 36.9445,5.9924 L36.9445,14.8674 C36.9445,15.1434 36.7205,15.3674 36.4445,15.3674 C36.1685,15.3674 35.9445,15.1434 35.9445,14.8674 L35.9445,12.0414 L30.8135,12.0414 L30.8135,14.8674 C30.8135,15.1434 30.5895,15.3674 30.3135,15.3674 C30.0375,15.3674 29.8135,15.1434 29.8135,14.8674 L29.8135,5.9924 C29.8135,5.7154 30.0375,5.4924 30.3135,5.4924 C30.5895,5.4924 30.8135,5.7154 30.8135,5.9924 L30.8135,8.8174 L35.9445,8.8174 L35.9445,5.9924 C35.9445,5.7154 36.1685,5.4924 36.4445,5.4924 Z M35.9445,9.8174 L30.8135,9.8174 L30.8135,11.0414 L35.9445,11.0414 L35.9445,9.8174 Z" id="Combined-Shape"></path>
      </g>
    </g>
  </g>
</svg>
