<?xml version="1.0" encoding="UTF-8"?>
<svg xmlns="http://www.w3.org/2000/svg" xmlns:xlink="http://www.w3.org/1999/xlink" width="46px" height="47px" viewBox="0 0 46 47" version="1.1">
  <title>Group 23 Copy</title>
  <defs>
    <linearGradient x1="100%" y1="100%" x2="-2.38383997e-12%" y2="-3.2187257e-14%" id="linearGradient-1">
      <stop stop-color="#2D84EB" offset="0%"></stop>
      <stop stop-color="#D173DE" offset="100%"></stop>
    </linearGradient>
  </defs>
  <g id="Homepage" stroke="none" stroke-width="1" fill="none" fill-rule="evenodd">
    <g id="Group-23-Copy" transform="translate(0.000000, 0.953391)" fill="url(#linearGradient-1)">
      <path d="M1.915,31.2832 C1.712,31.2832 1.52,31.1582 1.446,30.9572 C0.486,28.3682 0,25.6442 0,22.8582 C0,20.0732 0.486,17.3482 1.446,14.7602 C1.542,14.5012 1.828,14.3692 2.089,14.4652 C2.348,14.5612 2.479,14.8492 2.384,15.1082 C1.466,17.5842 1,20.1922 1,22.8582 C1,25.5252 1.466,28.1322 2.384,30.6092 C2.479,30.8682 2.348,31.1562 2.089,31.2522 C2.031,31.2732 1.973,31.2832 1.915,31.2832 M15.2168,2.4153 C15.0138,2.4153 14.8218,2.2903 14.7478,2.0883 C14.6528,1.8303 14.7838,1.5423 15.0428,1.4463 C20.2268,-0.4737 26.0618,-0.4727 31.2388,1.4463 C31.4978,1.5423 31.6298,1.8303 31.5338,2.0893 C31.4398,2.3483 31.1538,2.4803 30.8918,2.3843 C25.9378,0.5483 20.3488,0.5473 15.3908,2.3843 C15.3328,2.4053 15.2748,2.4153 15.2168,2.4153 M44.085,31.2832 C44.027,31.2832 43.969,31.2732 43.911,31.2522 C43.652,31.1562 43.521,30.8682 43.616,30.6092 C44.534,28.1302 45,25.5222 45,22.8582 C45,20.1952 44.534,17.5872 43.616,15.1072 C43.521,14.8492 43.652,14.5612 43.911,14.4652 C44.172,14.3702 44.458,14.5012 44.554,14.7602 C45.514,17.3512 46,20.0762 46,22.8582 C46,25.6412 45.514,28.3662 44.554,30.9562 C44.48,31.1582 44.288,31.2832 44.085,31.2832 M23.1416,46 C20.3586,46 17.6336,45.513 15.0426,44.554 C14.7846,44.458 14.6526,44.17 14.7476,43.911 C14.8436,43.652 15.1306,43.521 15.3906,43.616 C20.3486,45.453 25.9376,45.452 30.8916,43.616 C31.1526,43.521 31.4386,43.652 31.5346,43.911 C31.6296,44.17 31.4976,44.458 31.2396,44.554 C28.6496,45.513 25.9256,46 23.1416,46 M4.3203,1 C2.4893,1 1.0003,2.49 1.0003,4.321 C1.0003,6.152 2.4893,7.642 4.3203,7.642 C6.1513,7.642 7.6413,6.152 7.6413,4.321 C7.6413,2.49 6.1513,1 4.3203,1 M4.3203,8.642 C1.9383,8.642 0.000300000001,6.703 0.000300000001,4.321 C0.000300000001,1.938 1.9383,0 4.3203,0 C6.7033,0 8.6413,1.938 8.6413,4.321 C8.6413,6.703 6.7033,8.642 4.3203,8.642 M4.3203,38.3586 C2.4893,38.3586 1.0003,39.8486 1.0003,41.6796 C1.0003,43.5106 2.4893,44.9996 4.3203,44.9996 C6.1513,44.9996 7.6413,43.5106 7.6413,41.6796 C7.6413,39.8486 6.1513,38.3586 4.3203,38.3586 M4.3203,45.9996 C1.9383,45.9996 0.000300000001,44.0616 0.000300000001,41.6796 C0.000300000001,39.2966 1.9383,37.3586 4.3203,37.3586 C6.7033,37.3586 8.6413,39.2966 8.6413,41.6796 C8.6413,44.0616 6.7033,45.9996 4.3203,45.9996 M41.6787,38.3586 C39.8477,38.3586 38.3587,39.8486 38.3587,41.6796 C38.3587,43.5106 39.8477,44.9996 41.6787,44.9996 C43.5097,44.9996 44.9997,43.5106 44.9997,41.6796 C44.9997,39.8486 43.5097,38.3586 41.6787,38.3586 M41.6787,45.9996 C39.2967,45.9996 37.3587,44.0616 37.3587,41.6796 C37.3587,39.2966 39.2967,37.3586 41.6787,37.3586 C44.0617,37.3586 45.9997,39.2966 45.9997,41.6796 C45.9997,44.0616 44.0617,45.9996 41.6787,45.9996 M41.6787,1 C39.8477,1 38.3587,2.49 38.3587,4.321 C38.3587,6.152 39.8477,7.642 41.6787,7.642 C43.5097,7.642 44.9997,6.152 44.9997,4.321 C44.9997,2.49 43.5097,1 41.6787,1 M41.6787,8.642 C39.2967,8.642 37.3587,6.703 37.3587,4.321 C37.3587,1.938 39.2967,0 41.6787,0 C44.0617,0 45.9997,1.938 45.9997,4.321 C45.9997,6.703 44.0617,8.642 41.6787,8.642 M25.929,9.7866 L32.672,13.3836 C34.0198182,14.1023727 34.8810785,15.4671558 34.9565902,16.9813272 L34.962,17.1984 L34.962,28.7454 C34.962,30.3544 34.085,31.8254 32.673,32.5844 L25.93,36.2084 C25.034,36.6894 24.021,36.9434 23,36.9434 L22.890857,36.9423618 C22.8801262,36.9430504 22.8693037,36.9434 22.8584,36.9434 L22.799,36.938 L22.694022,36.935806 C21.77739,36.89032 20.8755,36.6412 20.07,36.2074 L13.326,32.5844 C11.914,31.8254 11.037,30.3544 11.037,28.7454 L11.037,17.1984 C11.037,15.5986 11.915,14.1366 13.327,13.3836 L20.071,9.7866 C21.859,8.8316 24.137,8.8306 25.929,9.7866 Z M32.672,21.0126 L25.929,24.6096 C25.1390525,25.0314938 24.2571802,25.2773283 23.3590174,25.3292264 L23.3586059,35.9195546 C24.0899148,35.8708551 24.8110833,35.6735495 25.457,35.3274 L32.2,31.7034 C33.287,31.1194 33.962,29.9854 33.962,28.7454 L33.9637616,19.9618782 C33.6115613,20.3850488 33.1757667,20.7439482 32.672,21.0126 Z M12.0369323,19.9639122 L12.037,28.7454 C12.037,29.9854 12.712,31.1194 13.799,31.7034 L20.543,35.3274 C21.1043087,35.6290379 21.7237448,35.8177908 22.3580625,35.8935009 L22.3581452,25.3064286 C21.5582872,25.223655 20.7778432,24.9871096 20.071,24.6096 L13.327,21.0126 C12.8240406,20.7443787 12.3888356,20.3861989 12.0369323,19.9639122 Z M23,10.0566 C22.143,10.0566 21.292,10.2686 20.542,10.6686 L13.798,14.2656 C12.712,14.8456 12.037,15.9686 12.037,17.1986 C12.037,18.4276 12.712,19.5506 13.798,20.1306 L20.542,23.7276 C22.042,24.5286 23.956,24.5286 25.458,23.7276 L32.201,20.1306 C33.287,19.5506 33.962,18.4276 33.962,17.1986 C33.962,15.9686 33.287,14.8456 32.201,14.2656 L25.458,10.6686 C24.696,10.2626 23.869,10.0566 23,10.0566 Z" id="Combined-Shape"></path>
    </g>
  </g>
</svg>
