<?xml version="1.0" encoding="UTF-8"?>
<svg xmlns="http://www.w3.org/2000/svg" xmlns:xlink="http://www.w3.org/1999/xlink" width="40px" height="41px" viewBox="0 0 40 41" version="1.1">
  <title>Nav Icon - Documentation - Blue-hvr</title>
  <defs>
    <linearGradient x1="-1.2503923e-12%" y1="-2.1297453e-14%" x2="100%" y2="100%" id="linearGradient-1">
      <stop stop-color="#2D84EB" offset="0%"></stop>
      <stop stop-color="#D173DE" offset="100%"></stop>
    </linearGradient>
  </defs>
  <g id="Homepage" stroke="none" stroke-width="1" fill="none" fill-rule="evenodd">
    <g id="Nav-Icon---Documentation---Blue" transform="translate(0.000000, 0.155255)" fill="url(#linearGradient-1)" fill-rule="nonzero">
      <path d="M21.1566829,0 C21.9462924,0 22.6151036,0.582607304 22.7234483,1.36472075 L22.9570732,3.05463415 L23.1334972,3.08399854 C24.0249117,3.24807269 24.8986146,3.48217931 25.7481579,3.7834884 L25.9112195,3.84390244 L26.9589327,2.49946139 C27.41353,1.91543268 28.2068799,1.72950352 28.8678374,2.03372484 L28.998124,2.10113171 L31.0018783,3.25806433 C31.6855621,3.65277227 31.9735414,4.49161465 31.6763688,5.22326102 L31.0321951,6.80682927 L31.1687146,6.91920463 C31.8549447,7.50558554 32.4944145,8.1450553 33.0807954,8.83128538 L33.1921951,8.96682927 L34.7766234,8.32393835 C35.4625532,8.04498183 36.2428278,8.28070197 36.662846,8.8747904 L36.7419115,8.99834002 L37.8989368,11.0019947 C38.2935177,11.6858346 38.1235026,12.5561636 37.500479,13.0411137 L36.155122,14.0878049 L36.2164745,14.2517354 C36.5177397,15.1011266 36.7518939,15.9748051 36.9161332,16.8663247 L36.9453659,17.0419512 L38.6352607,17.2765492 C39.3713849,17.3785231 39.9307676,17.9769632 39.9940301,18.7053177 L40,18.8433171 L40,21.1569431 C40,21.9465526 39.4173927,22.6153637 38.6352876,22.7237073 L36.9453659,22.9570732 L36.9161332,23.1339354 C36.7518939,24.025455 36.5177397,24.8991336 36.2164745,25.7485248 L36.155122,25.9112195 L37.5005386,26.9591929 C38.0845673,27.4137901 38.2704965,28.20714 37.9662639,28.8681171 L37.8988546,28.9984079 L36.7419938,31.0017776 C36.3472837,31.6858414 35.5082818,31.9738754 34.7767917,31.6763902 L33.1931707,31.0321951 L33.0807954,31.1689748 C32.4944145,31.8552049 31.8549447,32.4946746 31.1687146,33.0810555 L31.0321951,33.1931707 L31.6764029,34.777083 C31.9549455,35.462862 31.7193167,36.2426868 31.1254088,36.6630417 L31.0018964,36.7421854 L28.9980053,37.899197 C28.3141654,38.2937779 27.4438364,38.1237627 26.9588863,37.5007392 L25.9121951,36.155122 L25.7481579,36.2167718 C24.8986146,36.5180809 24.0249117,36.7521875 23.1334972,36.9162616 L22.9570732,36.9453659 L22.7234508,38.6355209 C22.6214795,39.3716263 22.0230549,39.9307951 21.2946855,39.9940325 L21.1566829,40 L18.8430569,40 C18.0534273,40 17.3846335,39.4176329 17.2762916,38.6355394 L17.0419512,36.9453659 L16.8663309,36.9162604 C15.9750624,36.7521884 15.1013742,36.518086 14.2517078,36.2167823 L14.0868293,36.155122 L13.0408071,37.5007988 C12.5862082,38.0848297 11.7928108,38.2707875 11.1321076,37.9665411 L11.001876,37.8991284 L8.99804809,36.7421533 C8.31422952,36.3472086 8.0264377,35.5086971 8.3236098,34.7770518 L8.96682927,33.1931707 L8.83102522,33.0810555 C8.14479514,32.4946746 7.50532538,31.8552049 6.91894447,31.1689748 L6.80585366,31.0321951 L5.22311639,31.6763218 C4.53724744,31.9552536 3.75727687,31.719601 3.33696157,31.1254781 L3.25782836,31.0019201 L2.100803,28.9982654 C1.70616823,28.3143321 1.87630566,27.4439531 2.49949118,26.9591697 L3.84390244,25.9121951 L3.78317804,25.7480445 C3.4818437,24.898112 3.24771357,24.0244311 3.08369495,23.1334488 L3.05365854,22.9570732 L1.36447913,22.723711 C0.628373677,22.6217397 0.0692049338,22.0233151 0.00596745354,21.2949457 L0,21.1569431 L0,18.8433171 C0,18.0536874 0.582367086,17.3848937 1.36446059,17.2765517 L3.05365854,17.0419512 L3.08369495,16.8668113 C3.24771357,15.9758291 3.4818437,15.1021481 3.78317804,14.2522156 L3.84390244,14.0878049 L2.49957403,13.0411549 C1.91525994,12.58661 1.72920545,11.7932194 2.03346793,11.1321601 L2.10088527,11.0018522 L3.2578467,8.99830825 C3.65286256,8.31436651 4.49152285,8.0264111 5.22294815,8.32386996 L6.80585366,8.96682927 L6.91894447,8.83128538 C7.50532538,8.1450553 8.14479514,7.50558554 8.83102522,6.91920463 L8.96682927,6.80585366 L8.32359714,5.22317715 C8.04498546,4.53722813 8.28058329,3.75708325 8.87457323,3.33712857 L8.99810361,3.2580748 L11.0018941,2.10112124 C11.6855187,1.70644747 12.5559016,1.87649512 13.0408535,2.49952101 L14.0878049,3.84487805 L14.2517078,3.7834779 C15.1013742,3.48217416 15.9750624,3.24807173 16.8663309,3.08399975 L17.0409756,3.05463415 L17.276289,1.36473929 C17.3782629,0.628615068 17.9767031,0.0692324326 18.7050575,0.00596985342 L18.8430569,0 Z M21.1566829,0.975609756 L18.8430569,0.975609756 C18.5405541,0.975609756 18.2841836,1.19893636 18.2426678,1.49862884 L17.9093512,3.9040787 L17.5491751,3.95860251 C16.3636729,4.138065 15.2084167,4.44796234 14.0998409,4.88103167 L13.7608553,5.01345768 L12.2709327,3.09871747 C12.0851602,2.86005242 11.7515193,2.79486862 11.4897013,2.94602276 L9.48581014,4.1030344 C9.22388793,4.25416553 9.11358277,4.57559424 9.22747963,4.8560112 L10.142198,7.10762568 L9.85853791,7.33501563 C8.92769303,8.08120716 8.080947,8.92795319 7.33475547,9.85879807 L7.10736552,10.1424582 L4.85558279,9.22767141 C4.57537592,9.11371581 4.25412464,9.22401798 4.10269197,9.48621283 L2.94583115,11.4895825 C2.79458077,11.7517114 2.8597954,12.0853326 3.09868768,12.2711697 L5.01315035,13.7611144 L4.88079312,14.1000457 C4.44764979,15.2092093 4.13768297,16.3644884 3.95834462,17.5494203 L3.90383028,17.9096098 L1.49835014,18.2429305 C1.19877508,18.2844301 0.975609756,18.5407145 0.975609756,18.8433171 L0.975609756,21.1569431 C0.975609756,21.4595457 1.19877508,21.7158301 1.49836868,21.7573322 L3.90383028,22.0906504 L3.95834462,22.4508399 C4.13768297,23.6357718 4.44764979,24.7910508 4.88079312,25.9002144 L5.01315035,26.2391457 L3.09860483,27.7291549 C2.8597954,27.9149276 2.79458077,28.2485488 2.94574888,28.5105351 L4.10267362,30.5140156 C4.25412464,30.7762422 4.57537592,30.8865444 4.85575103,30.7725204 L7.10736552,29.857802 L7.33475547,30.1414621 C8.080947,31.072307 8.92769303,31.919053 9.85853791,32.6652445 L10.142198,32.8926345 L9.22749229,35.1442178 C9.11359033,35.4246473 9.2238621,35.7459356 9.48592891,35.8972943 L11.4896831,37.0542269 C11.7515193,37.2053915 12.0851602,37.1402077 12.2708863,36.9016023 L13.7608553,34.9868025 L14.0998409,35.1192285 C15.2084167,35.5522978 16.3636729,35.8621952 17.5491751,36.0416577 L17.9093512,36.0961815 L18.2426704,38.5016499 C18.2841699,38.8012249 18.5404543,39.0243902 18.8430569,39.0243902 L21.1566829,39.0243902 C21.4592855,39.0243902 21.7155699,38.8012249 21.757072,38.5016313 L22.0903902,36.0961697 L22.4505797,36.0416554 C23.6363316,35.8621929 24.7915758,35.5522988 25.8998635,35.1192423 L26.2388664,34.9867791 L27.7288071,36.9015427 C27.9145954,37.140228 28.2482959,37.205415 28.5102987,37.0542374 L30.5139149,35.8973845 C30.7760012,35.7459313 30.8863581,35.4245204 30.7725418,35.1443017 L29.8575073,32.8926622 L30.1412019,32.6652445 C31.0720468,31.919053 31.9187928,31.072307 32.6649844,30.1414621 L32.8923743,29.857802 L35.144157,30.7725888 C35.4243825,30.8865519 35.7457743,30.7762163 35.8970479,30.5140473 L37.0539087,28.5106777 C37.2051548,28.2485561 37.1399678,27.9148555 36.9013421,27.7291137 L34.9865189,26.2391265 L35.1189822,25.9001237 C35.5519458,24.7920735 35.8619117,23.6367979 36.0416704,22.4507405 L36.0962463,22.0906462 L38.5013897,21.7573296 C38.8010636,21.7158164 39.0243902,21.4594459 39.0243902,21.1569431 L39.0243902,18.8433171 C39.0243902,18.5408143 38.8010636,18.2844438 38.5013628,18.2429268 L36.0962463,17.909614 L36.0416704,17.5495196 C35.8619117,16.3634623 35.5519458,15.2081867 35.1189822,14.1001365 L34.9865189,13.7611336 L36.9012825,12.2711929 C37.1399678,12.0854046 37.2051548,11.7517041 37.053991,11.489725 L35.8969656,9.4860703 C35.7457743,9.22404383 35.4243825,9.11370824 35.1439888,9.22773979 L32.8923743,10.1424582 L32.6649844,9.85879807 C31.9187928,8.92795319 31.0720468,8.08120716 30.1412019,7.33501563 L29.8575073,7.10759801 L30.7725077,4.85604236 C30.8863657,4.57572109 30.7759753,4.25416979 30.5140711,4.10296585 L28.5104175,2.94609131 C28.2482959,2.79484515 27.9145954,2.86003217 27.7288535,3.09865786 L26.2388664,5.01348107 L25.8998635,4.88101782 C24.7915758,4.44796133 23.6363316,4.13806723 22.4505797,3.95860479 L22.0903902,3.90409044 L21.7570695,1.4986103 C21.7155562,1.19893636 21.4591857,0.975609756 21.1566829,0.975609756 Z M19.999922,8.18770732 C26.5236381,8.18770732 31.8123447,13.4764139 31.8123447,20.0001301 C31.8123447,26.5238462 26.5236381,31.8125528 19.999922,31.8125528 C13.4762058,31.8125528 8.18749919,26.5238462 8.18749919,20.0001301 C8.18749919,13.4764139 13.4762058,8.18770732 19.999922,8.18770732 Z M19.999922,9.16331707 C14.0150202,9.16331707 9.16310894,14.0152283 9.16310894,20.0001301 C9.16310894,25.9850318 14.0150202,30.8369431 19.999922,30.8369431 C25.9848237,30.8369431 30.836735,25.9850318 30.836735,20.0001301 C30.836735,14.0152283 25.9848237,9.16331707 19.999922,9.16331707 Z M23.0420293,20.0001041 L23.0419512,18.8702439 L16.9570732,18.8702439 L16.9570732,20.8858537 L23.0419512,20.8858537 L23.0419772,20.0001561 Z M24.017587,24.9989203 L23.0419772,24.9989203 L23.0419512,21.8614634 L16.9570732,21.8614634 L16.9578146,24.9989203 L15.9822049,24.9989203 L15.9822569,15.0013398 L16.9578667,15.0013398 L16.9570732,17.8946341 L23.0419512,17.8946341 L23.0420293,15.0013398 L24.017639,15.0013398 L24.017587,24.9989203 Z" id="Combined-Shape"></path>
    </g>
  </g>
</svg>
