<?xml version="1.0" encoding="UTF-8"?>
<svg xmlns="http://www.w3.org/2000/svg" xmlns:xlink="http://www.w3.org/1999/xlink" width="41px" height="46px" viewBox="0 0 41 46" version="1.1">
  <title>Nav Icon - NFTs-hvr</title>
  <defs>
    <linearGradient x1="86.6740268%" y1="100%" x2="13.3259732%" y2="-3.2187257e-14%" id="linearGradient-1">
      <stop stop-color="#2D84EB" offset="0%"></stop>
      <stop stop-color="#D173DE" offset="100%"></stop>
    </linearGradient>
  </defs>
  <g id="Homepage" stroke="none" stroke-width="1" fill="none" fill-rule="evenodd">
    <g id="Main-Nav---Prod-3" transform="translate(-700.000000, -286.000000)" fill="url(#linearGradient-1)">
      <g id="Nav-Icon---NFTs" transform="translate(700.609750, 286.000000)">
        <path d="M36.248,0 C37.077,0 37.888,0.337 38.473,0.923 C39.068,1.517 39.396,2.307 39.396,3.148 L39.396,32.276 C39.396,34.012 37.984,35.424 36.248,35.424 L34.099,35.424 L34.099,37.556 C34.099,39.292 32.687,40.704 30.952,40.704 L28.803,40.704 L28.803,42.852 C28.803,43.694 28.475,44.485 27.88,45.078 C27.287,45.673 26.497,46 25.655,46 L3.148,46 C2.306,46 1.516,45.673 0.922,45.078 C0.328,44.485 0,43.694 0,42.852 L0,13.725 C0,12.882 0.328,12.092 0.923,11.498 C1.515,10.904 2.306,10.577 3.148,10.577 L5.295,10.577 L5.295,8.429 C5.295,7.587 5.624,6.796 6.218,6.203 C6.812,5.608 7.602,5.281 8.444,5.281 L10.592,5.281 L10.592,3.148 C10.592,2.307 10.919,1.516 11.514,0.922 C12.099,0.337 12.911,0 13.74,0 Z M25.656,11.577 L3.148,11.577 C2.574,11.577 2.035,11.8 1.629,12.206 C1.223,12.611 1,13.15 1,13.725 L1,42.852 C1,43.427 1.223,43.966 1.629,44.37 C2.035,44.777 2.574,45 3.148,45 L25.655,45 C26.229,45 26.768,44.777 27.173,44.371 C27.58,43.966 27.803,43.427 27.803,42.852 L27.803,13.725 C27.803,13.151 27.58,12.611 27.174,12.206 C26.768,11.8 26.229,11.577 25.656,11.577 Z M23.0073,39.7045 C23.2833,39.7045 23.5073,39.9285 23.5073,40.2045 C23.5073,40.4805 23.2833,40.7045 23.0073,40.7045 L5.7953,40.7045 C5.5193,40.7045 5.2953,40.4805 5.2953,40.2045 C5.2953,39.9285 5.5193,39.7045 5.7953,39.7045 Z M11.015,6.281 L8.444,6.281 C7.87,6.281 7.331,6.504 6.925,6.91 C6.519,7.315 6.295,7.854 6.295,8.429 L6.295,10.577 L25.656,10.577 C26.497,10.577 27.287,10.904 27.881,11.499 C28.476,12.093 28.803,12.883 28.803,13.725 L28.803,39.704 L30.952,39.704 C32.136,39.704 33.099,38.741 33.099,37.556 L33.099,8.429 C33.099,7.855 32.875,7.315 32.47,6.91 C32.064,6.504 31.525,6.281 30.952,6.281 L11.17,6.281 C11.144,6.285 11.12,6.296 11.092,6.296 C11.065,6.296 11.041,6.285 11.015,6.281 Z M14.1523,15.27 C14.3063,15.181 14.4973,15.181 14.6523,15.27 L23.2573,20.239 C23.4113,20.328 23.5073,20.493 23.5073,20.672 L23.5073,30.61 C23.5073,30.788 23.4113,30.953 23.2573,31.043 L14.6523,36.011 C14.5743,36.056 14.4873,36.078 14.4023,36.078 C14.3163,36.078 14.2293,36.056 14.1523,36.011 L5.5453,31.043 C5.3913,30.953 5.2953,30.788 5.2953,30.61 L5.2953,20.672 C5.2953,20.493 5.3913,20.328 5.5453,20.239 Z M14.4023,16.281 L6.2953,20.96 L6.2953,30.321 L14.4023,35 L22.5073,30.321 L22.5073,20.96 L14.4023,16.281 Z M36.248,1 L13.74,1 C13.174,1 12.621,1.23 12.221,1.63 C11.816,2.035 11.592,2.574 11.592,3.148 L11.592,5.281 L30.952,5.281 C31.792,5.281 32.583,5.608 33.177,6.203 C33.772,6.797 34.099,7.587 34.099,8.429 L34.099,34.424 L36.248,34.424 C37.432,34.424 38.396,33.46 38.396,32.276 L38.396,3.148 C38.396,2.575 38.172,2.036 37.766,1.63 C37.367,1.23 36.813,1 36.248,1 Z M14.4021,20.5065 C14.5691,20.5065 14.7251,20.5905 14.8181,20.7295 L17.9071,25.3635 C18.0191,25.5315 18.0191,25.7495 17.9071,25.9175 L14.8181,30.5515 C14.7251,30.6915 14.5691,30.7745 14.4021,30.7745 C14.2351,30.7745 14.0781,30.6915 13.9861,30.5515 L10.8961,25.9175 C10.7841,25.7495 10.7841,25.5315 10.8961,25.3635 L13.9861,20.7295 C14.0781,20.5905 14.2351,20.5065 14.4021,20.5065 Z M14.4021,21.9085 L11.9121,25.6405 L14.4021,29.3735 L16.8901,25.6405 L14.4021,21.9085 Z" id="Combined-Shape"></path>
      </g>
    </g>
  </g>
</svg>
