<?xml version="1.0" encoding="UTF-8"?>
<svg xmlns="http://www.w3.org/2000/svg" xmlns:xlink="http://www.w3.org/1999/xlink" width="42px" height="42px" viewBox="0 0 42 42" version="1.1">
  <title>Nav Icon - HBAR Overview-hvr</title>
  <defs>
    <linearGradient x1="100%" y1="100%" x2="-2.38383997e-12%" y2="-3.2187257e-14%" id="linearGradient-1">
      <stop stop-color="#2D84EB" offset="0%"></stop>
      <stop stop-color="#D173DE" offset="100%"></stop>
    </linearGradient>
  </defs>
  <g id="Homepage" stroke="none" stroke-width="1" fill="none" fill-rule="evenodd">
    <g id="Main-Nav---Prod-4" transform="translate(-831.000000, -191.000000)" fill="url(#linearGradient-1)" fill-rule="nonzero">
      <g id="Nav-Icon---HBAR-Overview" transform="translate(831.864681, 191.156640)">
        <path d="M20.5,0 L20.8459124,0.00285955104 C32.0082765,0.187535523 41,9.29383428 41,20.500359 C41,31.8221128 31.8218676,41.000359 20.5,41.000359 C9.17813239,41.000359 0,31.8221128 0,20.500359 C0,9.1783031 9.17807549,0 20.5,0 Z M20.5,1 L20.1569887,1.00295615 C9.54560137,1.18598785 1,9.84515439 1,20.500359 C1,31.2698309 9.73041992,40.000359 20.5,40.000359 L20.8430096,39.9974029 C31.4543456,39.8143724 40,31.155262 40,20.500359 C40,9.7305823 31.2696342,1 20.5,1 Z M12.1652924,5.6595076 C12.3077454,5.89606997 12.2314547,6.20332263 11.9948923,6.34577563 C7.0665012,9.31355141 3.98937278,14.6404577 3.98937278,20.5000718 C3.98937278,29.6186086 11.3815709,37.0108067 20.5001077,37.0108067 C20.7514954,37.0108067 21.0053037,37.0050542 21.2621464,36.993702 C21.5380195,36.9815088 21.7715434,37.1952634 21.7837366,37.4711365 C21.7959299,37.7470095 21.5821753,37.9805334 21.3063022,37.9927267 C21.0349365,38.0047208 20.7664163,38.0108067 20.5001077,38.0108067 C10.8292861,38.0108067 2.98937278,30.1708934 2.98937278,20.5000718 C2.98937278,14.2861228 6.25322251,8.63597794 11.4790244,5.48910751 C11.7155867,5.34665451 12.0228394,5.42294523 12.1652924,5.6595076 Z M20.4998923,2.9896241 C30.1707791,2.9896241 38.0106272,10.8292436 38.0106272,20.5 C38.0106272,26.7320195 34.7278167,32.3962579 29.4777356,35.5371958 C29.2407642,35.6789674 28.9337324,35.6017927 28.7919608,35.3648214 C28.6501892,35.12785 28.7273639,34.8208182 28.9643353,34.6790466 C33.9156109,31.7168734 37.0106272,26.3766595 37.0106272,20.5 C37.0106272,11.3815349 29.6185009,3.9896241 20.4998923,3.9896241 C20.2237499,3.9896241 19.9998923,3.76576647 19.9998923,3.4896241 C19.9998923,3.21348172 20.2237499,2.9896241 20.4998923,2.9896241 Z M22.0223495,13.266991 L20.8720246,16.3761713 L24.280275,15.4829103 L24.5021542,16.3291387 L20.5011489,17.3785768 L19.1547948,21.015887 C20.67061,19.5061753 22.0517898,18.752217 23.2983341,18.752217 C23.8623667,18.752217 24.2831472,18.8491545 24.5613937,19.0423114 C24.8389222,19.2361864 24.978584,19.5309482 24.978584,19.9255197 C24.978584,20.2371558 24.7301368,20.97783 24.2332424,22.1486195 L23.1213334,24.7555201 C22.6919362,25.7740818 22.4768786,26.3621692 22.4768786,26.5219366 C22.4768786,26.694988 22.5192439,26.8267512 22.6036154,26.9168671 C22.6879869,27.005906 22.8140057,27.0511435 22.9820307,27.0511435 C23.2854091,27.0511435 23.6268445,26.902506 24.0056188,26.604154 C24.3847521,26.307597 24.7089542,25.9363623 24.978584,25.4933221 L25.5975478,25.4933221 C25.1674326,26.1995297 24.6583312,26.7671526 24.0684486,27.1969088 C23.4792841,27.6259469 22.9192008,27.8406455 22.3889168,27.8406455 C22.0011668,27.8406455 21.6687071,27.7232435 21.3908197,27.4873622 C21.1129322,27.25184 20.9739884,26.9402039 20.9739884,26.552813 C20.9739884,26.1370588 21.2095106,25.3999749 21.6812731,24.3401249 L22.7551251,21.9411015 C23.2516605,20.8392453 23.5004667,20.1470398 23.5004667,19.8630489 C23.5004667,19.6899975 23.4433813,19.5600294 23.3295695,19.4735038 C23.2157577,19.3869781 23.0416293,19.3438947 22.805389,19.3438947 C22.4262557,19.3438947 21.9799842,19.4699135 21.4665745,19.723028 C20.9528058,19.9761426 20.4182135,20.3983592 19.8624385,20.990396 C19.3063045,21.5820737 18.8998851,22.1382077 18.6431803,22.6573619 C18.3861164,23.176875 18.0515025,24.004075 17.6393387,25.1403978 L16.6792985,27.7056511 L15.1756902,27.7056511 L18.8305928,17.8165907 L16.453829,18.4395038 L16.2319499,17.5929164 L19.2011094,16.8149032 L19.609683,15.7083797 C19.8624385,15.0298173 19.9884573,14.6348867 19.9884573,14.5239472 C19.9884573,14.3648979 19.9313718,14.250368 19.8182781,14.1814347 C19.7044663,14.1121423 19.4244247,14.0773166 18.9781532,14.0773166 L18.5738879,14.0773166 L18.7253976,13.6414569 C20.0642121,13.6138118 21.0580009,13.4885111 21.7064051,13.266991 L22.0223495,13.266991 Z" id="Combined-Shape"></path>
      </g>
    </g>
  </g>
</svg>
