<?xml version="1.0" encoding="UTF-8"?>
<svg xmlns="http://www.w3.org/2000/svg" xmlns:xlink="http://www.w3.org/1999/xlink" width="44px" height="44px" viewBox="0 0 44 44" version="1.1">
  <title>Nav Icon - Integrations</title>
  <defs>
    <linearGradient x1="-1.2503923e-12%" y1="-2.1297453e-14%" x2="100%" y2="100%" id="linearGradient-1">
      <stop stop-color="#2D84EB" offset="0%"></stop>
      <stop stop-color="#D173DE" offset="100%"></stop>
    </linearGradient>
  </defs>
  <g id="Homepage" stroke="none" stroke-width="1" fill="none" fill-rule="evenodd">
    <g id="Main-Nav---2-Copy" transform="translate(-309.000000, -446.000000)" fill="url(#linearGradient-1)">
      <g id="Nav-Icon---Integrations" transform="translate(309.285008, 446.500000)">
        <path d="M42,39.7 C42,40.314 41.761,40.892 41.327,41.326 C40.893,41.761 40.315,42 39.7,42 L14.5,42 C13.886,42 13.309,41.761 12.874,41.326 C12.439,40.892 12.2,40.315 12.2,39.7 L12.2,31.8 L28.5,31.8 C29.382,31.8 30.211,31.457 30.834,30.833 C31.457,30.21 31.801,29.382 31.801,28.5 L31.801,12.2 L39.7,12.2 C40.315,12.2 40.893,12.439 41.327,12.874 C41.761,13.308 42,13.886 42,14.5 L42,39.7 Z M1.674,30.126 C1.239,29.692 1,29.114 1,28.5 L1,3.3 C1,2.686 1.239,2.108 1.674,1.674 C2.108,1.239 2.686,1 3.301,1 L28.5,1 C29.115,1 29.692,1.239 30.127,1.674 C30.562,2.108 30.801,2.686 30.801,3.3 L30.801,11.2 L14.5,11.2 C13.618,11.2 12.79,11.543 12.167,12.167 C11.544,12.79 11.2,13.618 11.2,14.5 L11.2,30.8 L3.301,30.8 C2.686,30.8 2.108,30.561 1.674,30.126 L1.674,30.126 Z M30.801,22.707 L30.801,28.5 C30.801,29.114 30.562,29.692 30.127,30.126 C29.692,30.561 29.115,30.8 28.5,30.8 L22.707,30.8 L30.801,22.707 Z M12.2,20.293 L12.2,14.5 C12.2,13.886 12.439,13.308 12.874,12.874 C13.309,12.439 13.886,12.2 14.5,12.2 L20.293,12.2 L12.2,20.293 Z M30.094,12.2 L12.2,30.093 L12.2,21.707 L21.707,12.2 L30.094,12.2 Z M12.907,30.8 L30.801,12.907 L30.801,21.293 L21.293,30.8 L12.907,30.8 Z M42.034,12.167 C41.411,11.543 40.582,11.2 39.7,11.2 L31.801,11.2 L31.801,3.3 C31.801,2.419 31.457,1.59 30.834,0.967 C30.211,0.343 29.382,0 28.5,0 L3.301,0 C2.419,0 1.59,0.343 0.967,0.967 C0.344,1.59 0,2.419 0,3.3 L0,28.5 C0,29.382 0.344,30.21 0.967,30.833 C1.59,31.457 2.419,31.8 3.301,31.8 L11.2,31.8 L11.2,39.7 C11.2,40.582 11.544,41.41 12.167,42.033 C12.79,42.657 13.618,43 14.5,43 L39.7,43 C40.582,43 41.411,42.657 42.034,42.033 C42.657,41.41 43,40.581 43,39.7 L43,14.5 C43,13.619 42.657,12.791 42.034,12.167 L42.034,12.167 Z" id="Fill-28"></path>
      </g>
    </g>
  </g>
</svg>
