<?xml version="1.0" encoding="UTF-8"?>
<svg xmlns="http://www.w3.org/2000/svg" xmlns:xlink="http://www.w3.org/1999/xlink" width="44px" height="43px" viewBox="0 0 44 43" version="1.1">
  <title>Nav Icon - Decentralized Logs-std</title>
  <defs>
    <linearGradient x1="0.00116277042%" y1="-2.1297453e-14%" x2="99.9988372%" y2="100%" id="linearGradient-1">
      <stop stop-color="#2D84EB" offset="0%"></stop>
      <stop stop-color="#D173DE" offset="100%"></stop>
    </linearGradient>
  </defs>
  <g id="Homepage" stroke="none" stroke-width="1" fill="none" fill-rule="evenodd">
    <g id="Main-Nav---Prod-3" transform="translate(-697.000000, -367.000000)" fill="url(#linearGradient-1)">
      <g id="Nav-Icon---Decentralized-Logs" transform="translate(697.005750, 367.000000)">
        <path d="M24.521,0.0005 C24.797,0.0005 25.021,0.2235 25.021,0.5005 C25.021,0.7765 24.797,1.0005 24.521,1.0005 L3.726,1.0005 C2.223,1.0005 1,2.2225 1,3.7255 L1,39.2735 C1,40.7775 2.223,42.0005 3.726,42.0005 L39.274,42.0005 C40.777,42.0005 42,40.7775 42,39.2735 L42,18.4795 C42,18.2035 42.224,17.9795 42.5,17.9795 C42.776,17.9795 43,18.2035 43,18.4795 L43,39.2735 C43,41.3285 41.329,43.0005 39.274,43.0005 L3.726,43.0005 C1.671,43.0005 0,41.3285 0,39.2735 L0,3.7255 C0,1.6715 1.671,0.0005 3.726,0.0005 Z M21.696,10.086 C21.973,10.086 22.196,10.31 22.196,10.586 L22.196,21.273 L32.687,21.273 C32.963,21.273 33.187,21.497 33.187,21.773 L33.187,32.959 C33.187,33.236 32.963,33.459 32.687,33.459 L10.509,33.459 C10.232,33.459 10.009,33.236 10.009,32.959 L10.009,10.586 C10.009,10.31 10.232,10.086 10.509,10.086 Z M21,22.273 L11.009,22.273 L11.009,32.46 L21,32.46 L21,22.273 Z M32.187,22.272 L22.197,22.272 L22.197,32.459 L32.187,32.459 L32.187,22.272 Z M21.197,11.086 L11.009,11.086 L11.009,21.273 L21.197,21.273 L21.197,11.086 Z M42.5,0 C42.776,0 43,0.224 43,0.5 L43,11.687 C43,11.963 42.776,12.187 42.5,12.187 L31.313,12.187 C31.037,12.187 30.813,11.963 30.813,11.687 L30.813,0.5 C30.813,0.224 31.037,0 31.313,0 Z M42,1 L31.813,1 L31.813,11.187 L42,11.187 L42,1 Z" id="Combined-Shape"></path>
      </g>
    </g>
  </g>
</svg>
