<?xml version="1.0" encoding="UTF-8"?>
<svg xmlns="http://www.w3.org/2000/svg" xmlns:xlink="http://www.w3.org/1999/xlink" width="42px" height="42px" viewBox="0 0 42 42" version="1.1">
  <title>Nav Icon - How it Works-std</title>
  <defs>
    <linearGradient x1="0.00422847843%" y1="-2.1297453e-14%" x2="99.9957715%" y2="100%" id="linearGradient-1">
      <stop stop-color="#2D84EB" offset="0%"></stop>
      <stop stop-color="#D173DE" offset="100%"></stop>
    </linearGradient>
  </defs>
  <g id="Homepage" stroke="none" stroke-width="1" fill="none" fill-rule="evenodd">
    <g id="Main-Nav---Prod-1" transform="translate(-500.000000, -202.000000)" fill="url(#linearGradient-1)" fill-rule="nonzero">
      <g id="Nav-Icon---How-it-Works" transform="translate(500.321831, 202.655255)">
        <path d="M20.5216319,0 C21.1489967,0 21.7796693,0.028744941 22.4103535,0.0861188017 C27.1367925,0.517042435 31.606104,2.62291076 34.9962916,6.01566989 C38.3868375,9.4083587 40.4889697,13.8789562 40.9156232,18.6055913 C41.4654481,24.6960909 39.3093632,30.6651142 35.0006076,34.9802988 C30.6915274,39.2953793 24.7285247,41.4596648 18.6349505,40.920547 C13.8991441,40.5003106 9.4182337,38.396398 6.01664613,34.9965247 C2.61511217,31.5967053 0.507750746,27.1169896 0.0832877259,22.38144 C-0.463537171,16.2845138 1.70111443,10.3120266 6.02143121,5.99813887 C9.88130918,2.14424256 15.0772086,0 20.5216319,0 Z M20.5216319,1 C15.3418255,1 10.4001406,3.03933336 6.72800036,6.70578287 C2.61775528,10.8099115 0.558940944,16.4903833 1.07929225,22.2921373 C1.48275694,26.7934175 3.48732561,31.0546219 6.72357465,34.2892397 C9.9597746,37.5238087 14.2219674,39.5250274 18.7232093,39.9244494 C24.5219044,40.4374784 30.1934091,38.3789927 34.2929914,34.2737018 C38.3921937,30.1683831 40.4428803,24.4911503 39.9196729,18.6954965 C39.5141233,14.2026587 37.5145566,9.95018708 34.2889391,6.72253089 C31.0636204,3.49476564 26.8122839,1.49160366 22.3196569,1.08199737 C21.7191322,1.02736715 21.1186888,1 20.5216319,1 Z M15.034469,10.549681 L15.0341685,16.1767452 L25.9681685,16.1767452 L25.9688171,10.549681 L29.6765119,10.549681 L29.6765119,30.2308937 L25.9688171,30.2308937 L25.9681685,24.4707452 L15.0341685,24.4707452 L15.034469,30.2308937 L11.3238469,30.2308937 L11.3238469,10.549681 L15.034469,10.549681 Z M14.0341685,11.5487452 L12.3231685,11.5487452 L12.3231685,29.2307452 L14.0341685,29.2307452 L14.034469,23.4713445 L26.9688171,23.4713445 L26.9681685,29.2307452 L28.6761685,29.2307452 L28.6761685,11.5487452 L26.9681685,11.5487452 L26.9688171,17.1770864 L14.034469,17.1770864 L14.0341685,11.5487452 Z M27.096361,18.3398968 L27.096361,22.3102067 L14.1624311,22.3102067 L14.1624311,18.3398968 L27.096361,18.3398968 Z M26.0961685,19.3397452 L15.1621685,19.3397452 L15.1621685,21.3097452 L26.0961685,21.3097452 L26.0961685,19.3397452 Z" id="Combined-Shape"></path>
      </g>
    </g>
  </g>
</svg>
