<?xml version="1.0" encoding="UTF-8"?>
<svg xmlns="http://www.w3.org/2000/svg" xmlns:xlink="http://www.w3.org/1999/xlink" width="42px" height="46px" viewBox="0 0 42 46" version="1.1">
  <title>Nav Icon - DeFi-hvr</title>
  <defs>
    <linearGradient x1="89.5557853%" y1="100%" x2="10.4442147%" y2="-3.2187257e-14%" id="linearGradient-1">
      <stop stop-color="#2D84EB" offset="0%"></stop>
      <stop stop-color="#D173DE" offset="100%"></stop>
    </linearGradient>
  </defs>
  <g id="Homepage" stroke="none" stroke-width="1" fill="none" fill-rule="evenodd">
    <g id="Main-Nav---Prod-3" transform="translate(-1056.000000, -205.000000)" fill="url(#linearGradient-1)">
      <g id="Nav-Icon---DeFi" transform="translate(1056.596500, 205.000000)">
        <path d="M19.816,0.1245 C20.229,-0.0415 20.686,-0.0415 21.098,0.1245 L39.478,7.6395 C40.133,7.9005 40.559,8.5295 40.559,9.2395 L40.559,12.4115 C40.559,13.3635 39.784,14.1365 38.833,14.1365 L36.639,14.1365 L36.639,29.1445 L38.833,29.1445 C39.784,29.1445 40.559,29.9185 40.559,30.8695 L40.559,33.7285 C40.559,34.6795 39.784,35.4535 38.833,35.4535 L29.138,35.4535 L29.138,42.9255 L35.713,42.9255 C35.928,41.6935 36.999,40.7535 38.291,40.7535 C39.738,40.7535 40.915,41.9305 40.915,43.3765 C40.915,44.8235 39.738,46.0005 38.291,46.0005 C37.032,46.0005 35.979,45.1095 35.727,43.9255 L28.638,43.9255 C28.361,43.9255 28.138,43.7015 28.138,43.4255 L28.138,35.4535 L20.957,35.4535 L20.957,40.6105 C22.166,40.8445 23.081,41.9085 23.081,43.1835 C23.081,44.6305 21.904,45.8075 20.457,45.8075 C19.011,45.8075 17.834,44.6305 17.834,43.1835 C17.834,41.9085 18.749,40.8455 19.957,40.6105 L19.957,35.4535 L12.776,35.4535 L12.776,43.4255 C12.776,43.7015 12.553,43.9255 12.276,43.9255 L5.187,43.9255 C4.935,45.1095 3.882,46.0005 2.623,46.0005 C1.177,46.0005 0,44.8235 0,43.3765 C0,41.9305 1.177,40.7535 2.623,40.7535 C3.916,40.7535 4.986,41.6935 5.201,42.9255 L11.776,42.9255 L11.776,35.4535 L2.081,35.4535 C1.13,35.4535 0.355,34.6795 0.355,33.7285 L0.355,30.8695 C0.355,29.9185 1.13,29.1445 2.081,29.1445 L4.276,29.1445 L4.276,14.1365 L2.081,14.1365 C1.13,14.1365 0.355,13.3635 0.355,12.4115 L0.355,9.2395 C0.355,8.5305 0.781,7.9015 1.44,7.6375 L19.812,0.1255 Z M38.291,41.7535 C37.395,41.7535 36.667,42.4815 36.667,43.3765 C36.667,44.2725 37.395,45.0005 38.291,45.0005 C39.187,45.0005 39.915,44.2725 39.915,43.3765 C39.915,42.4815 39.187,41.7535 38.291,41.7535 Z M2.623,41.7535 C1.728,41.7535 1,42.4815 1,43.3765 C1,44.2725 1.728,45.0005 2.623,45.0005 C3.519,45.0005 4.247,44.2725 4.247,43.3765 C4.247,42.4815 3.519,41.7535 2.623,41.7535 Z M20.457,41.5605 C19.562,41.5605 18.834,42.2885 18.834,43.1835 C18.834,44.0795 19.562,44.8075 20.457,44.8075 C21.353,44.8075 22.081,44.0795 22.081,43.1835 C22.081,42.2885 21.353,41.5605 20.457,41.5605 Z M38.833,30.1445 L2.081,30.1445 C1.681,30.1445 1.355,30.4695 1.355,30.8695 L1.355,33.7285 C1.355,34.1285 1.681,34.4535 2.081,34.4535 L38.833,34.4535 C39.233,34.4535 39.559,34.1285 39.559,33.7285 L39.559,30.8695 C39.559,30.4695 39.233,30.1445 38.833,30.1445 Z M9.503,14.1365 L5.276,14.1365 L5.276,29.1445 L9.503,29.1445 L9.503,14.1365 Z M22.571,14.1365 L18.344,14.1365 L18.344,29.1445 L22.571,29.1445 L22.571,14.1365 Z M17.344,14.1365 L10.503,14.1365 L10.503,29.1445 L17.344,29.1445 L17.344,14.1365 Z M30.411,14.1365 L23.57,14.1365 L23.57,29.1445 L30.411,29.1445 L30.411,14.1365 Z M35.639,14.1365 L31.411,14.1365 L31.411,29.1445 L35.639,29.1445 L35.639,14.1365 Z M20.723,1.0515 C20.552,0.9825 20.361,0.9835 20.188,1.0525 L1.815,8.5645 C1.534,8.6775 1.355,8.9415 1.355,9.2395 L1.355,12.4115 C1.355,12.8115 1.681,13.1365 2.081,13.1365 L38.833,13.1365 C39.233,13.1365 39.559,12.8115 39.559,12.4115 L39.559,9.2395 C39.559,8.9415 39.38,8.6775 39.103,8.5665 Z M20.457,5.2969 C20.733,5.2969 20.957,5.5209 20.957,5.7969 L20.957,8.4099 C20.957,8.6859 20.733,8.9099 20.457,8.9099 C20.181,8.9099 19.957,8.6859 19.957,8.4099 L19.957,5.7969 C19.957,5.5209 20.181,5.2969 20.457,5.2969 Z" id="Combined-Shape"></path>
      </g>
    </g>
  </g>
</svg>
