<?xml version="1.0" encoding="UTF-8"?>
<svg xmlns="http://www.w3.org/2000/svg" xmlns:xlink="http://www.w3.org/1999/xlink" width="45px" height="46px" viewBox="0 0 45 46" version="1.1">
  <title>Group 11 Copy</title>
  <defs>
    <linearGradient x1="100%" y1="99.9955843%" x2="-2.38383997e-12%" y2="0.00441566875%" id="linearGradient-1">
      <stop stop-color="#2D84EB" offset="0%"></stop>
      <stop stop-color="#D173DE" offset="100%"></stop>
    </linearGradient>
  </defs>
  <g id="Homepage" stroke="none" stroke-width="1" fill="none" fill-rule="evenodd">
    <g id="Group-11-Copy" transform="translate(0.000000, 0.977589)" fill="url(#linearGradient-1)">
      <path d="M22.226186,18.4379534 C24.5157946,18.4379534 26.3778498,20.3000086 26.3778498,22.5896172 L26.3778498,27.5664192 L32.2676982,27.5664192 C34.0538327,27.5664192 35.5063156,29.0199011 35.5063156,30.8050367 L35.5063156,40.8465489 C35.5063156,43.1351585 33.6432615,44.9982127 31.3546518,44.9982127 L24.2740471,44.9982127 C21.7127223,44.9982127 19.300242,44.0272268 17.4581659,42.2590736 L12.683,42.259 L12.6838524,44.4984347 C12.6838524,44.7741467 12.4610851,44.997913 12.1843741,44.997913 L0.499578218,44.997913 C0.223866184,44.997913 9.98956648e-05,44.7741467 9.98956648e-05,44.4984347 L9.98956648e-05,26.2405041 C9.98956648e-05,25.964792 0.223866184,25.7410257 0.499578218,25.7410257 L12.1843741,25.7410257 C12.4610851,25.7410257 12.6838524,25.964792 12.6838524,26.2405041 L12.683,28.479 L14.9228139,28.4794656 C16.4821853,28.4794656 17.9706307,27.7352429 18.9056541,26.488545 C19.5479832,25.6324392 19.9016139,24.5715472 19.9016139,23.5016646 L19.9016139,20.7635245 C19.9016139,19.4808641 20.9445246,18.4379534 22.226186,18.4379534 Z M22.226186,19.43691 C21.4949497,19.43691 20.9005705,20.0322882 20.9005705,20.7635245 L20.9005705,23.5016646 C20.9005705,24.7863229 20.4760139,26.0599926 19.7048194,27.087919 C18.5819921,28.585355 16.7948587,29.4784222 14.9228139,29.4784222 L12.6841521,29.4784222 L12.6841521,41.2601169 L17.6619531,41.2601169 C17.7948143,41.2601169 17.9216818,41.3130616 18.0155837,41.4059646 C19.6868382,43.078218 21.9095167,43.999256 24.2740471,43.999256 L31.3546518,43.999256 C33.0938353,43.999256 34.507359,42.5847334 34.507359,40.8465489 L34.507,39.52 L30.4423047,39.5204339 C30.1655937,39.5204339 29.9428264,39.2966676 29.9428264,39.0209556 C29.9428264,38.7452436 30.1655937,38.5214773 30.4423047,38.5214773 L34.507,38.521 L34.507,34.043 L30.4423047,34.0432545 C30.1655937,34.0432545 29.9428264,33.8194882 29.9428264,33.5437762 C29.9428264,33.2680642 30.1655937,33.0442979 30.4423047,33.0442979 L34.507,33.044 L34.507359,30.8050367 C34.507359,29.5703263 33.5024086,28.5653759 32.2676982,28.5653759 L25.8783715,28.5653759 C25.6026594,28.5653759 25.3788932,28.3426085 25.3788932,28.0658976 L25.3788932,22.5896172 C25.3788932,20.8514327 23.9643705,19.43691 22.226186,19.43691 Z M11.6848958,26.7399824 L0.999056541,26.7399824 L0.999056541,43.9989564 L11.6848958,43.9989564 L11.6848958,26.7399824 Z M44.0122317,10.1146466 C44.6485671,10.751981 45.0001998,11.5990962 45.0001998,12.5001551 C45.0001998,13.402213 44.6485671,14.2493282 44.0122317,14.8866625 L39.7906409,19.1082533 C39.696739,19.2021552 39.5698715,19.254101 39.4370102,19.254101 C39.305148,19.254101 39.1782805,19.2021552 39.0843785,19.1082533 L34.8617888,14.8866625 C33.5471619,13.5710366 33.5471619,11.4302725 34.8617888,10.1146466 C36.0725243,8.90391118 38.1503541,8.8319863 39.4370102,9.93283653 C40.7616267,8.80401552 42.7615379,8.86295396 44.0122317,10.1146466 Z M10.138411,10.1146466 C10.7747464,10.751981 11.1263791,11.5990962 11.1263791,12.5001551 C11.1263791,13.402213 10.7747464,14.2493282 10.138411,14.8866625 L5.91682021,19.1082533 C5.82291829,19.2021552 5.69605079,19.254101 5.56318956,19.254101 C5.43132728,19.254101 5.30445979,19.2021552 5.21055786,19.1082533 L0.987968122,14.8866625 C0.351632739,14.2493282 0,13.402213 0,12.5001551 C0,11.5990962 0.351632739,10.751981 0.987968122,10.1146466 C2.19870358,8.90391118 4.2765334,8.8319863 5.56318956,9.93283653 C6.88780607,8.80401552 8.88671832,8.86295396 10.138411,10.1146466 Z M37.2482962,10.1256352 C36.6129598,10.1256352 36.0175816,10.3723774 35.5680511,10.820909 C34.6430173,11.7469418 34.6430173,13.2543674 35.5680511,14.1804002 L39.4370102,18.0483603 L43.3049704,14.1804002 C43.7545009,13.7318686 44.0012431,13.1354915 44.0012431,12.5001551 C44.0012431,11.8658176 43.7545009,11.2704395 43.3049704,10.820909 C42.3779386,9.89487617 40.8725109,9.89587513 39.9464781,10.820909 L39.7906409,10.9777452 C39.5958443,11.1725417 39.280174,11.1725417 39.0853775,10.9787441 L38.9285413,10.8219079 C38.4780119,10.3723774 37.8826337,10.1256352 37.2482962,10.1256352 Z M3.37447555,10.1256352 C2.73913912,10.1256352 2.14376096,10.3723774 1.69423047,10.820909 C1.24569894,11.2704395 0.998956645,11.8658176 0.998956645,12.5001551 C0.998956645,13.1354915 1.24569894,13.7318686 1.69423047,14.1804002 L5.56318956,18.0483603 L9.43114969,14.1804002 C9.88068018,13.7318686 10.1274225,13.1354915 10.1274225,12.5001551 C10.1274225,11.8658176 9.88068018,11.2704395 9.43114969,10.820909 C8.50511688,9.89487617 6.99968921,9.89587513 6.07265745,10.820909 L5.91682021,10.9777452 C5.72202366,11.1725417 5.40635336,11.1725417 5.21155682,10.9787441 L5.05472063,10.8219079 C4.60419118,10.3723774 4.00881302,10.1256352 3.37447555,10.1256352 Z M28.7641574,1.32332868 C29.6182654,2.17743661 30.0887739,3.31325032 30.0887739,4.52198786 C30.0887739,5.72972644 29.6182654,6.8665391 28.7641574,7.72064703 L22.853331,13.6304745 C22.759429,13.7243765 22.6325615,13.7773212 22.4997003,13.7773212 C22.367838,13.7773212 22.2409705,13.7243765 22.1470686,13.6304745 L16.2372411,7.72064703 C15.3821342,6.8665391 14.9126246,5.72972644 14.9126246,4.52198786 C14.9126246,3.31325032 15.3821342,2.17743661 16.2372411,1.32332868 C17.9564455,-0.396874666 20.7275512,-0.439829801 22.4997003,1.19346431 C24.2738473,-0.439829801 27.0439541,-0.396874666 28.7641574,1.32332868 Z M19.4359003,0.998667768 C18.5338424,0.998667768 17.6307856,1.34230885 16.9435035,2.02959103 C16.2781983,2.69489615 15.9115812,3.57997174 15.9115812,4.52198786 C15.9115812,5.46300502 16.2781983,6.3480806 16.9435035,7.01438469 L22.4997003,12.5715805 L28.0578951,7.01438469 C28.7232002,6.3480806 29.0898173,5.46300502 29.0898173,4.52198786 C29.0898173,3.57997174 28.7232002,2.69489615 28.0578951,2.02959103 C26.6833307,0.655026682 24.4466668,0.656025639 23.0721025,2.02959103 L22.853331,2.24736357 C22.6655271,2.43516742 22.3338735,2.43516742 22.1470686,2.24736357 L21.9282971,2.02859207 C21.2420139,1.34230885 20.3379581,0.998667768 19.4359003,0.998667768 Z" id="Combined-Shape"></path>
    </g>
  </g>
</svg>
