<?xml version="1.0" encoding="UTF-8"?>
<svg xmlns="http://www.w3.org/2000/svg" xmlns:xlink="http://www.w3.org/1999/xlink" width="41px" height="30px" viewBox="0 0 41 30" version="1.1">
  <title>Nav Icon - Fee Estimator-std</title>
  <defs>
    <linearGradient x1="-1.2503923e-12%" y1="22.6441491%" x2="100%" y2="77.3558509%" id="linearGradient-1">
      <stop stop-color="#2D84EB" offset="0%"></stop>
      <stop stop-color="#D173DE" offset="100%"></stop>
    </linearGradient>
  </defs>
  <g id="Homepage" stroke="none" stroke-width="1" fill="none" fill-rule="evenodd">
    <g id="Main-Nav---Prod-2" transform="translate(-704.000000, -286.000000)" fill="url(#linearGradient-1)" fill-rule="nonzero">
      <g id="Nav-Icon---Fee-Estimator" transform="translate(704.660917, 286.413056)">
        <path d="M5.12728475,26.1777469 C2.83259462,26.1777469 0.970543613,24.315805 0.970543613,22.0210058 L0.970543613,4.15642551 C0.970543613,1.86209977 2.83275245,0 5.12728475,0 L34.6785371,0 C36.9728083,0 38.8349626,1.8621543 38.8349626,4.15642551 L38.8349626,22.0210058 C38.8349626,24.3157505 36.9729661,26.1777469 34.6785371,26.1777469 Z M19.90269,8.0973991 L19.630098,8.10133031 C14.3763737,8.24569948 10.1621202,12.5494079 10.1621202,17.8379057 C10.1621202,18.3330088 10.1991429,18.8218104 10.271305,19.3011845 C10.2743493,19.3218226 10.2776162,19.3430549 10.2809521,19.3642684 C10.6548299,21.7418392 11.8942311,23.8833579 13.7681541,25.4052774 L13.6521739,25.3078261 L26.1530435,25.3078261 L26.180663,25.2870235 C26.2809094,25.2024299 26.3792571,25.1160285 26.4756688,25.0278813 C26.8050678,24.7264751 27.11196,24.404826 27.3947505,24.065256 L27.4404868,24.0099244 C27.5448692,23.8826934 27.645895,23.7529936 27.7434873,23.6209527 L27.7825254,23.5680266 C27.8179579,23.5194015 27.8529278,23.4704641 27.8874312,23.4212209 L27.8948972,23.4102807 L27.9531297,23.3262614 C27.9827516,23.2828984 28.0120156,23.2393049 28.0409191,23.1954852 L27.953103,23.32603 C28.0083325,23.2451804 28.0623179,23.1635298 28.1150427,23.0811054 L28.0409191,23.1954852 C28.104658,23.0988529 28.1666441,23.0011203 28.2268503,22.9023325 L28.1150427,23.0811054 C28.1757724,22.9861669 28.2348298,22.8902018 28.2921897,22.7932516 L28.2268503,22.9023325 C28.2805397,22.8142376 28.3328137,22.7253035 28.3836531,22.6355621 L28.2921897,22.7932516 C28.3439117,22.7058307 28.3942536,22.6176088 28.443197,22.5286165 L28.3836531,22.6355621 C28.4324852,22.5493639 28.4799938,22.4624208 28.5261618,22.3747613 L28.5397139,22.348657 C28.5581705,22.3133558 28.57641,22.2779392 28.5944314,22.2424091 L28.6585874,22.113557 C28.6799961,22.0697461 28.7010762,22.0257686 28.7218256,21.9816277 L28.6586165,22.1137775 C28.7076681,22.0133972 28.7549946,21.9121416 28.8005715,21.8100514 L28.7218256,21.9816277 C28.7765821,21.8651426 28.829036,21.7475202 28.8791499,21.6288225 L28.8005715,21.8100514 C28.8369817,21.7284944 28.8722753,21.6464047 28.90644,21.563803 L28.8791499,21.6288225 C28.9195091,21.5332293 28.9583506,21.4369386 28.9956551,21.3399828 L28.90644,21.563803 C28.9458566,21.4685037 28.9837703,21.3725229 29.0201623,21.2758923 L29.0481896,21.200235 C29.0637108,21.1579592 29.0789417,21.1155615 29.0938808,21.0730446 L29.13888,20.9419831 C29.1610552,20.8758591 29.1825286,20.8094563 29.2032944,20.7427844 L29.1391571,20.9414499 C29.1694896,20.8509767 29.1985084,20.7599813 29.2261987,20.6684889 L29.2032944,20.7427844 C29.2351765,20.6404216 29.2653906,20.5374244 29.2939155,20.4338281 L29.2261987,20.6684889 C29.2572417,20.5659183 29.2866148,20.4627229 29.314297,20.3589378 L29.3305564,20.2968472 C29.3418025,20.2535374 29.3527546,20.2101265 29.3634114,20.1666172 L29.3941381,20.0373395 C29.4810021,19.6604184 29.545776,19.2763594 29.5874807,18.8867881 C29.601183,18.7593156 29.6123388,18.6315018 29.6210006,18.5031565 C29.6291813,18.3811376 29.6351785,18.258237 29.6388766,18.1349021 L29.6433228,17.838032 C29.6433228,16.7344397 29.4598436,15.6737442 29.1217224,14.6847826 C27.8114041,10.8526949 24.1789815,8.09758848 19.9027531,8.09758848 Z M20.1899905,7.23164738 L20.4754043,7.24302373 C24.510729,7.45761194 27.9473975,9.92642596 29.5492229,13.4132788 C30.1678912,14.7597795 30.5129512,16.2585268 30.5129512,17.8379057 C30.5129512,18.031839 30.5077306,18.2248928 30.4973855,18.4169075 C30.495958,18.4423045 30.4945038,18.4676191 30.4929607,18.4929153 L30.4973855,18.4169075 C30.492775,18.5024822 30.4871467,18.5878504 30.4805091,18.6729982 C30.4758174,18.732437 30.4706779,18.7919251 30.4650468,18.8513004 C30.4487141,19.0240258 30.4282647,19.1950877 30.4037609,19.3650846 C30.3951433,19.4244334 30.3860715,19.4837958 30.3765061,19.5430227 C30.3688737,19.5906918 30.3608285,19.6384327 30.3524631,19.6860827 C30.3429018,19.7401586 30.3330007,19.7940865 30.32269,19.8478934 C30.318603,19.8695835 30.3143971,19.8911686 30.3101253,19.9127341 L30.2907033,20.0081186 L30.264249,20.1317847 C30.2582013,20.1592521 30.2520461,20.1866857 30.2457839,20.2140849 C30.2396148,20.241414 30.2331688,20.2691091 30.2266135,20.2967684 C30.2102023,20.3656702 30.1932947,20.4339424 30.1757213,20.501987 C30.1590184,20.5669783 30.1416524,20.6316708 30.1236852,20.696149 C30.1154053,20.7255566 30.1070157,20.7551627 30.0984994,20.7847228 C30.0753524,20.8653656 30.0512861,20.9453114 30.0262935,21.0249035 L30.0109797,21.0729689 C30.0089468,21.0793357 30.006908,21.0857003 30.0048632,21.0920626 L29.9998621,21.1078775 C29.9432017,21.2832411 29.8820308,21.4568536 29.8164408,21.6285632 C29.8025974,21.6645085 29.7888751,21.6998509 29.7749654,21.7351109 C29.7155859,21.8859428 29.6525584,22.0355095 29.5861561,22.1834598 L29.5549668,22.2520097 C29.5361226,22.2932039 29.5170157,22.3342707 29.4976476,22.3752077 C29.4734442,22.4266495 29.4486754,22.4779271 29.4234961,22.528995 C29.3893627,22.5979428 29.3545076,22.6667225 29.3189062,22.7351063 C29.3111686,22.7502474 29.3033566,22.7651658 29.2955091,22.7800652 L29.3189062,22.7351063 C29.2736549,22.822026 29.227198,22.9083062 29.1795497,22.9939235 C29.1570678,23.034599 29.1341918,23.0750746 29.1110491,23.1153985 C29.0248518,23.2653092 28.93503,23.4132727 28.8415905,23.5590074 C28.8202373,23.5925853 28.7985698,23.6259647 28.7767122,23.6592249 L28.760763,23.6831506 C28.7505142,23.6986533 28.740224,23.71413 28.7298925,23.7295804 L28.7009145,23.7729579 C28.63405,23.8718969 28.565484,23.9697466 28.4952416,24.0664649 C28.4757149,24.0930848 28.455962,24.1200158 28.4360788,24.1468577 L28.4952416,24.0664649 C28.358189,24.255176 28.2147546,24.4395803 28.065126,24.6193666 C28.0330559,24.6576403 28.0005889,24.6960949 27.9678372,24.7343328 C27.9622962,24.7410615 27.9571898,24.7470092 27.9520764,24.7529516 L27.9260521,24.7828216 C27.8945984,24.8191003 27.8628867,24.8551809 27.8309187,24.8910607 C27.8068452,24.9180798 27.7826263,24.9449851 27.7582628,24.9717754 C27.6709449,25.0680561 27.5813904,25.1629877 27.4899937,25.2563761 L27.6128418,25.1284965 C27.5843758,25.1585648 27.5557228,25.1884803 27.526884,25.2182411 L27.4899937,25.2563761 L27.4373913,25.3078261 L34.6785371,25.3081817 C36.4360253,25.3081817 37.8730214,23.9261071 37.9611174,22.190079 L37.9653974,22.0210058 L37.9653974,4.15642551 C37.9653974,2.34240191 36.4925607,0.869565217 34.6785371,0.869565217 L5.12728475,0.869565217 C3.31298866,0.869565217 1.84010883,2.34235878 1.84010883,4.15642551 L1.84010883,22.0210058 C1.84010883,23.835546 3.31283083,25.3081817 5.12728475,25.3081817 L12.3669565,25.3078261 L12.3155125,25.2563761 C12.3033159,25.2439137 12.2911521,25.2314238 12.2790211,25.2189065 C12.2179615,25.1555695 12.1580091,25.0921693 12.0988918,25.0280983 C12.0866236,25.0151189 12.07468,25.0021078 12.0627707,24.9890692 C12.0537084,24.9788329 12.0445291,24.9687454 12.0353702,24.9586417 L11.9746758,24.8911096 C11.9427048,24.8552305 11.9109901,24.8191506 11.8795335,24.7828726 C11.8642312,24.7655226 11.8492441,24.7481224 11.8343163,24.7306771 C11.8024162,24.6931033 11.7708264,24.6556681 11.739508,24.6180306 C11.6622544,24.5254678 11.5867353,24.4314923 11.5128901,24.336331 C11.506274,24.3275402 11.4995531,24.3188524 11.4928461,24.3101548 C11.2685371,24.0192712 11.0598223,23.7173935 10.8674308,23.405733 C10.8296735,23.3447463 10.7927946,23.2836171 10.7565414,23.222125 C10.7511321,23.2127775 10.7458102,23.2037203 10.7405018,23.1946552 C10.7289021,23.1748463 10.7173672,23.1550001 10.7058973,23.1351168 L10.6803915,23.0908144 C10.6462969,23.0310373 10.6127874,22.9709288 10.5798679,22.9104971 C10.5658513,22.8846216 10.5521627,22.8592457 10.538578,22.8338137 C10.507977,22.776662 10.4777289,22.7187467 10.4480186,22.66055 C10.4192133,22.604006 10.3910834,22.5476661 10.3634565,22.491071 C10.3446075,22.4525568 10.3260424,22.4139252 10.3077115,22.3751774 C10.2848507,22.3267698 10.2622653,22.2780786 10.240049,22.2292091 C10.2304115,22.20808 10.221163,22.1875556 10.2119796,22.1670001 L10.158553,22.0453045 C10.1393283,22.0007799 10.1204069,21.9561138 10.1017907,21.911309 C10.078867,21.8561618 10.0567123,21.8015349 10.0350106,21.7467083 C10.0171995,21.7016996 9.99948357,21.6560281 9.98208193,21.6102219 C9.96150447,21.5560454 9.94163137,21.5024052 9.92218894,21.448586 C9.91841198,21.4381462 9.91444079,21.4270991 9.91048773,21.4160445 C9.9060567,21.4036533 9.90164846,21.3912527 9.89726307,21.3788427 L9.84747337,21.234593 C9.83529229,21.1984618 9.82330361,21.1622541 9.81150815,21.125971 C9.80935079,21.1193887 9.80739284,21.1133471 9.80544025,21.1073034 C9.79481436,21.0744138 9.78434715,21.0414627 9.77403922,21.008451 L9.74383071,20.9099356 C9.73510796,20.8810069 9.72650708,20.8520327 9.71802849,20.8230138 C9.7030025,20.7716855 9.68844831,20.7204367 9.67427567,20.6690528 C9.65709581,20.6066327 9.64048791,20.5441796 9.6244439,20.4815346 C9.61057184,20.4275397 9.59705046,20.3729523 9.58395761,20.3182242 C9.57180403,20.2672171 9.56014581,20.2168348 9.54885096,20.166337 C9.54632901,20.1552796 9.54372794,20.1435617 9.54114644,20.1318376 L9.52095806,20.0381304 C9.51759265,20.0221582 9.51426349,20.0061749 9.51097064,19.9901804 C9.5015228,19.9440209 9.49243033,19.8983144 9.48363461,19.8525201 C9.47275157,19.7961611 9.46229522,19.7392276 9.4522982,19.6821638 C9.44417465,19.6354509 9.43635815,19.5890035 9.42884626,19.5424725 L9.42027599,19.4888914 C9.33585288,18.9484515 9.2924919,18.3968919 9.2924919,17.838032 C9.2924919,11.9778324 14.0425922,7.22783389 19.90269,7.22783389 C19.9987606,7.22783389 20.0945328,7.2291104 20.1899905,7.23164738 Z M20.871466,13.294667 L20.1499262,15.2449707 L22.2877167,14.6844044 L22.4269114,15.2156167 L19.9173038,15.8737141 L19.0726667,18.1554337 C20.0236726,17.2085311 20.8897728,16.7353954 21.6715987,16.7353954 C22.0254247,16.7353954 22.2896105,16.7963128 22.4641562,16.9175164 C22.6383863,17.0390355 22.725817,17.2239972 22.725817,17.4714544 C22.725817,17.666832 22.5698937,18.1314455 22.2583627,18.8659263 L21.5608111,20.5012271 C21.2912595,21.1400707 21.1564837,21.5090471 21.1564837,21.6091032 C21.1564837,21.7176813 21.182997,21.8003775 21.2360235,21.856876 C21.2890501,21.9130589 21.3679586,21.9411504 21.4733805,21.9411504 C21.6637079,21.9411504 21.8780235,21.8480383 22.1156961,21.6608672 C22.3533686,21.474643 22.5566371,21.2420206 22.725817,20.9639469 L23.1140471,20.9639469 C22.8444954,21.4070973 22.524758,21.7631327 22.1548347,22.0326843 C21.7852271,22.3019202 21.4339262,22.4363804 21.1012477,22.4363804 C20.8582094,22.4363804 20.6495752,22.3628376 20.4753451,22.2148052 C20.3007994,22.0670884 20.2136844,21.8717108 20.2136844,21.6286725 C20.2136844,21.3679586 20.3617168,20.9055545 20.657466,20.2405133 L21.3310294,18.7355694 C21.6425604,18.0446461 21.7984837,17.6103334 21.7984837,17.4323158 C21.7984837,17.3237376 21.762817,17.2419883 21.6914837,17.1880149 C21.6201504,17.1337258 21.5106253,17.1065813 21.3625929,17.1065813 C21.1249203,17.1065813 20.8449528,17.1858054 20.5226902,17.3445694 C20.2004277,17.5030178 19.8652242,17.7681505 19.5164484,18.1393364 C19.1676726,18.5105222 18.9129558,18.859298 18.7516667,19.1850325 C18.5903776,19.510767 18.3804809,20.0299852 18.1219765,20.7426873 L17.5197464,22.3517905 L16.5766314,22.3517905 L18.8693983,16.1486314 L17.3783423,16.5393866 L17.2394633,16.0081742 L19.1017051,15.5202037 L19.358,14.8261241 C19.5164484,14.4003336 19.5956726,14.1525607 19.5956726,14.0831212 C19.5956726,13.9833808 19.5596903,13.9114162 19.4886726,13.8681743 C19.4173393,13.8246168 19.2418466,13.8031537 18.9618791,13.8031537 L18.7081092,13.8031537 L18.8034307,13.5294988 C19.6430177,13.5121389 20.2663953,13.433546 20.6732478,13.294667 L20.871466,13.294667 Z M39.5652174,28.7173783 C39.8053412,28.7173783 40,28.941236 40,29.2173783 C40,29.4628382 39.8461955,29.6669867 39.6433701,29.7093227 L39.5652174,29.7173783 L0.434782609,29.7173783 C0.194658804,29.7173783 0,29.4935207 0,29.2173783 C0,28.9719184 0.153804487,28.76777 0.356629885,28.725434 L0.434782609,28.7173783 L39.5652174,28.7173783 Z" id="Combined-Shape"></path>
      </g>
    </g>
  </g>
</svg>
