<?xml version="1.0" encoding="UTF-8"?>
<svg xmlns="http://www.w3.org/2000/svg" xmlns:xlink="http://www.w3.org/1999/xlink" width="50px" height="43px" viewBox="0 0 50 43" version="1.1">
  <title>Nav Icon - Web3</title>
  <defs>
    <linearGradient x1="-1.2503923e-12%" y1="10.7369614%" x2="100%" y2="89.2630386%" id="linearGradient-1">
      <stop stop-color="#2D84EB" offset="0%"></stop>
      <stop stop-color="#D173DE" offset="100%"></stop>
    </linearGradient>
  </defs>
  <g id="Homepage" stroke="none" stroke-width="1" fill="none" fill-rule="evenodd">
    <g id="Main-Nav---2-Copy" transform="translate(-306.000000, -209.000000)" fill="url(#linearGradient-1)">
      <g id="Nav-Icon---Web3" transform="translate(306.522508, 208.999600)">
        <path d="M6.4858,33.2864 C6.7078,33.1264 7.0208,33.1764 7.1828,33.4024 C11.0348,38.7864 17.2658,42.0004 23.8528,42.0004 C30.3608,42.0004 36.5488,38.8444 40.4048,33.5574 C40.5688,33.3344 40.8828,33.2854 41.1038,33.4484 C41.3268,33.6104 41.3758,33.9234 41.2138,34.1464 C37.1688,39.6904 30.6778,43.0004 23.8528,43.0004 C16.9438,43.0004 10.4088,39.6294 6.3708,33.9834 C6.2098,33.7594 6.2608,33.4464 6.4858,33.2864 Z M36.5087,30.8882 C36.7247,31.0602 36.7617,31.3752 36.5897,31.5912 C36.1357,32.1622 35.6397,32.7082 35.1157,33.2122 C32.0657,36.1452 28.0667,37.7612 23.8527,37.7612 C19.8167,37.7612 15.9377,36.2562 12.9307,33.5232 C12.7257,33.3372 12.7117,33.0212 12.8967,32.8172 C13.0837,32.6122 13.3997,32.5982 13.6027,32.7832 C16.4267,35.3482 20.0657,36.7612 23.8527,36.7612 C27.8067,36.7612 31.5597,35.2442 34.4227,32.4912 C34.9147,32.0182 35.3807,31.5062 35.8057,30.9692 C35.9787,30.7522 36.2947,30.7182 36.5087,30.8882 Z M40.367,10.7253 L48.288,15.6173 L48.316,15.6473 C48.362,15.6813 48.399,15.7213 48.432,15.7683 C48.444,15.7863 48.458,15.8013 48.467,15.8213 C48.501,15.8883 48.525,15.9623 48.525,16.0433 L48.525,26.1383 C48.525,26.3113 48.435,26.4723 48.288,26.5633 L40.367,31.4563 C40.363,31.4583 40.358,31.4573 40.354,31.4593 C40.278,31.5043 40.192,31.5303 40.104,31.5303 C40.02,31.5303 39.936,31.5093 39.861,31.4673 C39.857,31.4653 39.856,31.4613 39.852,31.4593 C39.849,31.4573 39.845,31.4583 39.841,31.4563 L32.183,26.7253 L24.525,31.4563 C24.521,31.4583 24.517,31.4573 24.513,31.4593 C24.436,31.5043 24.351,31.5303 24.262,31.5303 C24.178,31.5303 24.094,31.5093 24.019,31.4673 L24.01,31.4593 L16.341,26.7253 L8.683,31.4563 C8.679,31.4583 8.675,31.4573 8.671,31.4593 C8.594,31.5043 8.509,31.5303 8.42,31.5303 C8.336,31.5303 8.252,31.5093 8.177,31.4673 L8.168,31.4593 L0.237,26.5633 C0.089,26.4723 0,26.3113 0,26.1383 L0,16.0433 C0,15.9623 0.023,15.8883 0.057,15.8213 C0.067,15.8013 0.081,15.7863 0.093,15.7683 C0.125,15.7213 0.163,15.6813 0.208,15.6473 L0.237,15.6173 L8.158,10.7253 C8.318,10.6253 8.523,10.6253 8.683,10.7253 L16.341,15.4553 L24,10.7253 C24.16,10.6253 24.365,10.6253 24.525,10.7253 L32.183,15.4553 L39.841,10.7253 C40.001,10.6253 40.207,10.6253 40.367,10.7253 Z M47.525,16.9393 L40.604,21.2143 L40.604,30.1343 L47.525,25.8593 L47.525,16.9393 Z M32.683,16.9393 L32.683,25.8593 L39.604,30.1343 L39.604,21.2143 L32.683,16.9393 Z M31.683,16.9393 L24.762,21.2143 L24.762,30.1343 L31.683,25.8593 L31.683,16.9393 Z M16.841,16.9393 L16.841,25.8593 L23.762,30.1343 L23.762,21.2143 L16.841,16.9393 Z M15.841,16.9393 L8.92,21.2143 L8.92,30.1343 L15.841,25.8593 L15.841,16.9393 Z M1,16.9393 L1,25.8593 L7.92,30.1343 L7.92,21.2143 L1,16.9393 Z M8.42,11.7383 L1.451,16.0433 L8.42,20.3473 L15.39,16.0433 L8.42,11.7383 Z M24.262,11.7383 L17.292,16.0433 L24.262,20.3473 L31.232,16.0433 L24.262,11.7383 Z M40.104,11.7383 L33.134,16.0433 L40.104,20.3473 L47.074,16.0433 L40.104,11.7383 Z M23.8529,5.2397 C27.7869,5.2397 31.5889,6.6767 34.5619,9.2857 C34.7689,9.4677 34.7899,9.7837 34.6079,9.9907 C34.5089,10.1037 34.3709,10.1607 34.2319,10.1607 C34.1149,10.1607 33.9969,10.1207 33.9019,10.0367 C31.1119,7.5887 27.5439,6.2397 23.8529,6.2397 C20.3069,6.2397 16.8519,7.4847 14.1239,9.7447 C13.9099,9.9207 13.5939,9.8907 13.4199,9.6787 C13.2429,9.4657 13.2729,9.1507 13.4849,8.9747 C16.3929,6.5667 20.0749,5.2397 23.8529,5.2397 Z M23.8529,0 C29.9029,0 35.7139,2.592 39.7969,7.112 C39.9809,7.317 39.9649,7.633 39.7599,7.818 C39.6649,7.904 39.5449,7.947 39.4249,7.947 C39.2889,7.947 39.1529,7.891 39.0539,7.782 C35.1619,3.472 29.6209,1 23.8529,1 C18.0849,1 12.5439,3.472 8.6509,7.782 C8.4659,7.987 8.1499,8.003 7.9449,7.818 C7.7399,7.633 7.7239,7.317 7.9089,7.112 C11.9909,2.592 17.8019,0 23.8529,0 Z" id="Combined-Shape"></path>
      </g>
    </g>
  </g>
</svg>
