<?xml version="1.0" encoding="UTF-8"?>
<svg xmlns="http://www.w3.org/2000/svg" xmlns:xlink="http://www.w3.org/1999/xlink" width="56px" height="36px" viewBox="0 0 56 36" version="1.1">
  <title>Nav Icon - Partner</title>
  <defs>
    <linearGradient x1="-1.2503923e-12%" y1="29.0098551%" x2="100%" y2="70.9901449%" id="linearGradient-1">
      <stop stop-color="#2D84EB" offset="0%"></stop>
      <stop stop-color="#D173DE" offset="100%"></stop>
    </linearGradient>
  </defs>
  <g id="Homepage" stroke="none" stroke-width="1" fill="none" fill-rule="evenodd">
    <g id="Main-Nav---2-Copy" transform="translate(-687.000000, -285.000000)" fill="url(#linearGradient-1)">
      <g id="Nav-Icon---Partner" transform="translate(687.592892, 285.553510)">
        <path d="M48.606,15.822 L40.579,7.796 L38.623,5.839 L43.261,1.201 L53.244,11.184 L48.606,15.822 Z M37.916,26.722 C37.64,26.722 37.416,26.946 37.416,27.222 C37.416,29.892 35.243,32.065 32.572,32.065 C32.519,32.065 32.462,32.074 32.411,32.092 C32.338,32.116 32.271,32.157 32.216,32.212 C30.902,33.526 29.083,34.28 27.226,34.28 C25.341,34.28 23.568,33.545 22.234,32.212 L6.552,16.53 L16.89,6.192 C18.203,4.878 20.022,4.124 21.88,4.124 C23.598,4.124 25.222,4.734 26.506,5.852 L23.956,8.403 L18.855,13.503 C18.821,13.537 18.802,13.577 18.78,13.616 C18.77,13.634 18.754,13.648 18.746,13.667 C18.729,13.708 18.726,13.752 18.72,13.796 C18.718,13.817 18.708,13.836 18.708,13.858 C18.708,13.99 18.761,14.118 18.855,14.211 C19.538,14.895 20.318,15.421 21.148,15.807 C24.13,17.195 27.792,16.67 30.251,14.211 L32.57,11.892 L42.757,22.078 C42.649,24.655 40.52,26.72 37.916,26.722 L37.916,26.722 Z M11.19,1.201 L15.828,5.839 L5.845,15.822 L1.207,11.184 L11.19,1.201 Z M37.562,6.192 L39.686,8.316 L47.899,16.53 L43.261,21.168 L32.924,10.831 C32.83,10.737 32.703,10.684 32.57,10.684 C32.438,10.684 32.311,10.737 32.217,10.831 L29.544,13.504 C27.075,15.973 23.217,16.226 20.463,14.266 C20.279,14.135 20.101,13.995 19.928,13.844 L27.58,6.192 C28.894,4.878 30.712,4.124 32.57,4.124 C34.455,4.124 36.228,4.859 37.562,6.192 L37.562,6.192 Z M54.451,11.184 C54.451,11.052 54.398,10.925 54.305,10.831 L43.614,0.141 C43.427,-0.047 43.095,-0.047 42.907,0.141 L37.898,5.149 C36.425,3.845 34.555,3.124 32.57,3.124 C30.578,3.124 28.701,3.851 27.226,5.165 C25.749,3.851 23.873,3.124 21.88,3.124 C19.895,3.124 18.025,3.845 16.552,5.149 L11.544,0.141 C11.356,-0.047 11.024,-0.047 10.837,0.141 L0.147,10.831 C-0.049,11.026 -0.049,11.343 0.147,11.538 L5.491,16.883 L21.527,32.92 C23.05,34.441 25.073,35.28 27.226,35.28 C29.279,35.28 31.29,34.473 32.777,33.061 C35.744,32.958 38.157,30.632 38.397,27.7 C41.319,27.461 43.622,25.059 43.739,22.104 L48.96,16.883 C48.961,16.882 48.961,16.881 48.962,16.88 L54.305,11.538 C54.398,11.444 54.451,11.317 54.451,11.184 L54.451,11.184 Z" id="Fill-33"></path>
      </g>
    </g>
  </g>
</svg>
