<?xml version="1.0" encoding="UTF-8"?>
<svg xmlns="http://www.w3.org/2000/svg" xmlns:xlink="http://www.w3.org/1999/xlink" width="44px" height="44px" viewBox="0 0 44 44" version="1.1">
  <title>Nav Icon - Journey-hvr</title>
  <defs>
    <linearGradient x1="100%" y1="100%" x2="-2.38383997e-12%" y2="-3.2187257e-14%" id="linearGradient-1">
      <stop stop-color="#2D84EB" offset="0%"></stop>
      <stop stop-color="#D173DE" offset="100%"></stop>
    </linearGradient>
  </defs>
  <g id="Homepage" stroke="none" stroke-width="1" fill="none" fill-rule="evenodd">
    <g id="Main-Nav---Prod-5" transform="translate(-754.000000, -378.000000)" fill="url(#linearGradient-1)">
      <g id="Nav-Icon---Journey" transform="translate(754.364080, 378.082464)">
        <path d="M9.258,12.2423 C14.362,12.2423 18.515,16.3953 18.515,21.5003 C18.515,26.6043 14.362,30.7573 9.258,30.7573 C4.154,30.7573 0,26.6043 0,21.5003 C0,16.3953 4.154,12.2423 9.258,12.2423 Z M9.258,13.2423 C4.704,13.2423 1,16.9473 1,21.5003 C1,26.0533 4.704,29.7573 9.258,29.7573 C13.811,29.7573 17.515,26.0533 17.515,21.5003 C17.515,16.9473 13.811,13.2423 9.258,13.2423 Z M9.258,17.46 C9.534,17.46 9.758,17.684 9.758,17.96 L9.758,21.47 C9.758,21.476 9.755,21.481 9.755,21.487 C9.754,21.522 9.742,21.554 9.735,21.588 C9.727,21.618 9.723,21.649 9.711,21.677 C9.7,21.7 9.681,21.72 9.667,21.742 C9.645,21.775 9.625,21.807 9.596,21.834 C9.592,21.838 9.591,21.843 9.587,21.846 L7.904,23.322 C7.809,23.405 7.692,23.446 7.574,23.446 C7.436,23.446 7.297,23.388 7.198,23.275 C7.017,23.068 7.037,22.752 7.245,22.57 L8.758,21.244 L8.758,17.96 C8.758,17.684 8.982,17.46 9.258,17.46 Z M25.8569,23.614 C24.6919,23.614 23.7429,22.666 23.7429,21.5 C23.7429,20.334 24.6919,19.386 25.8569,19.386 C27.0229,19.386 27.9709,20.334 27.9709,21.5 C27.9709,22.666 27.0229,23.614 25.8569,23.614 Z M25.8569,42 C24.6919,42 23.7429,41.052 23.7429,39.886 C23.7429,38.72 24.6919,37.772 25.8569,37.772 C27.0229,37.772 27.9709,38.72 27.9709,39.886 C27.9709,41.052 27.0229,42 25.8569,42 Z M25.8569,1 C27.0229,1 27.9709,1.948 27.9709,3.114 C27.9709,4.28 27.0229,5.228 25.8569,5.228 C24.6919,5.228 23.7429,4.28 23.7429,3.114 C23.7429,1.948 24.6919,1 25.8569,1 Z M25.8569,0 C24.1399,0 22.7429,1.397 22.7429,3.114 C22.7429,4.66 23.8779,5.937 25.3569,6.178 L25.3569,18.437 C23.8779,18.678 22.7429,19.954 22.7429,21.5 C22.7429,23.046 23.8779,24.322 25.3569,24.563 L25.3569,36.822 C23.8779,37.063 22.7429,38.34 22.7429,39.886 C22.7429,41.603 24.1399,43 25.8569,43 C27.5739,43 28.9709,41.603 28.9709,39.886 C28.9709,38.34 27.8349,37.063 26.3569,36.822 L26.3569,24.563 C27.8349,24.322 28.9709,23.046 28.9709,21.5 C28.9709,19.954 27.8349,18.678 26.3569,18.437 L26.3569,6.178 C27.8349,5.937 28.9709,4.66 28.9709,3.114 C28.9709,1.397 27.5739,0 25.8569,0 Z M42.5004,1 C42.7764,1 43.0004,0.776 43.0004,0.5 C43.0004,0.224 42.7764,0 42.5004,0 L33.6994,0 C33.4234,0 33.1994,0.224 33.1994,0.5 C33.1994,0.776 33.4234,1 33.6994,1 L42.5004,1 Z M39.0144,6.2283 C39.2914,6.2283 39.5144,6.0043 39.5144,5.7283 C39.5144,5.4523 39.2914,5.2283 39.0144,5.2283 L33.6994,5.2283 C33.4234,5.2283 33.1994,5.4523 33.1994,5.7283 C33.1994,6.0043 33.4234,6.2283 33.6994,6.2283 L39.0144,6.2283 Z M33.6992,23.614 C33.4232,23.614 33.1992,23.838 33.1992,24.114 C33.1992,24.39 33.4232,24.614 33.6992,24.614 L42.5002,24.614 C42.7762,24.614 43.0002,24.39 43.0002,24.114 C43.0002,23.838 42.7762,23.614 42.5002,23.614 L33.6992,23.614 Z M33.6992,18.386 C33.4232,18.386 33.1992,18.61 33.1992,18.886 C33.1992,19.162 33.4232,19.386 33.6992,19.386 L42.5002,19.386 C42.7762,19.386 43.0002,19.162 43.0002,18.886 C43.0002,18.61 42.7762,18.386 42.5002,18.386 L33.6992,18.386 Z M33.6992,42 C33.4232,42 33.1992,42.224 33.1992,42.5 C33.1992,42.776 33.4232,43 33.6992,43 L42.5002,43 C42.7762,43 43.0002,42.776 43.0002,42.5 C43.0002,42.224 42.7762,42 42.5002,42 L33.6992,42 Z M39.0144,37.7717 C39.2914,37.7717 39.5144,37.5477 39.5144,37.2717 C39.5144,36.9957 39.2914,36.7717 39.0144,36.7717 L33.6994,36.7717 C33.4234,36.7717 33.1994,36.9957 33.1994,37.2717 C33.1994,37.5477 33.4234,37.7717 33.6994,37.7717 L39.0144,37.7717 Z" id="Combined-Shape"></path>
      </g>
    </g>
  </g>
</svg>
