<?xml version="1.0" encoding="UTF-8"?>
<svg xmlns="http://www.w3.org/2000/svg" xmlns:xlink="http://www.w3.org/1999/xlink" width="42px" height="41px" viewBox="0 0 42 41" version="1.1">
  <title>Nav Icon - Stablecoin Studio - Blue-hvr</title>
  <defs>
    <linearGradient x1="-1.2503923e-12%" y1="1.74704383%" x2="100%" y2="98.2529562%" id="linearGradient-1">
      <stop stop-color="#2D84EB" offset="0%"></stop>
      <stop stop-color="#D173DE" offset="100%"></stop>
    </linearGradient>
    <linearGradient x1="-1.2503923e-12%" y1="1.97627841%" x2="100%" y2="98.0237216%" id="linearGradient-2">
      <stop stop-color="#2D84EB" offset="0%"></stop>
      <stop stop-color="#D173DE" offset="100%"></stop>
    </linearGradient>
  </defs>
  <g id="Homepage" stroke="none" stroke-width="1" fill="none" fill-rule="evenodd" stroke-linecap="round" stroke-linejoin="round">
    <g id="Nav-Icon---Stablecoin-Studio---Blue" transform="translate(1.000093, 0.500000)">
      <path d="M20.2068354,12.7587173 L29.1953586,12.7587173 C32.275865,12.7587173 33.9079325,15.1955105 33.9079325,17.4024304 C33.9079325,19.6093502 32.5975527,21.7242869 30.0918987,21.7242869 C27.5860759,21.7242869 26.5745992,20.0000675 26.5745992,18.5058903 C26.5745992,17.0115443 27.8275949,16.1840338 28.9425316,16.1840338 C29.9540084,16.1840338 30.6206751,16.873654 30.6206751,17.9771139 C30.6206751,19.0805738 29.5631224,19.2184641 29.4252321,19.2184641 M19.7930464,12.7972215 L20.2068861,12.7972215 M10.5746329,19.218481 C10.4367426,19.218481 9.37918987,19.0805907 9.37918987,17.9771308 C9.37918987,16.8736709 10.0458565,16.1840506 11.0573333,16.1840506 C12.1724388,16.1840506 13.4252658,17.0115612 13.4252658,18.5059072 C13.4252658,20.0000844 12.413789,21.7243038 9.90796624,21.7243038 C7.40214346,21.7243038 6.09193249,19.6093671 6.09193249,17.4024473 C6.09193249,15.1955274 7.724,12.7587342 10.8045063,12.7587342 L19.7930295,12.7587342 M24.2757975,16.4523945 L15.7240675,16.4523945 M17.2338291,19.5403038 L17.2338291,39.8034262 M20.0384367,19.5403038 L20.0384367,40.0000506 M22.8430274,19.5403038 L22.8430274,39.8034262 M25.6476181,39.201519 L25.6476181,22.6668354 M14.4292384,22.6667679 L14.4292384,39.2014515" id="Combined-Shape" stroke="url(#linearGradient-1)"></path>
      <path d="M25.6091139,39.201519 C33.9242194,36.7765401 40,29.0983966 40,20 C40,8.95443038 31.0455696,0 20,0 C8.9542616,0 0,8.95443038 0,20 C0,29.0983966 6.07561181,36.7765401 14.3907173,39.201519" id="Stroke-35" stroke="url(#linearGradient-2)"></path>
    </g>
  </g>
</svg>
