<?xml version="1.0" encoding="UTF-8"?>
<svg xmlns="http://www.w3.org/2000/svg" xmlns:xlink="http://www.w3.org/1999/xlink" width="44px" height="44px" viewBox="0 0 44 44" version="1.1">
  <title>Nav Icon - Sustainability-hvr</title>
  <defs>
    <linearGradient x1="100%" y1="99.6068288%" x2="-2.38383997e-12%" y2="0.393171207%" id="linearGradient-1">
      <stop stop-color="#2D84EB" offset="0%"></stop>
      <stop stop-color="#D173DE" offset="100%"></stop>
    </linearGradient>
  </defs>
  <g id="Homepage" stroke="none" stroke-width="1" fill="none" fill-rule="evenodd">
    <g id="Main-Nav---Prod-3" transform="translate(-1054.000000, -365.000000)" fill="url(#linearGradient-1)">
      <g id="Nav-Icon---Sustainability" transform="translate(1054.516302, 365.587091)">
        <path d="M7.256,38.2938174 L7.966,29.5788174 C9.803,28.9368174 12.434,28.2228174 15.088,28.2228174 C17.573,28.2228174 20.212,28.7318174 22.766,29.2238174 C24.994,29.6538174 27.098,30.0588174 28.839,30.0588174 C29.46,30.0588174 29.934,30.3168174 30.174,30.7838174 C30.493,31.4018174 30.363,32.2458174 29.835,32.9868174 C29.269,33.7778174 27.427,35.5418174 22.558,34.8358174 C22.309,34.7988174 22.041,34.9778174 21.995,35.2448174 C21.948,35.5108174 22.121,35.7658174 22.386,35.8208174 C22.479,35.8398174 23.644,36.0708174 25.794,36.0708174 C27.952,36.0708174 31.103,35.8378174 35.155,34.9258174 C36.576,34.6058174 38.023,34.2218174 39.445,33.7878174 C40.393,33.5208174 41.104,33.5418174 41.504,33.8458174 C41.896,34.1438174 41.953,34.6758174 41.951,34.9818174 C41.951,35.0158174 41.966,35.1218174 41.973,35.1548174 C42.224,36.3758174 40.223,37.8718174 36.483,39.2598174 C30.409,41.5138174 23.52,44.0548174 7.256,38.2938174 Z M1.687,41.7418174 C1.308,41.7418174 1,41.4328174 1,41.0538174 L1,27.1658174 C1,26.7858174 1.308,26.4778174 1.687,26.4778174 L6.47,26.4778174 C6.665,26.4778174 6.844,26.5558174 6.976,26.6988174 C7.108,26.8418174 7.171,27.0278174 7.156,27.2208174 L6.997,29.1728174 L6.996,29.1858174 L6.228,38.6018174 L6.024,41.1098174 C5.994,41.4698174 5.699,41.7418174 5.337,41.7418174 L1.687,41.7418174 Z M34.577,12.5668174 C35.381,16.1108174 33.892,20.1718174 33.08,22.0128174 C31.524,18.2578174 29.274,14.5588174 26.364,11.0028174 C26.189,10.7878174 25.874,10.7578174 25.661,10.9318174 C25.447,11.1068174 25.416,11.4218174 25.59,11.6358174 C28.522,15.2188174 30.766,18.9438174 32.287,22.7188174 C30.451,22.5768174 25.595,21.8658174 22.077,18.2778174 C18.171,14.2958174 18.883,3.46181741 19.098,1.04081741 C27.644,1.87081741 33.436,7.54481741 34.577,12.5668174 Z M42.11,33.0498174 C41.438,32.5398174 40.45,32.4648174 39.164,32.8288174 C37.962,33.1948174 36.754,33.5138174 35.558,33.7978174 C35.589,31.3558174 35.231,27.7308174 33.586,23.2938174 C34.127,22.2328174 36.609,17.0028174 35.551,12.3448174 C34.31,6.87881741 27.977,0.694817411 18.685,0.00181741123 C18.401,-0.0211825888 18.181,0.176817411 18.151,0.442817411 C18.087,1.00081741 16.642,14.1658174 21.362,18.9778174 C25.516,23.2128174 31.214,23.6948174 32.686,23.7478174 C34.3,28.1478174 34.611,31.7008174 34.553,34.0308174 C32.532,34.4688174 30.736,34.7388174 29.2,34.8878174 C29.947,34.4258174 30.399,33.9158174 30.648,33.5668174 C31.395,32.5198174 31.554,31.2788174 31.064,30.3258174 C30.649,29.5208174 29.838,29.0588174 28.839,29.0588174 C27.194,29.0588174 25.135,28.6618174 22.956,28.2418174 C20.356,27.7408174 17.669,27.2228174 15.088,27.2228174 C12.496,27.2228174 9.939,27.8638174 8.055,28.4898174 L8.152,27.3028174 C8.191,26.8338174 8.03,26.3668174 7.712,26.0218174 C7.393,25.6758174 6.941,25.4778174 6.47,25.4778174 L1.687,25.4778174 C0.756,25.4778174 0,26.2348174 0,27.1658174 L0,41.0538174 C0,41.9848174 0.756,42.7418174 1.687,42.7418174 L5.337,42.7418174 C6.21,42.7418174 6.949,42.0608174 7.02,41.1908174 L7.172,39.3228174 C14.544,41.9108174 20.035,42.8268174 24.394,42.825819 C29.746,42.825819 33.414,41.4658174 36.831,40.1968174 C41.27,38.5498174 43.33,36.7858174 42.951,34.9718174 C42.955,34.1478174 42.656,33.4658174 42.11,33.0498174 Z" id="Fill-1"></path>
      </g>
    </g>
  </g>
</svg>
