<?xml version="1.0" encoding="UTF-8"?>
<svg xmlns="http://www.w3.org/2000/svg" xmlns:xlink="http://www.w3.org/1999/xlink" width="42px" height="38px" viewBox="0 0 42 38" version="1.1">
  <title>Nav Icon - Tutorials-std</title>
  <defs>
    <linearGradient x1="-1.2503923e-12%" y1="7.75455063%" x2="100%" y2="92.2454494%" id="linearGradient-1">
      <stop stop-color="#2D84EB" offset="0%"></stop>
      <stop stop-color="#D173DE" offset="100%"></stop>
    </linearGradient>
  </defs>
  <g id="Homepage" stroke="none" stroke-width="1" fill="none" fill-rule="evenodd">
    <g id="Main-Nav---Prod-2" transform="translate(-1055.000000, -287.000000)" fill="url(#linearGradient-1)" fill-rule="nonzero">
      <g id="Nav-Icon---Tutorials" transform="translate(1055.526793, 287.155255)">
        <path d="M37.4560313,0 C39.4133087,0 41,1.58675261 41,3.54413899 L41,23.1692832 C41,25.12653 39.413278,26.7132519 37.4560313,26.7132519 L3.54396872,26.7132519 C1.58672196,26.7132519 0,25.12653 0,23.1692832 L0,3.54413899 C0,1.58675261 1.5866913,0 3.54396872,0 Z M37.4560313,1 L3.54396872,1 C2.1389847,1 1,2.13902871 1,3.54413899 L1,23.1692832 C1,24.5742452 2.13900671,25.7132519 3.54396872,25.7132519 L37.4560313,25.7132519 C38.8609933,25.7132519 40,24.5742452 40,23.1692832 L40,3.54413899 C40,2.13902871 38.8610153,1 37.4560313,1 Z M16.2207418,9.12120664 C16.2207418,8.37769454 17.025637,7.91308947 17.6695419,8.28481751 L25.0053939,12.5201767 C25.6493256,12.8919202 25.6493256,13.8213998 25.0054095,14.1931343 L17.6695263,18.4285115 C17.025637,18.8002306 16.2207418,18.3356255 16.2207418,17.5921134 Z M17.22,9.179 L17.22,17.533 L24.454,13.356 L17.22,9.179 Z M27.2307006,29.7638059 C29.249211,29.7638059 30.9150892,31.2732284 31.1610547,33.2249433 L37.2308113,33.2252838 L37.2308113,34.2252838 L31.1610786,34.2258405 C30.9150173,36.1774507 29.2491876,37.6867617 27.2307517,37.6867617 C25.2123706,37.6867617 23.5465281,36.1773136 23.3005673,34.2256184 L3.76935897,34.2252838 L3.76935897,33.2252838 L23.3005136,33.2252885 C23.546284,31.273429 25.2122026,29.7638059 27.2307006,29.7638059 Z M27.2307006,30.7638059 C25.6535399,30.7638059 24.3643251,31.9966516 24.2742501,33.5512705 L24.2692227,33.7252838 C24.2692738,35.360903 25.5951776,36.6867617 27.2307517,36.6867617 C28.808055,36.6867617 30.0972957,35.453937 30.1873725,33.8992994 L30.1923999,33.7252838 C30.1923488,32.0896421 28.8664225,30.7638059 27.2307006,30.7638059 Z" id="Combined-Shape"></path>
      </g>
    </g>
  </g>
</svg>
