<?xml version="1.0" encoding="UTF-8"?>
<svg xmlns="http://www.w3.org/2000/svg" xmlns:xlink="http://www.w3.org/1999/xlink" width="44px" height="47px" viewBox="0 0 44 47" version="1.1">
  <title>Nav Icon - Enterprise</title>
  <defs>
    <linearGradient x1="7.38975162%" y1="-2.1297453e-14%" x2="92.6102484%" y2="100%" id="linearGradient-1">
      <stop stop-color="#2D84EB" offset="0%"></stop>
      <stop stop-color="#D173DE" offset="100%"></stop>
    </linearGradient>
  </defs>
  <g id="Homepage" stroke="none" stroke-width="1" fill="none" fill-rule="evenodd">
    <g id="Main-Nav---2-Copy" transform="translate(-309.000000, -287.000000)" fill="url(#linearGradient-1)">
      <g id="Nav-Icon---Enterprise" transform="translate(309.285008, 287.000000)">
        <path d="M34.214,0.104671875 C34.337,0.199671875 34.409,0.345671875 34.409,0.500671875 L34.409,15.0346719 L42.5,15.0346719 C42.776,15.0346719 43,15.2586719 43,15.5346719 L43,46.0796719 C43,46.3556719 42.776,46.5796719 42.5,46.5796719 L0.5,46.5796719 C0.223,46.5796719 0,46.3556719 0,46.0796719 L0,15.5346719 C0,15.2586719 0.223,15.0346719 0.5,15.0346719 L8.59,15.0346719 L8.59,6.94367188 C8.59,6.71567188 8.745,6.51667188 8.964,6.45967188 L33.783,0.0166718753 C33.933,-0.0233281247 34.092,0.00967187532 34.214,0.104671875 Z M42,16.0346719 L34.409,16.0346719 L34.409,45.5796719 L42,45.5796719 L42,16.0346719 Z M33.409,1.14667188 L9.59,7.33067188 L9.59,45.5796719 L33.409,45.5796719 L33.409,1.14667188 Z M8.591,16.0346719 L1,16.0346719 L1,45.5796719 L8.591,45.5796719 L8.591,16.0346719 Z M28.1812,37.5854719 C28.4572,37.5854719 28.6812,37.8094719 28.6812,38.0854719 C28.6812,38.3614719 28.4572,38.5854719 28.1812,38.5854719 L15.0562,38.5854719 C14.7802,38.5854719 14.5562,38.3614719 14.5562,38.0854719 C14.5562,37.8094719 14.7802,37.5854719 15.0562,37.5854719 Z M28.1812,31.3212719 C28.4572,31.3212719 28.6812,31.5452719 28.6812,31.8212719 C28.6812,32.0972719 28.4572,32.3212719 28.1812,32.3212719 L15.0562,32.3212719 C14.7802,32.3212719 14.5562,32.0972719 14.5562,31.8212719 C14.5562,31.5452719 14.7802,31.3212719 15.0562,31.3212719 Z M28.1812,25.0571719 C28.4572,25.0571719 28.6812,25.2811719 28.6812,25.5571719 C28.6812,25.8331719 28.4572,26.0571719 28.1812,26.0571719 L15.0562,26.0571719 C14.7802,26.0571719 14.5562,25.8331719 14.5562,25.5571719 C14.5562,25.2811719 14.7802,25.0571719 15.0562,25.0571719 Z M28.1812,18.7929719 C28.4572,18.7929719 28.6812,19.0169719 28.6812,19.2929719 C28.6812,19.5689719 28.4572,19.7929719 28.1812,19.7929719 L15.0562,19.7929719 C14.7802,19.7929719 14.5562,19.5689719 14.5562,19.2929719 C14.5562,19.0169719 14.7802,18.7929719 15.0562,18.7929719 Z M28.1812,12.5287719 C28.4572,12.5287719 28.6812,12.7527719 28.6812,13.0287719 C28.6812,13.3047719 28.4572,13.5287719 28.1812,13.5287719 L15.0562,13.5287719 C14.7802,13.5287719 14.5562,13.3047719 14.5562,13.0287719 C14.5562,12.7527719 14.7802,12.5287719 15.0562,12.5287719 L28.1812,12.5287719 Z" id="Combined-Shape"></path>
      </g>
    </g>
  </g>
</svg>
