<?xml version="1.0" encoding="UTF-8"?>
<svg xmlns="http://www.w3.org/2000/svg" xmlns:xlink="http://www.w3.org/1999/xlink" width="38px" height="41px" viewBox="0 0 38 41" version="1.1">
  <title>Nav Icon - Integrations-std</title>
  <defs>
    <linearGradient x1="8.06656973%" y1="-2.1297453e-14%" x2="91.9334303%" y2="100%" id="linearGradient-1">
      <stop stop-color="#2D84EB" offset="0%"></stop>
      <stop stop-color="#D173DE" offset="100%"></stop>
    </linearGradient>
  </defs>
  <g id="Homepage" stroke="none" stroke-width="1" fill="none" fill-rule="evenodd">
    <g id="Main-Nav---Prod-2" transform="translate(-706.000000, -207.000000)" fill="url(#linearGradient-1)" fill-rule="nonzero">
      <g id="Nav-Icon---Integrations" transform="translate(706.044726, 207.000000)">
        <path d="M9.16882491,11.707645 C9.34239126,11.8812114 9.36167641,12.1506358 9.22668036,12.3455039 L9.16882491,12.4147518 L2.16165741,19.4219193 C0.66441008,20.9191666 0.614501836,23.3152543 2.01193268,24.8724243 L2.16165741,25.0304471 L15.9695927,38.8383824 C17.4664519,40.3355784 19.862836,40.385485 21.419704,38.9880615 L21.5776933,38.8383376 L35.3859365,25.0304868 C36.8828557,23.5332307 36.932753,21.1370854 35.5356733,19.5799482 L35.3859861,19.4219292 L28.3784262,12.4147617 C28.1831586,12.219505 28.1831497,11.9029225 28.3784064,11.7076549 C28.5519679,11.5340837 28.8213917,11.514791 29.0162636,11.6497816 L29.0855132,11.7076351 L36.0931228,18.7148523 C37.9733219,20.5954746 38.0302976,23.6086903 36.2640091,25.5579955 L36.093078,25.7375589 L22.2848348,39.5454096 C20.4045754,41.4260921 17.3908863,41.4830825 15.4419705,39.716417 L15.2624462,39.5454494 L1.45455063,25.7375538 C-0.426080489,23.8569227 -0.483069311,20.8436491 1.28358417,18.8943729 L1.45455063,18.7148125 L8.46171813,11.707645 C8.65698027,11.5123829 8.97356276,11.5123829 9.16882491,11.707645 Z M18.7735421,0 C21.6811989,0 24.0381334,2.35693454 24.0381334,5.26459132 C24.0381334,8.00354913 21.9467583,10.2538354 19.2737247,10.5057337 L19.273,26.515 L25.6613921,20.1282853 C25.8349632,19.9547236 26.1043881,19.9354458 26.2992526,20.0704471 L26.3684989,20.1283044 C26.5420606,20.3018755 26.5613384,20.5713004 26.4263371,20.7661649 L26.3684798,20.8354112 L18.773454,28.4300253 L11.1788303,20.8354016 C10.9835682,20.6401395 10.9835682,20.323557 11.1788303,20.1282949 C11.3523967,19.9547285 11.6218211,19.9354433 11.8166892,20.0704394 L11.8859371,20.1282949 L18.273,26.515 L18.2734002,10.5057325 C15.6005595,10.2538213 13.5089508,8.00342745 13.5089508,5.26459132 C13.5089508,2.35706372 15.8661486,0 18.7735421,0 Z M18.7735421,1 C16.4184206,1 14.5089508,2.90936121 14.5089508,5.26459132 C14.5089508,7.61982143 16.4184206,9.52918263 18.7735421,9.52918263 C21.1289141,9.52918263 23.0381334,7.61996334 23.0381334,5.26459132 C23.0381334,2.90921929 21.1289141,1 18.7735421,1 Z" id="Combined-Shape"></path>
      </g>
    </g>
  </g>
</svg>
