<?xml version="1.0" encoding="UTF-8"?>
<svg xmlns="http://www.w3.org/2000/svg" xmlns:xlink="http://www.w3.org/1999/xlink" width="47px" height="35px" viewBox="0 0 47 35" version="1.1">
  <title>Nav Icon - Dashboard-std</title>
  <defs>
    <linearGradient x1="-1.2503923e-12%" y1="22.6941597%" x2="100%" y2="77.3058403%" id="linearGradient-1">
      <stop stop-color="#2D84EB" offset="0%"></stop>
      <stop stop-color="#D173DE" offset="100%"></stop>
    </linearGradient>
  </defs>
  <g id="Homepage" stroke="none" stroke-width="1" fill="none" fill-rule="evenodd">
    <g id="Main-Nav---Prod-1" transform="translate(-494.000000, -370.000000)" fill="url(#linearGradient-1)">
      <g id="Nav-Icon---Dashboard" transform="translate(494.667167, 370.503250)">
        <path d="M23,0 C23.784,0 24.576,0.04 25.352,0.119 C25.626,0.147 25.826,0.392 25.798,0.667 C25.771,0.942 25.526,1.141 25.25,1.114 C24.508,1.038 23.751,1 23,1 C10.869,1 1,10.869 1,23 C1,26.568 1.878,30.115 3.539,33.259 C3.668,33.504 3.574,33.806 3.33,33.935 C3.256,33.974 3.176,33.993 3.097,33.993 C2.918,33.993 2.744,33.896 2.654,33.727 C0.918,30.439 0,26.73 0,23 C0,10.318 10.317,0 23,0 Z M37.2135,2.5814 C37.5695,2.2974 38.0485,2.2934 38.4115,2.5724 C38.7715,2.8524 38.8875,3.3194 38.7015,3.7354 L37.7565,5.8384 L28.6975,26.0214 C28.6805,26.0574 28.6605,26.0924 28.6365,26.1234 C27.3155,27.8254 25.3315,28.7174 23.3285,28.7174 C21.8905,28.7174 20.4445,28.2594 19.2235,27.3134 C16.3005,25.0464 15.7675,20.8234 18.0345,17.9014 C18.0585,17.8694 18.0865,17.8414 18.1185,17.8164 L35.3885,4.0374 Z M37.7885,3.3254 L36.0115,4.8194 L18.7885,18.5604 C16.9015,21.0454 17.3655,24.6054 19.8365,26.5234 C22.3065,28.4384 25.8725,28.0034 27.8095,25.5564 L36.8445,5.4294 L37.7885,3.3254 Z M43.7275,13.0245 C43.6075,12.7755 43.3055,12.6725 43.0605,12.7915 C42.8115,12.9115 42.7065,13.2105 42.8275,13.4595 C44.2685,16.4485 44.9995,19.6585 44.9995,23.0005 C44.9995,26.5675 44.1225,30.1155 42.4605,33.2595 C42.3315,33.5035 42.4255,33.8065 42.6695,33.9355 C42.7445,33.9745 42.8245,33.9935 42.9035,33.9935 C43.0815,33.9935 43.2555,33.8965 43.3455,33.7265 C45.0815,30.4395 45.9995,26.7295 45.9995,23.0005 C45.9995,19.5065 45.2355,16.1505 43.7275,13.0245" id="Combined-Shape"></path>
      </g>
    </g>
  </g>
</svg>
