<?xml version="1.0" encoding="UTF-8"?>
<svg xmlns="http://www.w3.org/2000/svg" xmlns:xlink="http://www.w3.org/1999/xlink" width="41px" height="42px" viewBox="0 0 41 42" version="1.1">
  <title>Nav Icon - Consensus Service-hvr</title>
  <defs>
    <linearGradient x1="99.6254107%" y1="100%" x2="0.374589332%" y2="-3.2187257e-14%" id="linearGradient-1">
      <stop stop-color="#2D84EB" offset="0%"></stop>
      <stop stop-color="#D173DE" offset="100%"></stop>
    </linearGradient>
  </defs>
  <g id="Homepage" stroke="none" stroke-width="1" fill="none" fill-rule="evenodd">
    <g id="Main-Nav---Prod-1" transform="translate(-109.000000, -283.000000)" fill="url(#linearGradient-1)">
      <g id="Nav-Icon---Consensus-Service" transform="translate(109.000000, 283.422775)">
        <path d="M20.5,0.00015 C20.776,0.00015 21,0.22415 21,0.50015 L21,10.99115 C25.9,11.24515 29.832,15.17715 30.086,20.07715 L40.5,20.07715 C40.776,20.07715 41,20.30115 41,20.57715 C41,20.85315 40.776,21.07715 40.5,21.07715 L30.086,21.07715 C29.832,25.97815 25.9,29.91015 21,30.16415 L21,40.65415 C21,40.93015 20.776,41.15415 20.5,41.15415 C20.224,41.15415 20,40.93015 20,40.65415 L20,30.16415 C15.1,29.91015 11.167,25.97815 10.913,21.07715 L0.5,21.07715 C0.224,21.07715 1.8189894e-12,20.85315 1.8189894e-12,20.57715 C1.8189894e-12,20.30115 0.224,20.07715 0.5,20.07715 L10.913,20.07715 C11.167,15.17715 15.1,11.24515 20,10.99115 L20,0.50015 C20,0.22415 20.224,0.00015 20.5,0.00015 Z M33.812,27.63345 C34.008,27.43745 34.324,27.43745 34.52,27.63345 L40.853,33.96745 C40.947,34.06045 41,34.18745 41,34.32045 C41,34.45345 40.947,34.58045 40.853,34.67445 L34.52,41.00845 C34.422,41.10545 34.294,41.15445 34.166,41.15445 C34.038,41.15445 33.91,41.10545 33.812,41.00845 L27.479,34.67445 C27.385,34.58045 27.332,34.45345 27.332,34.32045 C27.332,34.18745 27.385,34.06045 27.479,33.96745 Z M6.48,27.63345 C6.676,27.43745 6.992,27.43745 7.188,27.63345 L13.521,33.96745 C13.615,34.06045 13.668,34.18745 13.668,34.32045 C13.668,34.45345 13.615,34.58045 13.521,34.67445 L7.188,41.00845 C7.09,41.10545 6.962,41.15445 6.834,41.15445 C6.706,41.15445 6.578,41.10545 6.48,41.00845 L0.147,34.67445 C0.053,34.58045 0,34.45345 0,34.32045 C0,34.18745 0.053,34.06045 0.147,33.96745 Z M34.166,28.69345 L28.539,34.32045 L34.166,39.94745 L39.793,34.32045 L34.166,28.69345 Z M6.834,28.69345 L1.207,34.32045 L6.834,39.94745 L12.461,34.32045 L6.834,28.69345 Z M20.5,11.96515 C15.751,11.96515 11.888,15.82915 11.888,20.57715 C11.888,25.32615 15.751,29.18915 20.5,29.18915 C25.248,29.18915 29.111,25.32615 29.111,20.57715 C29.111,15.82915 25.248,11.96515 20.5,11.96515 Z M25.3584,16.98065 C25.5534,16.78565 25.8704,16.78565 26.0654,16.98065 C26.2604,17.17565 26.2604,17.49265 26.0654,17.68765 L19.5794,24.17365 C19.4814,24.27165 19.3534,24.32065 19.2254,24.32065 C19.0974,24.32065 18.9694,24.27165 18.8724,24.17365 L14.9334,20.23565 C14.7384,20.04065 14.7384,19.72365 14.9334,19.52865 C15.1294,19.33365 15.4454,19.33365 15.6404,19.52865 L19.2254,23.11365 Z M34.52,0.14625 L40.853,6.48025 C40.947,6.57425 41,6.70125 41,6.83425 C41,6.96625 40.947,7.09325 40.853,7.18725 L34.52,13.52125 C34.422,13.61925 34.294,13.66825 34.166,13.66825 C34.038,13.66825 33.91,13.61925 33.812,13.52125 L27.479,7.18725 C27.385,7.09325 27.332,6.96625 27.332,6.83425 C27.332,6.70125 27.385,6.57425 27.479,6.48025 L33.812,0.14625 C34.008,-0.04875 34.324,-0.04875 34.52,0.14625 Z M6.48,0.14625 C6.676,-0.04875 6.992,-0.04875 7.188,0.14625 L13.521,6.48025 C13.615,6.57425 13.668,6.70125 13.668,6.83425 C13.668,6.96625 13.615,7.09325 13.521,7.18725 L7.188,13.52125 C7.09,13.61925 6.962,13.66825 6.834,13.66825 C6.706,13.66825 6.578,13.61925 6.48,13.52125 L0.147,7.18725 C0.053,7.09325 0,6.96625 0,6.83425 C0,6.70125 0.053,6.57425 0.147,6.48025 Z M34.166,1.20725 L28.539,6.83425 L34.166,12.46125 L39.793,6.83425 L34.166,1.20725 Z M6.834,1.20725 L1.207,6.83425 L6.834,12.46125 L12.461,6.83425 L6.834,1.20725 Z" id="Combined-Shape"></path>
      </g>
    </g>
  </g>
</svg>
