<?xml version="1.0" encoding="UTF-8"?>
<svg xmlns="http://www.w3.org/2000/svg" xmlns:xlink="http://www.w3.org/1999/xlink" width="44px" height="44px" viewBox="0 0 44 44" version="1.1">
  <title>Nav Icon - Decentralized ID-hvr</title>
  <defs>
    <linearGradient x1="98.1186039%" y1="100%" x2="1.88139613%" y2="-3.2187257e-14%" id="linearGradient-1">
      <stop stop-color="#2D84EB" offset="0%"></stop>
      <stop stop-color="#D173DE" offset="100%"></stop>
    </linearGradient>
  </defs>
  <g id="Homepage" stroke="none" stroke-width="1" fill="none" fill-rule="evenodd">
    <g id="Main-Nav---Prod-3" transform="translate(-1054.000000, -285.000000)" fill="url(#linearGradient-1)">
      <g id="Nav-Icon---Decentralized-ID" transform="translate(1054.346869, 284.999805)">
        <path d="M19.7749099,23.8533901 C21.4829099,24.0823901 22.9989099,24.9623901 24.0439099,26.3303901 C25.0889099,27.6993901 25.5389099,29.3933901 25.3099099,31.1003901 C25.2089099,31.8553901 24.1809099,38.6293901 19.2839099,43.8423901 C19.1859099,43.9473901 19.0529099,44.0003901 18.9199099,44.0003901 C18.7969099,44.0003901 18.6739099,43.9553901 18.5769099,43.8653901 C18.3759099,43.6763901 18.3659099,43.3593901 18.5559099,43.1583901 C23.2379099,38.1713901 24.2219099,31.6903901 24.3189099,30.9673901 C24.5129099,29.5253901 24.1329099,28.0943901 23.2489099,26.9373901 C22.3659099,25.7813901 21.0849099,25.0373901 19.6429099,24.8443901 C18.2009099,24.6503901 16.7689099,25.0313901 15.6119099,25.9143901 C14.4559099,26.7973901 13.7129099,28.0783901 13.5199099,29.5213901 C13.5119099,29.5763901 12.7039099,34.4933901 9.40090986,36.7403901 C9.17690986,36.8943901 8.86290986,36.8373901 8.70690986,36.6083901 C8.55190986,36.3793901 8.60990986,36.0683901 8.83890986,35.9133901 C11.7499099,33.9323901 12.5239099,29.4213901 12.5299099,29.3753901 C12.7569099,27.6813901 13.6369099,26.1653901 15.0059099,25.1193901 C16.3759099,24.0743901 18.0729099,23.6263901 19.7749099,23.8533901 Z M20.5654099,17.9580901 C21.3144099,18.0580901 22.0574099,18.2280901 22.7734099,18.4620901 C28.4534099,20.3160901 31.9994099,25.9630901 31.2054099,31.8890901 C31.0884099,32.7660901 30.5814099,35.9150901 28.9824099,39.6250901 C28.4484099,40.8640901 27.8374099,42.0620901 27.1634099,43.1860901 C27.0694099,43.3430901 26.9044099,43.4300901 26.7344099,43.4300901 C26.6464099,43.4300901 26.5574099,43.4070901 26.4774099,43.3580901 C26.2404099,43.2170901 26.1634099,42.9100901 26.3054099,42.6730901 C26.9564099,41.5860901 27.5474099,40.4280901 28.0644099,39.2300901 C29.6124099,35.6360901 30.1014099,32.6010901 30.2144099,31.7570901 C30.9444099,26.3080901 27.6844099,21.1170901 22.4634099,19.4120901 C21.8044099,19.1970901 21.1224099,19.0420901 20.4324099,18.9490901 C17.4524099,18.5490901 14.4804099,19.3280901 12.0704099,21.1430901 C9.71840986,22.9130901 8.15940986,25.4790901 7.67840986,28.3680901 C7.41740986,29.9420901 6.58640986,31.3570901 5.33840986,32.3510901 C5.12440986,32.5230901 4.80940986,32.4880901 4.63640986,32.2720901 C4.46340986,32.0560901 4.50040986,31.7420901 4.71540986,31.5690901 C5.76840986,30.7290901 6.47040986,29.5340901 6.69240986,28.2040901 C7.21540986,25.0610901 8.91240986,22.2700901 11.4684099,20.3450901 C14.0894099,18.3710901 17.3204099,17.5240901 20.5654099,17.9580901 Z M18.9868099,29.7484901 C19.2598099,29.7854901 19.4518099,30.0364901 19.4148099,30.3104901 C19.3738099,30.6164901 18.3468099,37.8484901 12.7478099,41.6574901 C12.6618099,41.7164901 12.5648099,41.7444901 12.4668099,41.7444901 C12.3078099,41.7444901 12.1508099,41.6684901 12.0538099,41.5254901 C11.8988099,41.2974901 11.9568099,40.9864901 12.1858099,40.8314901 C17.4088099,37.2764901 18.4148099,30.2484901 18.4248099,30.1774901 C18.4608099,29.9034901 18.7198099,29.7104901 18.9868099,29.7484901 Z M21.3556099,12.0625901 C22.4626099,12.2115901 23.5616099,12.4615901 24.6196099,12.8075901 C33.0266099,15.5525901 38.2756099,23.9095901 37.1006099,32.6795901 C36.9526099,33.7805901 36.5636099,36.0525901 35.6136099,38.9095901 C35.5426099,39.1195901 35.3486099,39.2525901 35.1386099,39.2525901 C35.0866099,39.2525901 35.0336099,39.2445901 34.9806099,39.2265901 C34.7186099,39.1395901 34.5766099,38.8565901 34.6636099,38.5945901 C35.5886099,35.8145901 35.9666099,33.6125901 36.1106099,32.5465901 C37.2206099,24.2545901 32.2576099,16.3535901 24.3096099,13.7585901 C23.3086099,13.4315901 22.2696099,13.1945901 21.2226099,13.0545901 C16.6786099,12.4455901 12.1596099,13.6315901 8.49260986,16.3915901 C4.91660986,19.0835901 2.54360986,22.9905901 1.81160986,27.3915901 C1.76560986,27.6645901 1.49760986,27.8485901 1.23660986,27.8035901 C0.963609855,27.7575901 0.780609855,27.5005901 0.825609855,27.2275901 C1.59960986,22.5725901 4.10960986,18.4405901 7.89160986,15.5925901 C11.7706099,12.6725901 16.5556099,11.4195901 21.3556099,12.0625901 Z M22.1444099,6.16809005 C23.6094099,6.36409005 25.0624099,6.69509005 26.4654099,7.15309005 C34.5144099,9.78109005 40.6964099,16.5420901 42.5964099,24.7980901 C42.6584099,25.0670901 42.4904099,25.3350901 42.2214099,25.3970901 C42.1834099,25.4060901 42.1464099,25.4100901 42.1094099,25.4100901 C41.8804099,25.4100901 41.6754099,25.2540901 41.6224099,25.0220901 C39.7994099,17.1070901 33.8734099,10.6240901 26.1554099,8.10409005 C24.8104099,7.66509005 23.4164099,7.34709005 22.0114099,7.15909005 C15.9104099,6.34209005 9.83840986,7.93309005 4.91640986,11.6400901 C3.42040986,12.7660901 2.06440986,14.0640901 0.886409855,15.5000901 C0.712409855,15.7140901 0.395409855,15.7440901 0.182409855,15.5690901 C-0.0305901448,15.3940901 -0.0615901448,15.0790901 0.113409855,14.8660901 C1.34140986,13.3690901 2.75540986,12.0140901 4.31440986,10.8410901 C9.44940986,6.97409005 15.7874099,5.31609005 22.1444099,6.16809005 Z M22.9340099,0.271890054 C24.7590099,0.516890054 26.5670099,0.928890054 28.3110099,1.49889005 C34.2230099,3.42889005 39.3240099,7.07189005 43.0640099,12.0338901 C43.2300099,12.2548901 43.1860099,12.5678901 42.9660099,12.7338901 C42.8760099,12.8018901 42.7700099,12.8348901 42.6650099,12.8348901 C42.5140099,12.8348901 42.3640099,12.7658901 42.2660099,12.6358901 C38.6490099,7.83789005 33.7170099,4.31589005 28.0010099,2.44989005 C26.3140099,1.89889005 24.5650099,1.49989005 22.8020099,1.26389005 C15.1380099,0.236890054 7.51800986,2.23589005 1.33800986,6.88789005 C1.11900986,7.05389005 0.805009855,7.01089005 0.638009855,6.78889005 C0.472009855,6.56889005 0.516009855,6.25489005 0.736009855,6.08889005 C7.12800986,1.27689005 15.0100099,-0.789109946 22.9340099,0.271890054 Z" id="Combined-Shape"></path>
      </g>
    </g>
  </g>
</svg>
