<?xml version="1.0" encoding="UTF-8"?>
<svg xmlns="http://www.w3.org/2000/svg" xmlns:xlink="http://www.w3.org/1999/xlink" width="43px" height="44px" viewBox="0 0 43 44" version="1.1">
  <title>Nav Icon - About-std</title>
  <defs>
    <linearGradient x1="0.99901165%" y1="-2.1297453e-14%" x2="99.0009883%" y2="100%" id="linearGradient-1">
      <stop stop-color="#2D84EB" offset="0%"></stop>
      <stop stop-color="#D173DE" offset="100%"></stop>
    </linearGradient>
  </defs>
  <g id="Homepage" stroke="none" stroke-width="1" fill="none" fill-rule="evenodd">
    <g id="Main-Nav---Prod-5" transform="translate(-755.000000, -297.000000)" fill="url(#linearGradient-1)">
      <g id="Nav-Icon---About" transform="translate(755.275833, 297.617172)">
        <path d="M21.035,0.06675 C21.189,-0.02225 21.381,-0.02225 21.535,0.06675 L31.926,6.06675 C32.081,6.15675 32.176,6.32175 32.176,6.50075 L32.176,18.21175 L42.319,24.06675 C42.473,24.15675 42.569,24.32175 42.569,24.50075 L42.569,36.50075 C42.569,36.67875 42.473,36.84375 42.319,36.93375 L31.926,42.93375 C31.849,42.97775 31.762,43.00075 31.676,43.00075 C31.59,43.00075 31.504,42.97775 31.426,42.93375 L21.285,37.07775 L11.142,42.93375 C11.065,42.97775 10.978,43.00075 10.892,43.00075 C10.806,43.00075 10.719,42.97775 10.642,42.93375 L0.25,36.93375 C0.095,36.84375 0,36.67875 0,36.50075 L0,24.50075 C0,24.32175 0.095,24.15675 0.25,24.06675 L10.392,18.21175 L10.392,6.50075 C10.392,6.32175 10.488,6.15675 10.642,6.06675 Z M31.676,19.07775 L21.785,24.78875 L21.785,36.21175 L31.676,41.92275 L41.569,36.21175 L41.569,24.78875 L31.676,19.07775 Z M10.892,19.07775 L1,24.78875 L1,36.21175 L10.892,41.92275 L20.785,36.21175 L20.785,24.78875 L10.892,19.07775 Z M28.1887,34.84165 C30.3887,33.84365 32.9657,33.84265 35.1647,34.84165 C35.4157,34.95565 35.5267,35.25265 35.4127,35.50365 C35.3287,35.68765 35.1467,35.79665 34.9577,35.79665 C34.8887,35.79665 34.8177,35.78265 34.7507,35.75265 C32.8127,34.87165 30.5367,34.87265 28.6027,35.75265 C28.3527,35.86565 28.0557,35.75565 27.9407,35.50365 C27.8267,35.25265 27.9377,34.95565 28.1887,34.84165 Z M7.4046,34.84195 C9.6006,33.84295 12.1846,33.84295 14.3796,34.84195 C14.6306,34.95595 14.7416,35.25295 14.6276,35.50395 C14.5436,35.68795 14.3616,35.79695 14.1726,35.79695 C14.1036,35.79695 14.0326,35.78295 13.9656,35.75195 C12.0316,34.87295 9.7526,34.87295 7.8186,35.75195 C7.5676,35.86495 7.2716,35.75595 7.1566,35.50395 C7.0426,35.25295 7.1536,34.95595 7.4046,34.84195 Z M31.6765,25.20405 C33.8585,25.20405 35.6325,26.97905 35.6325,29.16005 C35.6325,31.34105 33.8585,33.11605 31.6765,33.11605 C29.4945,33.11605 27.7205,31.34105 27.7205,29.16005 C27.7205,26.97905 29.4945,25.20405 31.6765,25.20405 Z M10.8923,25.20405 C13.0743,25.20405 14.8483,26.97905 14.8483,29.16005 C14.8483,31.34105 13.0743,33.11605 10.8923,33.11605 C8.7103,33.11605 6.9363,31.34105 6.9363,29.16005 C6.9363,26.97905 8.7103,25.20405 10.8923,25.20405 Z M31.6765,26.20405 C30.0465,26.20405 28.7205,27.53005 28.7205,29.16005 C28.7205,30.79005 30.0465,32.11605 31.6765,32.11605 C33.3065,32.11605 34.6325,30.79005 34.6325,29.16005 C34.6325,27.53005 33.3065,26.20405 31.6765,26.20405 Z M10.8923,26.20405 C9.2623,26.20405 7.9363,27.53005 7.9363,29.16005 C7.9363,30.79005 9.2623,32.11605 10.8923,32.11605 C12.5223,32.11605 13.8483,30.79005 13.8483,29.16005 C13.8483,27.53005 12.5223,26.20405 10.8923,26.20405 Z M21.285,1.07775 L11.392,6.78875 L11.392,18.21175 L21.285,23.92275 L31.176,18.21175 L31.176,6.78875 L21.285,1.07775 Z M17.7972,16.84195 C19.9932,15.84295 22.5772,15.84295 24.7722,16.84195 C25.0232,16.95595 25.1342,17.25295 25.0202,17.50395 C24.9362,17.68795 24.7542,17.79695 24.5652,17.79695 C24.4962,17.79695 24.4252,17.78295 24.3582,17.75195 C22.4242,16.87295 20.1452,16.87295 18.2112,17.75195 C17.9592,17.86595 17.6642,17.75595 17.5492,17.50395 C17.4352,17.25295 17.5462,16.95595 17.7972,16.84195 Z M21.2849,7.20395 C23.4669,7.20395 25.2409,8.97895 25.2409,11.15995 C25.2409,13.34095 23.4669,15.11595 21.2849,15.11595 C19.1029,15.11595 17.3279,13.34095 17.3279,11.15995 C17.3279,8.97895 19.1029,7.20395 21.2849,7.20395 Z M21.2849,8.20395 C19.6539,8.20395 18.3279,9.52995 18.3279,11.15995 C18.3279,12.78995 19.6539,14.11595 21.2849,14.11595 C22.9149,14.11595 24.2409,12.78995 24.2409,11.15995 C24.2409,9.52995 22.9149,8.20395 21.2849,8.20395 Z" id="Combined-Shape"></path>
      </g>
    </g>
  </g>
</svg>
