<?xml version="1.0" encoding="UTF-8"?>
<svg xmlns="http://www.w3.org/2000/svg" xmlns:xlink="http://www.w3.org/1999/xlink" width="47px" height="47px" viewBox="0 0 47 47" version="1.1">
  <title>Nav Icon - Explorers-std</title>
  <defs>
    <linearGradient x1="0.505561708%" y1="-2.1297453e-14%" x2="99.4944383%" y2="100%" id="linearGradient-1">
      <stop stop-color="#2D84EB" offset="0%"></stop>
      <stop stop-color="#D173DE" offset="100%"></stop>
    </linearGradient>
  </defs>
  <g id="Homepage" stroke="none" stroke-width="1" fill="none" fill-rule="evenodd">
    <g id="Main-Nav---Prod-1" transform="translate(-495.000000, -286.000000)" fill="url(#linearGradient-1)">
      <g id="Nav-Icon---Explorers" transform="translate(495.554835, 286.499925)">
        <path d="M39.609,33.68215 C43.005,33.68215 45.767,36.44515 45.767,39.84115 C45.767,43.23715 43.005,46.00015 39.609,46.00015 L6.159,46.00015 C2.762,46.00015 0,43.23715 0,39.84115 C0,36.44515 2.762,33.68215 6.159,33.68215 C8.216,33.68215 10.143,34.72415 11.281,36.42815 C11.833,36.26515 12.402,36.19215 12.976,36.20915 C15.868,36.29515 18.221,38.81415 18.221,41.82315 C18.221,43.57515 19.646,45.00015 21.398,45.00015 L24.37,45.00015 C26.122,45.00015 27.546,43.57515 27.546,41.82315 C27.546,38.81415 29.899,36.29515 32.792,36.20915 C33.365,36.19015 33.936,36.26515 34.487,36.42815 C35.625,34.72415 37.551,33.68215 39.609,33.68215 Z M39.609,34.68215 C37.77,34.68215 36.056,35.67715 35.136,37.27715 C35.013,37.49115 34.755,37.58315 34.525,37.49615 C33.977,37.28715 33.411,37.19115 32.821,37.20815 C30.464,37.27915 28.546,39.34915 28.546,41.82315 C28.546,43.09415 27.976,44.23315 27.079,45.00015 L39.609,45.00015 C42.454,45.00015 44.767,42.68615 44.767,39.84115 C44.767,36.99615 42.454,34.68215 39.609,34.68215 Z M6.159,34.68215 C3.314,34.68215 1,36.99615 1,39.84115 C1,42.68615 3.314,45.00015 6.159,45.00015 L18.689,45.00015 C17.792,44.23315 17.221,43.09415 17.221,41.82315 C17.221,39.34915 15.303,37.27915 12.946,37.20815 C12.366,37.19315 11.791,37.28715 11.243,37.49615 C11.012,37.58315 10.755,37.49115 10.631,37.27715 C9.712,35.67715 7.998,34.68215 6.159,34.68215 Z M23.2424,0.08175 C32.8314,6.37075 33.7144,12.84675 31.9744,20.59675 C33.3124,21.40275 34.1354,22.82275 34.1354,24.40375 L34.1354,31.33675 C34.1354,31.61275 33.9114,31.83675 33.6354,31.83675 L25.6094,31.83675 C26.4744,32.58375 27.0344,33.67375 27.0344,34.90275 C27.0344,35.47275 26.9124,36.03275 26.6714,36.56875 C26.6584,36.59575 26.6444,36.62175 26.6274,36.64675 L23.3804,41.35775 C23.2864,41.49275 23.1324,41.57375 22.9684,41.57375 C22.8044,41.57375 22.6504,41.49275 22.5564,41.35775 L19.3104,36.64675 C19.0254,36.03275 18.9034,35.47275 18.9034,34.90275 C18.9034,33.67375 19.4634,32.58375 20.3284,31.83675 L12.3014,31.83675 C12.0254,31.83675 11.8014,31.61275 11.8014,31.33675 L11.8014,24.40375 C11.8014,22.82275 12.6244,21.40275 13.9624,20.59675 C12.2224,12.84775 13.1054,6.37075 22.6944,0.08175 C22.8604,-0.02725 23.0764,-0.02725 23.2424,0.08175 Z M22.9684,31.83675 C21.2784,31.83675 19.9034,33.21275 19.9034,34.90275 C19.9034,35.33075 19.9954,35.75175 20.1784,36.15775 L22.9674,40.19375 L25.7774,36.11775 C25.9474,35.72475 26.0344,35.31575 26.0344,34.90275 C26.0344,33.21275 24.6584,31.83675 22.9684,31.83675 Z M14.2134,21.62675 C13.3324,22.27175 12.8014,23.28675 12.8014,24.40375 L12.8014,30.83675 L16.7694,30.83675 C16.3744,29.32975 15.9504,27.85175 15.5334,26.42375 C15.0484,24.76075 14.5994,23.18375 14.2134,21.62675 Z M22.9684,1.09975 C13.9434,7.12775 13.2284,13.09175 15.0154,20.73275 C15.4224,22.47675 15.9434,24.25775 16.4934,26.14375 C16.9364,27.65875 17.3894,29.22675 17.8044,30.83675 L28.1324,30.83675 C28.5474,29.22975 28.9994,27.66475 29.4414,26.15275 C29.9914,24.26475 30.5134,22.48075 30.9214,20.73275 C32.7084,13.09075 31.9934,7.12675 22.9684,1.09975 Z M31.7234,21.62675 C31.3374,23.18675 30.8864,24.76675 30.4014,26.43375 C29.9844,27.85875 29.5614,29.33275 29.1674,30.83675 L33.1354,30.83675 L33.1354,24.40375 C33.1354,23.28575 32.6044,22.27175 31.7234,21.62675 Z M22.9684,10.56535 C25.2104,10.56535 27.0344,12.38935 27.0344,14.63135 C27.0344,16.87235 25.2104,18.69635 22.9684,18.69635 C20.7274,18.69635 18.9034,16.87235 18.9034,14.63135 C18.9034,12.38935 20.7274,10.56535 22.9684,10.56535 Z M22.9684,11.56535 C21.2784,11.56535 19.9034,12.94035 19.9034,14.63135 C19.9034,16.32135 21.2784,17.69635 22.9684,17.69635 C24.6584,17.69635 26.0344,16.32135 26.0344,14.63135 C26.0344,12.94035 24.6584,11.56535 22.9684,11.56535 Z" id="Combined-Shape"></path>
      </g>
    </g>
  </g>
</svg>
