<?xml version="1.0" encoding="UTF-8"?>
<svg xmlns="http://www.w3.org/2000/svg" xmlns:xlink="http://www.w3.org/1999/xlink" width="46px" height="30px" viewBox="0 0 46 30" version="1.1">
  <title>Nav Icon - Treasury Mgmt-std</title>
  <defs>
    <linearGradient x1="-1.2503923e-12%" y1="28.9685283%" x2="100%" y2="71.0314717%" id="linearGradient-1">
      <stop stop-color="#2D84EB" offset="0%"></stop>
      <stop stop-color="#D173DE" offset="100%"></stop>
    </linearGradient>
  </defs>
  <g id="Homepage" stroke="none" stroke-width="1" fill="none" fill-rule="evenodd">
    <g id="Main-Nav---Prod-4" transform="translate(-827.000000, -266.000000)" fill="url(#linearGradient-1)" fill-rule="nonzero">
      <g id="Nav-Icon---Treasury-Mgmt" transform="translate(827.864681, 266.155255)">
        <path d="M22.5061394,0.000188996742 L29.422,0.001 L38.2031024,0.000141747557 L45,8.76998897 L44.6594969,9.11049209 L44.2740266,8.7240966 L44.6435028,9.12596165 L22.8762755,29.1851309 L22.506,28.784 L22.1362392,29.1851778 L0,8.78591509 L6.81321461,0 L22.5061394,0.000188996742 Z M28.9559727,10.7381222 C28.9559727,14.1165116 26.358386,16.8882725 23.0515261,17.1650913 L23.051,26.634 L28.6247822,16.3616713 L32.475,9.269 L28.7875111,9.26919691 C28.8989576,9.74678582 28.9559727,10.238756 28.9559727,10.7381222 Z M16.2251187,9.26894769 L12.54,9.269 L21.96,26.633 L21.9603527,17.1651777 C18.6538071,16.8880455 16.0565659,14.1164287 16.0565659,10.7382639 C16.0565659,10.2387615 16.1136122,9.74665908 16.2251187,9.26894769 Z M11.299,9.269 L2.136,9.27 L20.459,26.156 L11.299,9.269 Z M42.875,9.27 L33.716,9.27 L28.9721651,18.0148953 L24.555,26.153 L42.875,9.27 Z M22.5062575,5.37995883 C20.3145424,5.37995883 18.3742471,6.70827286 17.5545515,8.68784762 L17.4681298,8.91044606 C17.2571377,9.49161022 17.1479051,10.1071911 17.1479051,10.7382639 C17.1479051,13.6175841 19.4190302,15.9665286 22.2675782,16.0913954 L22.5062575,16.0966163 C25.4655824,16.0964746 27.8646335,13.6974235 27.8646335,10.7381222 C27.8646335,10.2122282 27.7887776,9.69709244 27.6414048,9.20367931 L27.5444338,8.91032586 C26.8089169,6.88339861 24.9206755,5.48284451 22.7487104,5.38539015 L22.5062575,5.37995883 Z M21.1694251,8.11770598 L21.169,9.538 L23.755,9.538 L23.7555608,8.11770598 L24.8469001,8.11770598 L24.8469001,13.3900064 L23.7555608,13.3900064 L23.755,11.912 L21.169,11.912 L21.1694251,13.3900064 L20.0780858,13.3900064 L20.0780858,8.11770598 L21.1694251,8.11770598 Z M23.755,10.63 L21.169,10.63 L21.169,10.821 L23.755,10.821 L23.755,10.63 Z M29.845,1.091 L23.051,1.091 L23.0518755,4.31153694 C25.4291392,4.51191815 27.4902129,6.01040862 28.4273292,8.17803891 L32.595,8.178 L29.845,1.091 Z M21.96,1.091 L15.167,1.091 L12.421,8.178 L16.5855055,8.17748361 C17.5227628,6.01024558 19.5836903,4.51190922 21.9606727,4.31153728 L21.96,1.091 Z M13.9959106,1.09126992 L7.34747192,1.09126992 L1.851,8.178 L11.25,8.178 L13.9959106,1.09126992 Z M37.6670588,1.09126992 L31.0153461,1.09126992 L33.765,8.178 L43.16,8.178 L37.6670588,1.09126992 Z" id="Combined-Shape"></path>
      </g>
    </g>
  </g>
</svg>
