<?xml version="1.0" encoding="UTF-8"?>
<svg xmlns="http://www.w3.org/2000/svg" xmlns:xlink="http://www.w3.org/1999/xlink" width="44px" height="44px" viewBox="0 0 44 44" version="1.1">
  <title>Nav Icon - Payments-std</title>
  <defs>
    <linearGradient x1="1.61534661%" y1="-2.1297453e-14%" x2="98.3846534%" y2="100%" id="linearGradient-1">
      <stop stop-color="#2D84EB" offset="0%"></stop>
      <stop stop-color="#D173DE" offset="100%"></stop>
    </linearGradient>
  </defs>
  <g id="Homepage" stroke="none" stroke-width="1" fill="none" fill-rule="evenodd">
    <g id="Main-Nav---Prod-3" transform="translate(-697.000000, -206.000000)" fill="url(#linearGradient-1)">
      <g id="Nav-Icon---Payments" transform="translate(697.706150, 206.500300)">
        <path d="M16.4426,7.6499 C16.6376,7.4549 16.9536,7.4549 17.1496,7.6499 C17.3446,7.8449 17.3446,8.1619 17.1496,8.3569 L11.5066,13.9999 L27.7996,13.9999 C35.7946,13.9999 42.2996,20.5049 42.2996,28.4999 C42.2996,36.4949 35.7946,42.9999 27.7996,42.9999 C22.6386,42.9999 17.8256,40.2219 15.2396,35.7499 C15.1016,35.5109 15.1836,35.2049 15.4226,35.0669 C15.6576,34.9289 15.9666,35.0099 16.1056,35.2499 C18.5136,39.4129 22.9936,41.9999 27.7996,41.9999 C35.2436,41.9999 41.2996,35.9439 41.2996,28.4999 C41.2996,21.0559 35.2436,14.9999 27.7996,14.9999 L11.5066,14.9999 L17.1496,20.6429 C17.3446,20.8379 17.3446,21.1549 17.1496,21.3499 C17.0516,21.4479 16.9236,21.4969 16.7956,21.4969 C16.6676,21.4969 16.5396,21.4479 16.4426,21.3499 L9.9466,14.8539 C9.9006,14.8079 9.8636,14.7519 9.8386,14.6909 C9.7876,14.5689 9.7876,14.4309 9.8386,14.3089 C9.8636,14.2479 9.9006,14.1919 9.9466,14.1459 Z M14.5,0 C19.66,0 24.472,2.778 27.059,7.249 C27.198,7.488 27.116,7.794 26.877,7.933 C26.64,8.07 26.332,7.989 26.194,7.75 C23.785,3.587 19.304,1 14.5,1 C7.055,1 1,7.056 1,14.5 C1,21.944 7.055,28 14.5,28 L30.967,28 L25.324,22.357 C25.129,22.162 25.129,21.845 25.324,21.65 C25.519,21.455 25.836,21.455 26.031,21.65 L32.527,28.146 C32.573,28.192 32.61,28.248 32.635,28.309 C32.686,28.431 32.686,28.569 32.635,28.691 C32.61,28.752 32.573,28.808 32.527,28.854 L26.031,35.35 C25.933,35.448 25.805,35.497 25.678,35.497 C25.55,35.497 25.422,35.448 25.324,35.35 C25.129,35.155 25.129,34.838 25.324,34.643 L30.967,29 L14.5,29 C6.505,29 0,22.495 0,14.5 C0,6.505 6.505,0 14.5,0 Z" id="Combined-Shape"></path>
      </g>
    </g>
  </g>
</svg>
