<?xml version="1.0" encoding="UTF-8"?>
<svg xmlns="http://www.w3.org/2000/svg" xmlns:xlink="http://www.w3.org/1999/xlink" width="44px" height="45px" viewBox="0 0 44 45" version="1.1">
  <title>Group 13</title>
  <defs>
    <linearGradient x1="1.37032228%" y1="-2.1297453e-14%" x2="98.6296777%" y2="100%" id="linearGradient-1">
      <stop stop-color="#2D84EB" offset="0%"></stop>
      <stop stop-color="#D173DE" offset="100%"></stop>
    </linearGradient>
  </defs>
  <g id="Homepage" stroke="none" stroke-width="1" fill="none" fill-rule="evenodd">
    <g id="Group-13" transform="translate(0.500000, 0.364595)" fill="url(#linearGradient-1)" fill-rule="nonzero">
      <path d="M24.7007054,1.21519898 L27.8821474,4.24633245 C29.6252732,4.01725432 31.3657778,4.84783272 32.2653568,6.40639112 L35.9284305,12.7507663 C36.299366,12.7885088 36.6608156,12.8726605 37.0070879,13.0010107 C38.1446146,13.4227902 39.0617722,14.2967001 39.5329927,15.409332 C39.7607547,15.9476474 39.8798033,16.5283388 39.8798033,17.1242196 L39.879,23.916 L41.3659229,23.9160269 C41.8433915,23.9160269 42.2924335,24.0981945 42.6381702,24.4175295 C42.9215289,24.6789641 43.1194896,25.0184153 43.2011934,25.3946571 C43.2304912,25.5281711 43.245897,25.6615535 43.245897,25.796001 L43.245897,30.6941642 C43.245897,31.7325081 42.4043924,32.5741383 41.3659229,32.5741383 L39.879,32.574 L39.8798033,39.4502939 C39.8798033,41.8807459 37.9096673,43.8508818 35.4792154,43.8508818 L4.40088592,43.8508818 C1.97038895,43.8508818 0,41.8807008 0,39.4502939 L0,17.1242196 C0,14.6937676 1.97043399,12.7233336 4.40088592,12.7233336 L7.652,12.723 L18.4786759,1.36448328 C20.155593,-0.394816997 22.9411104,-0.461678565 24.7007054,1.21519898 Z M4.40088592,13.7233336 C2.52271874,13.7233336 1,15.2460524 1,17.1242196 L1,39.4502939 C1,41.3283924 2.52265007,42.8508818 4.40088592,42.8508818 L20.6,42.8503336 L20.6522975,42.8259555 C20.7836041,42.7753021 20.9121586,42.7852866 21.0212571,42.8346076 L21.051,42.8503336 L35.4792154,42.8508818 C37.294777,42.8508818 38.7779133,41.4282642 38.8747718,39.6368816 L38.8798033,39.4502939 L38.879,32.574 L32.3948987,32.5741383 C32.0922149,32.5741383 31.792182,32.5421123 31.4959936,32.479576 C29.5092316,32.0596017 28.0658429,30.300478 28.0658429,28.2450826 C28.0658429,25.8542714 30.0040875,23.9160269 32.3948987,23.9160269 L38.879,23.916 L38.8798033,17.1242196 C38.8798033,16.6629206 38.7879055,16.2146644 38.6121025,15.7991541 C38.2485965,14.9408545 37.5390798,14.2647944 36.6594816,13.9386512 C36.3921196,13.8395502 36.1130198,13.7746045 35.8265009,13.7455227 L35.5049458,13.7243235 L4.40088592,13.7233336 Z M41.3659229,24.9160269 L32.3948987,24.9160269 C30.5563722,24.9160269 29.0658429,26.4065561 29.0658429,28.2450826 C29.0658429,29.8254254 30.1760248,31.1784547 31.7026929,31.5011715 C31.9315758,31.5494971 32.1624247,31.5741383 32.3948987,31.5741383 L41.3659229,31.5741383 C41.8520742,31.5741383 42.245897,31.1802567 42.245897,30.6941642 L42.245897,25.796001 C42.245897,25.7361117 42.2387506,25.6742384 42.2242019,25.6079325 C42.1865086,25.4343594 42.0944234,25.2764571 41.9598683,25.1523128 C41.7955008,25.000497 41.5872824,24.9160269 41.3659229,24.9160269 Z M32.394839,26.4938663 C33.3620762,26.4938663 34.1460554,27.2779744 34.1460554,28.2450826 C34.1460554,29.2121907 33.3620762,29.9962989 32.394839,29.9962989 C31.4278154,29.9962989 30.6436227,29.2121062 30.6436227,28.2450826 C30.6436227,27.278059 31.4278154,26.4938663 32.394839,26.4938663 Z M32.394839,27.4938663 C31.9801002,27.4938663 31.6436227,27.8303437 31.6436227,28.2450826 C31.6436227,28.6598214 31.9801002,28.9962989 32.394839,28.9962989 C32.8097546,28.9962989 33.1460554,28.6599428 33.1460554,28.2450826 C33.1460554,27.8302224 32.8097546,27.4938663 32.394839,27.4938663 Z M19.202537,2.05442904 L9.033,12.723 L12.522,12.723 L26.2538043,4.79574336 C26.4148689,4.70274995 26.5809167,4.62078811 26.7513116,4.54977994 L24.0107862,1.9390854 C22.6509992,0.643221039 20.4984124,0.694890193 19.202537,2.05442904 Z M27.8104862,5.27052085 C27.4353521,5.3429624 27.0807318,5.47301156 26.753809,5.66176605 L14.522,12.723 L34.758,12.723 L31.3993146,6.90636198 C30.6697424,5.64234763 29.223644,4.99802498 27.8104862,5.27052085 Z" id="Combined-Shape"></path>
    </g>
  </g>
</svg>
