<?xml version="1.0" encoding="UTF-8"?>
<svg xmlns="http://www.w3.org/2000/svg" xmlns:xlink="http://www.w3.org/1999/xlink" width="47px" height="41px" viewBox="0 0 47 41" version="1.1">
  <title>Nav Icon - Grants - Hvr</title>
  <defs>
    <linearGradient x1="100%" y1="88.5171222%" x2="-2.38383997e-12%" y2="11.4828778%" id="linearGradient-1">
      <stop stop-color="#2D84EB" offset="0%"></stop>
      <stop stop-color="#D173DE" offset="100%"></stop>
    </linearGradient>
  </defs>
  <g id="Homepage" stroke="none" stroke-width="1" fill="none" fill-rule="evenodd">
    <g id="Main-Nav---2-Copy" transform="translate(-691.000000, -203.000000)" fill="url(#linearGradient-1)">
      <g id="Nav-Icon---Grants---Hvr" transform="translate(691.816291, 203.155255)">
        <path d="M0.755601546,6.4555 C0.856601546,6.2215 1.11860155,6.0985 1.36060155,6.1735 C1.51660155,6.2215 5.20460155,7.3665 6.59560155,10.3505 C7.87260155,13.0905 6.72260155,16.3085 6.47560155,16.9345 C6.50960155,19.2055 6.91360155,21.4545 7.67660155,23.6255 C9.48360155,25.3125 10.0586015,27.8675 10.2016015,28.7055 C11.3286015,30.4175 13.1386015,32.1465 15.5866015,33.8485 C18.3776015,34.3355 20.4626015,36.6225 20.5596015,36.7315 C20.6066015,36.7835 20.6386015,36.8445 20.6596015,36.9085 C21.0726015,37.1325 21.4716015,37.3465 21.8366015,37.5415 C22.2666015,37.7715 22.6576015,37.9795 23.0016015,38.1685 C23.3456015,37.9795 23.7406015,37.7685 24.1716015,37.5385 C24.5356015,37.3445 24.9326015,37.1325 25.3436015,36.9095 C25.3646015,36.8455 25.3956015,36.7845 25.4436015,36.7315 C25.5406015,36.6225 27.6256015,34.3355 30.4166015,33.8485 C32.8636015,32.1485 34.6746015,30.4195 35.8016015,28.7055 C35.9456015,27.8675 36.5206015,25.3125 38.3276015,23.6255 C39.0906015,21.4545 39.4946015,19.2055 39.5286015,16.9345 C39.2816015,16.3085 38.1316015,13.0905 39.4086015,10.3505 C40.7996015,7.3665 44.4876015,6.2215 44.6436015,6.1735 C44.8866015,6.0995 45.1476015,6.2215 45.2486015,6.4555 C45.3126015,6.6055 46.8036015,10.1665 45.4136015,13.1505 C44.2476015,15.6515 41.4766015,16.8575 40.5146015,17.2115 C40.4646015,19.0615 40.1806015,20.8945 39.6666015,22.6855 C42.2706015,21.3565 45.4386015,22.0665 45.5856015,22.1005 C45.8346015,22.1585 45.9986015,22.3945 45.9676015,22.6475 C45.9486015,22.8095 45.4606015,26.6395 42.7636015,28.5275 C41.3616015,29.5095 39.6696015,29.7505 38.3466015,29.7505 C37.4796015,29.7505 36.7766015,29.6475 36.4116015,29.5815 C35.4066015,31.0135 34.0096015,32.4065 32.1746015,33.8035 C35.1106015,34.1735 37.3386015,36.6185 37.4386015,36.7315 C37.6096015,36.9205 37.6096015,37.2085 37.4386015,37.3985 C37.3306015,37.5195 34.7336015,40.3775 31.4416015,40.3775 C28.8356015,40.3775 26.6716015,38.5925 25.8256015,37.7855 C25.4106015,38.0105 25.0096015,38.2245 24.6426015,38.4205 C24.1116015,38.7035 23.6386015,38.9565 23.2456015,39.1765 C23.1686015,39.2185 23.0856015,39.2405 23.0016015,39.2405 C22.9176015,39.2405 22.8336015,39.2185 22.7566015,39.1765 C22.3646015,38.9575 21.8936015,38.7055 21.3666015,38.4245 C20.9976015,38.2275 20.5946015,38.0115 20.1776015,37.7845 C19.3316015,38.5915 17.1676015,40.3775 14.5626015,40.3775 C11.2706015,40.3775 8.67360155,37.5195 8.56560155,37.3985 C8.39460155,37.2085 8.39460155,36.9205 8.56560155,36.7315 C8.66560155,36.6185 10.8936015,34.1735 13.8296015,33.8035 C11.9946015,32.4055 10.5976015,31.0125 9.59260155,29.5815 C9.22760155,29.6475 8.52460155,29.7505 7.65760155,29.7505 C6.33460155,29.7505 4.64260155,29.5095 3.24060155,28.5275 C0.543601546,26.6395 0.0556015458,22.8095 0.0366015458,22.6475 C0.00560154579,22.3945 0.169601546,22.1585 0.418601546,22.1005 C0.564601546,22.0665 3.73260155,21.3565 6.33760155,22.6855 C5.82360155,20.8945 5.53960155,19.0615 5.48960155,17.2115 C4.52760155,16.8575 1.75660155,15.6515 0.590601546,13.1505 C-0.799398454,10.1665 0.691601546,6.6055 0.755601546,6.4555 Z M31.4416015,34.7525 C29.2206015,34.7525 27.2766015,36.3535 26.5216015,37.0645 C27.2766015,37.7765 29.2206015,39.3775 31.4416015,39.3775 C33.6686015,39.3775 35.6086015,37.7765 36.3616015,37.0655 C35.6066015,36.3545 33.6626015,34.7525 31.4416015,34.7525 Z M14.5626015,34.7525 C12.3356015,34.7525 10.3956015,36.3525 9.64260155,37.0645 C10.3966015,37.7755 12.3416015,39.3775 14.5626015,39.3775 C16.7906015,39.3775 18.7296015,37.7765 19.4826015,37.0655 C18.7276015,36.3545 16.7836015,34.7525 14.5626015,34.7525 Z M31.4387015,0 C31.7147015,0 31.9387015,0.224 31.9387015,0.5 L31.9387015,23.001 C31.9387015,23.278 31.7147015,23.501 31.4387015,23.501 L26.2627015,23.501 C26.1247015,24.407 25.6257015,25.192 24.9097015,25.7 L26.2607015,28.403 C26.3837015,28.65 26.2847015,28.95 26.0377015,29.074 C25.9647015,29.11 25.8887015,29.127 25.8137015,29.127 C25.6307015,29.127 25.4547015,29.026 25.3667015,28.85 L24.0107015,26.14 C23.6907015,26.243 23.3557015,26.314 23.0007015,26.314 C22.6467015,26.314 22.3117015,26.243 21.9907015,26.14 L20.6347015,28.85 C20.5467015,29.026 20.3707015,29.127 20.1877015,29.127 C20.1127015,29.127 20.0367015,29.11 19.9637015,29.074 C19.7167015,28.95 19.6177015,28.65 19.7407015,28.403 L21.0917015,25.7 C20.3747015,25.192 19.8767015,24.407 19.7387015,23.501 L14.5627015,23.501 C14.2867015,23.501 14.0627015,23.278 14.0627015,23.001 L14.0627015,0.5 C14.0627015,0.224 14.2867015,0 14.5627015,0 Z M6.46660155,23.9195 C4.64860155,22.6465 2.13960155,22.8435 1.11060155,22.9925 C1.32060155,24.0085 1.99560155,26.4355 3.81460155,27.7085 C5.63760155,28.9865 8.14460155,28.7875 9.16960155,28.6365 C8.96060155,27.6215 8.28660155,25.1935 6.46660155,23.9195 Z M44.8936015,22.9925 C43.8666015,22.8425 41.3566015,22.6455 39.5376015,23.9195 C37.7176015,25.1935 37.0436015,27.6195 36.8346015,28.6355 C37.8606015,28.7865 40.3706015,28.9825 42.1896015,27.7085 C44.0086015,26.4355 44.6836015,24.0085 44.8936015,22.9925 Z M23.0007015,20.689 C21.7257015,20.689 20.6877015,21.726 20.6877015,23.001 C20.6877015,24.277 21.7257015,25.314 23.0007015,25.314 C24.2767015,25.314 25.3137015,24.277 25.3137015,23.001 C25.3137015,21.726 24.2767015,20.689 23.0007015,20.689 Z M30.9387015,1 L15.0627015,1 L15.0627015,22.501 L19.7387015,22.501 C19.9817015,20.913 21.3457015,19.689 23.0007015,19.689 C24.6567015,19.689 26.0197015,20.913 26.2627015,22.501 L30.9387015,22.501 L30.9387015,1 Z M44.4896015,7.2925 C43.5256015,7.6755 41.2526015,8.7615 40.3146015,10.7735 C39.3766015,12.7855 40.0056015,15.2245 40.3326015,16.2095 C41.2956015,15.8265 43.5686015,14.7405 44.5066015,12.7285 C45.4446015,10.7155 44.8156015,8.2765 44.4896015,7.2925 Z M1.51460155,7.2925 C1.18860155,8.2765 0.559601546,10.7165 1.49760155,12.7285 C2.43560155,14.7405 4.70860155,15.8265 5.67160155,16.2095 C5.99860155,15.2245 6.62660155,12.7855 5.68960155,10.7735 C4.75160155,8.7605 2.47860155,7.6755 1.51460155,7.2925 Z M27.2199015,11.2507 C27.4959015,11.2507 27.7199015,11.4747 27.7199015,11.7507 C27.7199015,12.0267 27.4959015,12.2507 27.2199015,12.2507 L18.7819015,12.2507 C18.5049015,12.2507 18.2819015,12.0267 18.2819015,11.7507 C18.2819015,11.4747 18.5049015,11.2507 18.7819015,11.2507 Z M27.2194015,5.6255 C27.4964015,5.6255 27.7194015,5.8495 27.7194015,6.1255 C27.7194015,6.4015 27.4964015,6.6255 27.2194015,6.6255 L18.7814015,6.6255 C18.5054015,6.6255 18.2814015,6.4015 18.2814015,6.1255 C18.2814015,5.8495 18.5054015,5.6255 18.7814015,5.6255 Z" id="Combined-Shape"></path>
      </g>
    </g>
  </g>
</svg>
