<?xml version="1.0" encoding="UTF-8"?>
<svg xmlns="http://www.w3.org/2000/svg" xmlns:xlink="http://www.w3.org/1999/xlink" width="47px" height="47px" viewBox="0 0 47 47" version="1.1">
  <title>Nav Icon - Network Nodes-std</title>
  <defs>
    <linearGradient x1="-1.2503923e-12%" y1="-2.1297453e-14%" x2="100%" y2="100%" id="linearGradient-1">
      <stop stop-color="#2D84EB" offset="0%"></stop>
      <stop stop-color="#D173DE" offset="100%"></stop>
    </linearGradient>
  </defs>
  <g id="Homepage" stroke="none" stroke-width="1" fill="none" fill-rule="evenodd">
    <g id="Main-Nav---Prod-1" transform="translate(-494.000000, -448.000000)" fill="url(#linearGradient-1)">
      <g id="Nav-Icon---Network-Nodes" transform="translate(494.666667, 448.500000)">
        <path d="M38.67,34.296 C37.442,33.545 35.814,33.711 34.763,34.762 C34.585,34.94 34.43,35.136 34.3,35.348 L32.619,34.652 L32.092,34.433 L40.948,25.577 C41.285,25.821 41.666,25.996 42.069,26.094 C41.593,29.047 40.426,31.864 38.67,34.296 L38.67,34.296 Z M38.557,38.556 C37.705,39.408 36.32,39.406 35.467,38.554 C35.432,38.519 35.399,38.483 35.367,38.446 C34.827,37.827 34.682,36.937 34.996,36.178 L34.996,36.177 C35.107,35.911 35.266,35.673 35.47,35.469 C36.279,34.66 37.587,34.616 38.447,35.369 C38.448,35.369 38.449,35.369 38.449,35.369 C38.449,35.37 38.449,35.37 38.449,35.37 C38.485,35.401 38.522,35.434 38.557,35.469 C38.969,35.882 39.196,36.43 39.196,37.013 C39.196,37.596 38.969,38.144 38.557,38.556 L38.557,38.556 Z M26.094,42.07 C25.996,41.666 25.82,41.285 25.576,40.948 L31.128,35.396 L31.326,35.199 L33.003,35.893 L33.918,36.272 C33.726,37.087 33.863,37.955 34.297,38.67 C31.864,40.426 29.047,41.593 26.094,42.07 L26.094,42.07 Z M23,45 C21.797,45 20.817,44.021 20.817,42.817 L20.823,42.67 C20.899,41.528 21.856,40.634 23,40.634 C23.289,40.634 23.57,40.69 23.835,40.8 L23.835,40.8 C24.103,40.911 24.341,41.07 24.544,41.274 C24.544,41.274 24.544,41.274 24.545,41.274 C24.917,41.648 25.143,42.144 25.178,42.67 L25.178,42.67 L25.184,42.817 C25.184,44.021 24.204,45 23,45 L23,45 Z M11.238,34.762 C11.06,34.584 10.864,34.429 10.653,34.3 L12.957,28.737 L13.362,27.758 L15.145,28.496 L15.511,28.648 L26.451,33.179 L23.741,39.721 C23.5,39.663 23.252,39.634 23,39.634 C21.514,39.634 20.245,40.668 19.907,42.07 C16.953,41.593 14.136,40.426 11.705,38.67 C12.455,37.44 12.288,35.813 11.238,34.762 L11.238,34.762 Z M7.443,38.556 C6.593,37.705 6.593,36.32 7.441,35.472 L7.555,35.367 C8.175,34.827 9.067,34.682 9.823,34.996 C10.088,35.106 10.326,35.265 10.531,35.469 C11.34,36.279 11.385,37.587 10.632,38.448 C10.631,38.448 10.631,38.449 10.631,38.449 L10.531,38.556 C9.68,39.408 8.295,39.408 7.443,38.556 L7.443,38.556 Z M5.896,24.665 L12.439,27.375 L9.729,33.917 C8.907,33.718 8.049,33.853 7.329,34.295 C5.574,31.863 4.406,29.046 3.931,26.093 C4.743,25.895 5.455,25.377 5.896,24.665 L5.896,24.665 Z M1,23 C1.001,21.748 2.097,20.736 3.328,20.823 C3.329,20.823 3.329,20.823 3.33,20.823 C3.33,20.823 3.33,20.823 3.33,20.823 C3.857,20.858 4.353,21.083 4.726,21.456 C4.726,21.456 4.726,21.456 4.727,21.457 C5.139,21.869 5.366,22.418 5.366,23 C5.366,23.288 5.311,23.569 5.2,23.836 L5.2,23.836 C4.885,24.596 4.152,25.122 3.331,25.178 C3.331,25.178 3.33,25.178 3.33,25.178 L3.184,25.183 C1.98,25.183 1,24.204 1,23 L1,23 Z M7.33,11.704 C8.561,12.456 10.19,12.288 11.238,11.238 C11.417,11.059 11.571,10.864 11.701,10.652 L13.382,11.349 L13.909,11.567 L11.115,14.362 L5.053,20.424 C4.716,20.179 4.335,20.004 3.931,19.907 C4.407,16.953 5.574,14.136 7.33,11.704 L7.33,11.704 Z M7.443,7.444 C8.296,6.592 9.682,6.594 10.53,7.443 L10.634,7.554 C11.173,8.173 11.319,9.063 11.005,9.823 C10.896,10.088 10.736,10.326 10.531,10.531 C9.722,11.339 8.416,11.385 7.555,10.634 L7.443,10.531 C6.593,9.68 6.593,8.295 7.443,7.444 L7.443,7.444 Z M19.906,3.931 C20.004,4.335 20.18,4.716 20.424,5.053 L14.675,10.802 L12.083,9.728 C12.274,8.913 12.137,8.045 11.704,7.33 C14.136,5.575 16.953,4.407 19.906,3.931 L19.906,3.931 Z M23,1 C24.204,1 25.184,1.98 25.184,3.183 L25.178,3.33 C25.103,4.472 24.146,5.366 23,5.366 C22.711,5.366 22.431,5.311 22.166,5.201 C22.166,5.201 22.165,5.2 22.165,5.2 C21.899,5.09 21.661,4.931 21.458,4.727 C21.457,4.727 21.457,4.727 21.457,4.727 C21.083,4.353 20.858,3.857 20.823,3.331 L20.817,3.183 C20.817,1.98 21.797,1 23,1 L23,1 Z M34.763,11.238 C34.941,11.416 35.136,11.571 35.348,11.701 L33.149,17.011 L32.639,18.243 L31.266,17.674 L19.549,12.821 L19.753,12.327 L22.259,6.279 C22.501,6.337 22.748,6.366 23,6.366 C24.487,6.366 25.756,5.333 26.094,3.931 C29.047,4.407 31.864,5.575 34.296,7.33 C33.545,8.56 33.712,10.188 34.763,11.238 L34.763,11.238 Z M38.557,7.444 C38.969,7.856 39.196,8.404 39.196,8.987 C39.196,9.57 38.969,10.119 38.556,10.532 C38.522,10.567 38.485,10.599 38.449,10.631 C38.449,10.631 38.449,10.631 38.449,10.631 C38.448,10.632 38.448,10.632 38.447,10.632 C37.83,11.173 36.94,11.319 36.178,11.005 C36.178,11.004 36.178,11.004 36.178,11.004 C35.911,10.894 35.674,10.735 35.47,10.531 C34.661,9.722 34.615,8.415 35.367,7.554 L35.367,7.554 C35.399,7.518 35.432,7.482 35.47,7.444 C36.322,6.592 37.706,6.594 38.557,7.444 L38.557,7.444 Z M40.104,21.335 L35.504,19.43 L33.563,18.626 L36.273,12.082 C37.088,12.276 37.956,12.137 38.67,11.704 C40.425,14.136 41.593,16.952 42.069,19.906 C41.248,20.101 40.544,20.613 40.104,21.335 L40.104,21.335 Z M24.666,40.104 L27.375,33.562 L29.854,34.589 L30.326,34.784 L27.645,37.465 L24.87,40.24 C24.804,40.192 24.736,40.147 24.666,40.104 L24.666,40.104 Z M18.625,12.438 L15.675,11.216 L18.356,8.535 L21.131,5.76 C21.197,5.808 21.266,5.854 21.335,5.896 L18.787,12.048 L18.625,12.438 Z M14.018,22.5 L6.327,22.5 C6.249,22.004 6.056,21.537 5.76,21.131 L14.909,11.982 L17.04,12.864 L18.242,13.362 L17.356,15.503 C17.355,15.504 17.355,15.505 17.355,15.506 L14.457,22.5 L14.018,22.5 Z M12.967,26.1 L12.821,26.451 L6.279,23.742 C6.298,23.662 6.315,23.581 6.327,23.5 L14.018,23.5 L14.043,23.5 L12.967,26.1 Z M30.131,18.286 L30.131,18.286 L32.256,19.167 L32.196,19.312 L31.381,21.278 C31.381,21.279 31.381,21.279 31.381,21.279 L30.875,22.5 L15.54,22.5 L19.167,13.745 L21.327,14.64 C21.328,14.64 21.328,14.64 21.328,14.64 L30.131,18.286 Z M33.18,19.549 L39.721,22.259 C39.702,22.339 39.686,22.419 39.673,22.5 L31.983,22.5 L31.957,22.5 L33.18,19.549 Z M31.092,34.019 L29.241,33.252 L27.758,32.638 L28.461,30.942 L31.543,23.5 L31.983,23.5 L39.673,23.5 C39.751,23.997 39.944,24.464 40.24,24.87 L34.936,30.175 L31.092,34.019 Z M15.894,27.724 L15.894,27.724 L13.745,26.834 L15.126,23.5 L30.461,23.5 L27.739,30.07 L27.739,30.07 L26.834,32.255 L24.672,31.36 C24.671,31.36 24.671,31.359 24.67,31.359 L15.894,27.724 Z M45,23 C45,24.204 44.021,25.183 42.817,25.183 L42.67,25.178 C42.67,25.178 42.67,25.178 42.669,25.178 C42.143,25.142 41.647,24.917 41.274,24.544 C41.274,24.543 41.273,24.543 41.273,24.543 C40.861,24.131 40.634,23.583 40.634,23 C40.634,22.712 40.69,22.431 40.8,22.165 C40.8,22.165 40.8,22.165 40.8,22.165 C41.115,21.404 41.85,20.878 42.67,20.823 C42.67,20.823 42.671,20.823 42.671,20.823 C42.671,20.823 42.672,20.823 42.672,20.823 C43.895,20.738 45,21.748 45,23 L45,23 Z M46,23 C46,21.332 44.663,19.976 43.062,19.843 C42.567,16.672 41.314,13.65 39.419,11.05 C39.914,10.473 40.196,9.755 40.196,8.987 C40.196,8.137 39.865,7.338 39.264,6.737 C38.082,5.555 36.199,5.512 34.952,6.582 C32.351,4.686 29.33,3.434 26.159,2.938 C26.031,1.299 24.672,0 23,0 C21.329,0 19.97,1.299 19.842,2.938 C16.67,3.434 13.648,4.687 11.047,6.583 C9.824,5.551 7.881,5.593 6.736,6.737 C5.556,7.918 5.513,9.797 6.582,11.048 C4.686,13.65 3.434,16.671 2.938,19.843 C1.337,19.973 0,21.332 0,23 C0,24.671 1.299,26.03 2.938,26.158 C3.434,29.33 4.686,32.351 6.582,34.952 C5.513,36.201 5.555,38.081 6.736,39.264 C7.338,39.865 8.137,40.196 8.987,40.196 C9.755,40.196 10.472,39.914 11.049,39.419 C13.649,41.314 16.671,42.566 19.842,43.063 C19.97,44.702 21.329,46 23,46 C24.672,46 26.031,44.702 26.159,43.063 C29.33,42.566 32.351,41.314 34.952,39.418 C35.545,39.927 36.276,40.194 37.014,40.194 C37.828,40.194 38.644,39.884 39.264,39.264 C39.865,38.662 40.196,37.863 40.196,37.013 C40.196,36.245 39.914,35.526 39.419,34.951 C41.314,32.35 42.566,29.329 43.062,26.159 C44.701,26.031 46,24.672 46,23 L46,23 Z" id="Fill-36"></path>
      </g>
    </g>
  </g>
</svg>
