<?xml version="1.0" encoding="UTF-8"?>
<svg xmlns="http://www.w3.org/2000/svg" xmlns:xlink="http://www.w3.org/1999/xlink" width="39px" height="46px" viewBox="0 0 39 46" version="1.1">
  <title>Nav Icon - Network Explorers</title>
  <defs>
    <linearGradient x1="14.0542216%" y1="-2.1297453e-14%" x2="85.9457784%" y2="100%" id="linearGradient-1">
      <stop stop-color="#2D84EB" offset="0%"></stop>
      <stop stop-color="#D173DE" offset="100%"></stop>
    </linearGradient>
  </defs>
  <g id="Homepage" stroke="none" stroke-width="1" fill="none" fill-rule="evenodd">
    <g id="Main-Nav---2-Copy" transform="translate(-311.000000, -366.000000)" fill="url(#linearGradient-1)">
      <g id="Nav-Icon---Network-Explorers" transform="translate(311.707508, 366.500000)">
        <path d="M19.36,0 C29.723,0 38.155,8.431 38.155,18.794 C38.155,20.986 37.779,23.138 37.036,25.19 C36.284,27.267 35.148,29.215 33.711,30.915 L34.205,30.75 C34.462,30.663 34.75,30.804 34.838,31.066 L36.262,35.326 C36.349,35.588 36.209,35.871 35.946,35.959 L16.724,42.389 L8.997,44.974 C8.946,44.992 8.892,45 8.839,45 C8.762,45 8.685,44.983 8.616,44.948 C8.497,44.889 8.407,44.785 8.364,44.659 L6.939,40.399 C6.918,40.333 6.91,40.266 6.915,40.202 C6.93,40.007 7.058,39.832 7.256,39.766 L7.746,39.602 C6.38,38.752 5.129,37.746 4.025,36.583 C3.928,36.479 3.878,36.338 3.89,36.195 C3.903,36.053 3.975,35.922 4.091,35.837 L4.572,35.48 C1.628,31.85 0,27.316 0,22.635 C0,17.71 1.778,12.997 4.992,9.284 L4.13,8.649 L4.121,8.643 C4.103,8.63 4.095,8.611 4.079,8.597 C4.046,8.566 4.012,8.536 3.99,8.498 C3.977,8.478 3.974,8.455 3.965,8.434 C3.949,8.396 3.93,8.36 3.924,8.319 C3.92,8.292 3.926,8.264 3.926,8.236 C3.926,8.2 3.922,8.164 3.93,8.128 C3.937,8.101 3.954,8.076 3.966,8.049 C3.979,8.016 3.987,7.982 4.009,7.951 C7.53,2.973 13.269,0 19.36,0 Z M34.047,31.857 L32.155,32.49 L9.096,40.204 L8.047,40.555 L9.154,43.868 L16.408,41.441 L35.155,35.169 L34.047,31.857 Z M19.36,1 C13.758,1 8.475,3.663 5.12,8.138 L6.012,8.793 L16.063,16.187 C17.288,17.088 18.018,18.533 18.018,20.052 L18.018,24.331 C18.018,25.842 17.294,27.282 16.08,28.183 L5.579,35.977 L5.146,36.299 C6.288,37.428 7.581,38.393 8.995,39.184 L31.725,31.58 C33.415,29.945 34.776,27.977 35.704,25.836 L27.039,28.734 C26.987,28.752 26.933,28.761 26.881,28.761 C26.672,28.761 26.476,28.628 26.406,28.419 C26.319,28.157 26.46,27.874 26.722,27.786 L36.166,24.627 C36.817,22.751 37.155,20.792 37.155,18.794 C37.155,8.983 29.173,1 19.36,1 Z M5.799,9.878 C2.709,13.418 1,17.924 1,22.635 C1,27.101 2.558,31.427 5.374,34.885 L15.484,27.38 C16.445,26.667 17.018,25.527 17.018,24.331 L17.018,20.052 C17.018,18.849 16.44,17.706 15.471,16.993 L5.799,9.878 Z M20.3719,27.7371 C21.9879,27.7371 23.3039,29.0521 23.3039,30.6681 C23.3039,32.2841 21.9879,33.5991 20.3719,33.5991 C18.7559,33.5991 17.4409,32.2841 17.4409,30.6681 C17.4409,29.0521 18.7559,27.7371 20.3719,27.7371 Z M20.3719,28.7371 C19.3079,28.7371 18.4409,29.6031 18.4409,30.6681 C18.4409,31.7331 19.3079,32.5991 20.3719,32.5991 C21.4369,32.5991 22.3039,31.7331 22.3039,30.6681 C22.3039,29.6031 21.4369,28.7371 20.3719,28.7371 Z M22.116,21.712 C23.47,21.712 24.572,22.814 24.572,24.168 C24.572,25.522 23.47,26.623 22.116,26.623 C20.762,26.623 19.661,25.522 19.661,24.168 C19.661,22.814 20.762,21.712 22.116,21.712 Z M22.116,22.712 C21.313,22.712 20.661,23.365 20.661,24.168 C20.661,24.97 21.313,25.623 22.116,25.623 C22.919,25.623 23.572,24.97 23.572,24.168 C23.572,23.365 22.919,22.712 22.116,22.712 Z" id="Combined-Shape"></path>
      </g>
    </g>
  </g>
</svg>
