<?xml version="1.0" encoding="UTF-8"?>
<svg xmlns="http://www.w3.org/2000/svg" xmlns:xlink="http://www.w3.org/1999/xlink" width="41px" height="42px" viewBox="0 0 41 42" version="1.1">
  <title>Nav Icon - Bug Bounty-std</title>
  <defs>
    <linearGradient x1="1.94735497%" y1="-2.1297453e-14%" x2="98.052645%" y2="100%" id="linearGradient-1">
      <stop stop-color="#2D84EB" offset="0%"></stop>
      <stop stop-color="#D173DE" offset="100%"></stop>
    </linearGradient>
  </defs>
  <g id="Homepage" stroke="none" stroke-width="1" fill="none" fill-rule="evenodd">
    <g id="Main-Nav---Prod-2" transform="translate(-1056.000000, -366.000000)" fill="url(#linearGradient-1)" fill-rule="nonzero">
      <g id="Nav-Icon---Bug-Bounty" transform="translate(1056.333138, 366.500000)">
        <path d="M25.0775231,0 C25.322983,0 25.5271315,0.176875161 25.5694675,0.410124368 L25.5775231,0.5 L25.5775231,3.0750587 C25.5775231,4.31183902 24.7821183,5.36287466 23.6749578,5.74451647 C26.0905786,6.96900903 27.7865454,9.40818738 27.9608207,12.2585933 C29.1388954,12.3744287 30.0701014,13.3314342 30.147326,14.5211201 L30.1525088,14.6813102 L30.152,16.971 L34.9266408,16.9718726 C36.0407827,16.9718726 37.039908,16.305025 37.4728393,15.2912239 L37.5396746,15.1190994 L39.2216865,10.3223458 C39.3130626,10.0617599 39.5983842,9.92458826 39.8589701,10.0159644 C40.090602,10.0971876 40.2247215,10.3316516 40.1874898,10.5657698 L40.1653516,10.653248 L38.4833452,15.4499859 C37.9757749,16.8976261 36.6447161,17.8867304 35.1257766,17.9666425 L34.9266408,17.9718726 L30.152,17.971 L30.152,24.137 L39.6297208,24.137995 C39.9058632,24.137995 40.1297208,24.3618526 40.1297208,24.637995 C40.1297208,24.8834549 39.9528456,25.0876034 39.7195964,25.1299393 L39.6297208,25.137995 L30.152,25.137 L30.1525088,30.9762019 C30.1525088,31.170746 30.1464132,31.3664106 30.1344062,31.5638052 L34.8628747,31.5646268 C36.3969502,31.5646268 37.7707799,32.4934128 38.3487516,33.9003146 L38.4195736,34.086498 L40.1015855,38.8832515 C40.1929616,39.1438374 40.0557899,39.429159 39.795204,39.5205351 C39.5635721,39.6017583 39.3123959,39.5024006 39.1952623,39.2963005 L39.1579204,39.2141536 L37.475903,34.4173844 C37.1072799,33.3660352 36.1473924,32.6438533 35.0474227,32.5707465 L34.8628747,32.5646268 L30.0250076,32.5649105 C29.2729196,37.2914498 25.2415489,40.863993 20.4065308,40.9962054 L20.1287107,41 C15.1332215,41 10.9911942,37.3456804 10.2300398,32.5644522 L5.33078061,32.5646268 C4.21663872,32.5646268 3.21751342,33.2314745 2.78458212,34.2452756 L2.7177468,34.4174001 L1.03573491,39.2141536 C0.944358815,39.4747395 0.659037229,39.6119112 0.398451311,39.5205351 C0.166819385,39.4393119 0.0326999555,39.2048478 0.0699316439,38.9707296 L0.0920698268,38.8832515 L1.77407624,34.0865136 C2.28164654,32.6388734 3.61270528,31.6497691 5.13164482,31.569857 L5.33078061,31.5646268 L10.1218894,31.5644938 C10.1159763,31.4623226 10.1115935,31.359741 10.1087636,31.2567716 L10.1049127,30.9762019 L10.104,25.137 L0.595785425,25.137995 C0.31964305,25.137995 0.0957854245,24.9141374 0.0957854245,24.637995 C0.0957854245,24.3925351 0.272660585,24.1883866 0.505909792,24.1460507 L0.595785425,24.137995 L10.104,24.137 L10.104,17.971 L5.2670145,17.9718726 C3.73293903,17.9718726 2.35910924,17.0430867 1.7811376,15.6361848 L1.71031561,15.4500015 L0.0283037151,10.653248 C-0.0630723807,10.392662 0.0740992822,10.1073405 0.3346852,10.0159644 C0.566317126,9.93474116 0.817493285,10.0340989 0.934626908,10.240199 L0.971968799,10.3223458 L2.65398617,15.119115 C3.02260932,16.1704643 3.98249678,16.8926462 5.08246652,16.965753 L5.2670145,16.9718726 L10.104,16.971 L10.1049127,14.6813102 C10.1049127,13.4181739 11.0662579,12.3794628 12.2971639,12.2569613 C12.4709082,9.40818738 14.166875,6.96900903 16.5824659,5.74312551 C15.5268314,5.38042671 14.7549007,4.40834328 14.6851143,3.24701554 L14.6799625,3.0750587 L14.6799625,0.5 C14.6799625,0.223857625 14.9038201,0 15.1799625,0 C15.4254224,0 15.6295709,0.176875161 15.6719068,0.410124368 L15.6799625,0.5 L15.6799625,3.0750587 C15.6799625,4.03143272 16.4165261,4.81585018 17.3532057,4.89190099 L17.5026873,4.89794411 L22.7546377,4.89794411 C23.7110303,4.89794411 24.4954311,4.16136294 24.5714802,3.22456055 L24.5775231,3.0750587 L24.5775231,0.5 C24.5775231,0.223857625 24.8013808,0 25.0775231,0 Z M27.7160749,13.2448763 L20.628,13.244 L20.6284703,39.9863282 C24.9163449,39.7511904 28.4511512,36.5088913 29.0585054,32.268314 L29.0919506,32.008015 L29.1254463,31.6589147 L29.1457069,31.3152689 L29.1525088,30.9762019 L29.1525088,14.6813102 C29.1525088,13.9347077 28.5827814,13.3210626 27.8544044,13.2514525 L27.7160749,13.2448763 Z M19.628,13.244 L12.5413465,13.2448763 C11.7947441,13.2448763 11.1810989,13.8146037 11.1114888,14.5429807 L11.1049127,14.6813102 L11.1049127,30.9762019 C11.1049127,35.7920048 14.8774331,39.726746 19.6284144,39.9863656 L19.628,13.244 Z M20.1287268,5.89796017 C16.5157146,5.89796017 13.5563051,8.69644527 13.2998472,12.2440666 L26.9576063,12.2440666 C26.7011484,8.69644527 23.7417389,5.89796017 20.1287268,5.89796017 Z" id="Combined-Shape"></path>
      </g>
    </g>
  </g>
</svg>
