<?xml version="1.0" encoding="UTF-8"?>
<svg xmlns="http://www.w3.org/2000/svg" xmlns:xlink="http://www.w3.org/1999/xlink" width="35px" height="46px" viewBox="0 0 35 46" version="1.1">
  <title>Nav Icon - HBAR-std</title>
  <defs>
    <linearGradient x1="22.428546%" y1="-2.1297453e-14%" x2="77.571454%" y2="100%" id="linearGradient-1">
      <stop stop-color="#2D84EB" offset="0%"></stop>
      <stop stop-color="#D173DE" offset="100%"></stop>
    </linearGradient>
  </defs>
  <g id="Homepage" stroke="none" stroke-width="1" fill="none" fill-rule="evenodd">
    <g id="Main-Nav---Prod-1" transform="translate(-115.000000, -444.000000)" fill="url(#linearGradient-1)">
      <g id="Nav-Icon---HBAR" transform="translate(115.841195, 444.000000)">
        <path d="M24.2712312,19.403 C24.9652312,19.403 25.4872312,19.531 25.8212312,19.784 C26.1552312,20.038 26.3162312,20.409 26.3162312,20.919 C26.3162312,21.055 26.2982312,21.226 26.2572312,21.433 L25.8552312,22.834 L24.9472312,25.163 L24.0772312,27.155 L19.7642312,36.967 C19.6822312,37.184 19.6022312,37.397 19.5282312,37.605 L19.3182312,38.213 C18.9132312,39.434 18.7062312,40.397 18.7062312,41.071 C18.7062312,42.248 19.1332312,43.208 19.9782312,43.924 C20.8212312,44.638 21.8432312,45 23.0162312,45 C24.6172312,45 26.3292312,44.344 28.1062312,43.05 C29.8772312,41.759 31.4312312,40.028 32.7242312,37.904 L32.7692312,37.83 L30.7772312,37.853 C29.9702312,39.18 28.9882312,40.302 27.8572312,41.188 C26.7312312,42.074 25.7042312,42.524 24.8042312,42.524 C24.3072312,42.524 23.9452312,42.396 23.6992312,42.132 C23.4522312,41.871 23.3322312,41.493 23.3322312,40.978 C23.3322312,40.93 23.3352312,40.869 23.3482312,40.795 L23.6032312,39.898 L24.3422312,37.927 L25.2682312,35.678 L30.5932312,22.566 L30.7752312,21.835 C30.8352312,21.542 30.8672312,21.293 30.8672312,21.106 C30.8672312,19.907 30.4372312,18.999 29.5892312,18.407 C28.7482312,17.82 27.4582312,17.523 25.7562312,17.523 L25.4272312,17.529 C22.3112312,17.634 18.8652312,19.318 15.1902312,22.532 L14.9342312,22.758 C14.7632312,22.91 14.5082312,22.925 14.3202312,22.796 C14.1312312,22.666 14.0542312,22.424 14.1342312,22.21 L17.2772312,13.718 C17.3342312,13.565 17.4612312,13.449 17.6192312,13.408 L29.4442312,10.308 L28.7502312,7.663 L19.4532312,10.1 C19.2722312,10.147 19.0802312,10.09 18.9562312,9.952 C18.8302312,9.814 18.7922312,9.618 18.8572312,9.443 L21.9822312,1 L20.8662312,1.023 C19.1702312,1.608 16.4982312,1.977 13.0012312,2.098 L11.9462312,2.127 L11.4572312,3.538 L12.7422312,3.538 C12.9112312,3.538 13.0712312,3.54 13.2232312,3.543 L14.6522312,3.656 C14.9282312,3.704 15.1122312,3.763 15.2462312,3.843 C15.7372312,4.143 15.7372312,4.663 15.7372312,4.835 C15.7372312,4.864 15.7322312,4.933 15.7272312,4.962 L15.4872312,5.86 L14.6002312,8.383 L13.4662312,11.448 C13.4102312,11.601 13.2832312,11.717 13.1252312,11.758 L4.41023124,14.045 L5.10323124,16.69 L11.2902312,15.067 C11.4702312,15.02 11.6622312,15.077 11.7872312,15.215 C11.9122312,15.353 11.9502312,15.549 11.8852312,15.724 L1.21723124,44.593 L5.85023124,44.593 L10.9192312,31.243 L11.5462312,29.837 C11.6252312,29.667 11.7032312,29.507 11.7782312,29.356 C12.5442312,27.805 13.7782312,26.12 15.4412312,24.347 C17.1042312,22.576 18.7252312,21.295 20.2592312,20.54 C21.7922312,19.786 23.1422312,19.403 24.2712312,19.403 M23.0162312,46 C21.6002312,46 20.3602312,45.558 19.3322312,44.687 C18.2522312,43.772 17.7062312,42.556 17.7062312,41.071 C17.7062312,40.279 17.9232312,39.239 18.3712312,37.892 L18.5842312,37.273 C18.6632312,37.055 18.7452312,36.833 18.8332312,36.605 L19.9272312,33.979 L24.6682312,23.17 L25.2792312,21.227 C25.3022312,21.11 25.3162312,21.004 25.3162312,20.919 C25.3162312,20.656 25.2462312,20.603 25.2162312,20.58 C25.1622312,20.539 24.9312312,20.403 24.2712312,20.403 C23.2962312,20.403 22.0952312,20.751 20.7012312,21.437 C19.2752312,22.139 17.7502312,23.348 16.1692312,25.031 C14.5742312,26.732 13.3982312,28.337 12.6732312,29.801 C12.6012312,29.945 12.5282312,30.096 12.4552312,30.256 L11.4342312,32.612 L9.69223124,37.179 L6.66623124,45.268 C6.59223124,45.464 6.40623124,45.593 6.19723124,45.593 L0.500231236,45.593 C0.336231236,45.593 0.183231236,45.513 0.0892312365,45.379 C-0.00376876352,45.245 -0.0257687635,45.073 0.0312312365,44.92 L10.6152312,16.278 L4.87323124,17.784 C4.74323124,17.818 4.60823124,17.799 4.49423124,17.732 C4.37823124,17.665 4.29523124,17.556 4.26223124,17.427 L3.31623124,13.815 C3.24623124,13.548 3.40623124,13.274 3.67223124,13.204 L12.6192312,10.857 L14.7432312,4.787 C14.7382312,4.735 14.7262312,4.702 14.7222312,4.691 C14.7172312,4.7 14.6512312,4.671 14.4932312,4.643 L13.1952312,4.543 L10.7532312,4.538 C10.5912312,4.538 10.4402312,4.459 10.3462312,4.328 C10.2522312,4.196 10.2282312,4.027 10.2812312,3.874 L11.1152312,1.47 C11.1842312,1.273 11.3682312,1.139 11.5782312,1.134 L12.9702312,1.099 C16.3652312,0.981 18.9412312,0.63 20.6232312,0.057 L20.8782312,0.007 L22.7012312,0 C22.8652312,0 23.0172312,0.08 23.1112312,0.215 C23.2052312,0.349 23.2262312,0.52 23.1692312,0.674 L20.1282312,8.889 L28.9792312,6.569 C29.2502312,6.498 29.5192312,6.658 29.5892312,6.925 L30.5382312,10.538 C30.5722312,10.666 30.5532312,10.802 30.4862312,10.917 C30.4192312,11.031 30.3092312,11.114 30.1812312,11.148 L18.1252312,14.309 L15.7302312,20.777 C19.1442312,18.058 22.3922312,16.631 25.4022312,16.529 L25.7482312,16.523 C27.6932312,16.523 29.1342312,16.871 30.1622312,17.587 C31.2772312,18.366 31.8672312,19.583 31.8672312,21.106 C31.8672312,21.364 31.8302312,21.672 31.7512312,22.047 L31.2712312,23.759 L30.4212312,26.065 L29.7012312,27.829 L24.3322312,40.978 C24.3322312,41.329 24.4112312,41.431 24.4272312,41.448 C24.4352312,41.456 24.5062312,41.524 24.8042312,41.524 C25.4742312,41.524 26.2932312,41.146 27.2392312,40.402 C28.2762312,39.589 29.1782312,38.557 29.9212312,37.334 L30.0822312,37.07 C30.1722312,36.921 30.3342312,36.83 30.5092312,36.83 L33.6592312,36.83 C33.8392312,36.83 34.0062312,36.927 34.0942312,37.085 C34.1832312,37.243 34.1802312,37.436 34.0852312,37.59 L33.5782312,38.424 C32.2162312,40.661 30.5742312,42.489 28.6942312,43.858 C26.7432312,45.279 24.8332312,46 23.0162312,46" id="Fill-29"></path>
      </g>
    </g>
  </g>
</svg>
