<?xml version="1.0" encoding="UTF-8"?>
<svg xmlns="http://www.w3.org/2000/svg" xmlns:xlink="http://www.w3.org/1999/xlink" width="44px" height="44px" viewBox="0 0 44 44" version="1.1">
  <title>Nav Icon - Open Source-std</title>
  <defs>
    <linearGradient x1="-1.2503923e-12%" y1="-2.1297453e-14%" x2="100%" y2="100%" id="linearGradient-1">
      <stop stop-color="#2D84EB" offset="0%"></stop>
      <stop stop-color="#D173DE" offset="100%"></stop>
    </linearGradient>
  </defs>
  <g id="Homepage" stroke="none" stroke-width="1" fill="none" fill-rule="evenodd">
    <g id="Main-Nav---Prod-2" transform="translate(-1053.000000, -205.000000)" fill="url(#linearGradient-1)">
      <g id="Nav-Icon---Open-Source" transform="translate(1053.526493, 205.500000)">
        <path d="M39.0953,0 C41.2493,0 43.0003,1.751 43.0003,3.904 L43.0003,39.096 C43.0003,41.249 41.2493,43 39.0953,43 L3.9033,43 C1.7513,43 0.0003,41.249 0.0003,39.096 L0.0003,3.904 C0.0003,1.751 1.7513,0 3.9033,0 L39.0953,0 Z M42,9.907 L1,9.907 L1.0003,39.096 C1.0003,40.697 2.3023,42 3.9033,42 L39.0953,42 C40.6973,42 42.0003,40.697 42.0003,39.096 L42,9.907 Z M23.2029,15.2338 C23.4759,15.2778 23.6609,15.5348 23.6159,15.8068 L20.3699,35.7668 C20.3299,36.0128 20.1179,36.1868 19.8779,36.1868 C19.8509,36.1868 19.8239,36.1848 19.7969,36.1798 C19.5239,36.1358 19.3389,35.8788 19.3839,35.6068 L22.6299,15.6468 C22.6749,15.3728 22.9359,15.1888 23.2029,15.2338 Z M28.0688,17.7029 L35.8148,25.4479 C35.9078,25.5419 35.9608,25.6689 35.9608,25.8019 C35.9608,25.9339 35.9078,26.0609 35.8148,26.1549 L28.0688,33.9009 C27.9708,33.9979 27.8428,34.0469 27.7148,34.0469 C27.5868,34.0469 27.4588,33.9979 27.3608,33.9009 C27.1658,33.7049 27.1658,33.3889 27.3608,33.1929 L34.7538,25.8019 L27.3608,18.4099 C27.1658,18.2139 27.1658,17.8979 27.3608,17.7029 C27.5568,17.5069 27.8728,17.5069 28.0688,17.7029 Z M15.6382,17.7029 C15.8332,17.8979 15.8332,18.2139 15.6382,18.4099 L8.2462,25.8019 L15.6382,33.1929 C15.8332,33.3889 15.8332,33.7049 15.6382,33.9009 C15.5402,33.9979 15.4122,34.0469 15.2842,34.0469 C15.1562,34.0469 15.0282,33.9979 14.9302,33.9009 L7.1852,26.1549 C6.9902,25.9599 6.9902,25.6429 7.1852,25.4479 L14.9302,17.7029 C15.1262,17.5069 15.4422,17.5069 15.6382,17.7029 Z M39.0953,1 L3.9033,1 C2.3023,1 1.0003,2.303 1.0003,3.904 L1,8.907 L42,8.907 L42.0003,3.904 C42.0003,2.303 40.6973,1 39.0953,1 Z M6.2881,2.5017 C7.6411,2.5017 8.7401,3.6017 8.7401,4.9537 C8.7401,6.3057 7.6411,7.4057 6.2881,7.4057 C4.9351,7.4057 3.8361,6.3057 3.8361,4.9537 C3.8361,3.6017 4.9351,2.5017 6.2881,2.5017 Z M12.5762,2.5017 C13.9292,2.5017 15.0282,3.6017 15.0282,4.9537 C15.0282,6.3057 13.9292,7.4057 12.5762,7.4057 C11.2232,7.4057 10.1242,6.3057 10.1242,4.9537 C10.1242,3.6017 11.2232,2.5017 12.5762,2.5017 Z M18.8633,2.5017 C20.2163,2.5017 21.3153,3.6017 21.3153,4.9537 C21.3153,6.3057 20.2163,7.4057 18.8633,7.4057 C17.5113,7.4057 16.4123,6.3057 16.4123,4.9537 C16.4123,3.6017 17.5113,2.5017 18.8633,2.5017 Z M6.2881,3.5017 C5.4871,3.5017 4.8361,4.1527 4.8361,4.9537 C4.8361,5.7537 5.4871,6.4057 6.2881,6.4057 C7.0891,6.4057 7.7401,5.7537 7.7401,4.9537 C7.7401,4.1527 7.0891,3.5017 6.2881,3.5017 Z M12.5762,3.5017 C11.7752,3.5017 11.1242,4.1527 11.1242,4.9537 C11.1242,5.7537 11.7752,6.4057 12.5762,6.4057 C13.3772,6.4057 14.0282,5.7537 14.0282,4.9537 C14.0282,4.1527 13.3772,3.5017 12.5762,3.5017 Z M18.8633,3.5017 C18.0633,3.5017 17.4123,4.1527 17.4123,4.9537 C17.4123,5.7537 18.0633,6.4057 18.8633,6.4057 C19.6643,6.4057 20.3153,5.7537 20.3153,4.9537 C20.3153,4.1527 19.6643,3.5017 18.8633,3.5017 Z" id="Combined-Shape"></path>
      </g>
    </g>
  </g>
</svg>
