<?xml version="1.0" encoding="UTF-8"?>
<svg xmlns="http://www.w3.org/2000/svg" xmlns:xlink="http://www.w3.org/1999/xlink" width="44px" height="43px" viewBox="0 0 44 43" version="1.1">
  <title>Nav Icon - Council</title>
  <defs>
    <linearGradient x1="0.0324066052%" y1="-2.1297453e-14%" x2="99.9675934%" y2="100%" id="linearGradient-1">
      <stop stop-color="#2D84EB" offset="0%"></stop>
      <stop stop-color="#D173DE" offset="100%"></stop>
    </linearGradient>
  </defs>
  <g id="Homepage" stroke="none" stroke-width="1" fill="none" fill-rule="evenodd">
    <g id="Main-Nav---2-Copy" transform="translate(-693.000000, -367.000000)" fill="url(#linearGradient-1)">
      <g id="Nav-Icon---Council" transform="translate(693.325739, 367.000000)">
        <path d="M40.1954927,24.4972441 C39.0594927,25.8042441 38.4494927,26.2322441 38.1064927,26.3602441 L37.9104927,26.1892441 L37.5644927,25.8882441 L41.2544927,21.6422441 L41.5924927,21.9362441 C41.5924927,21.9372441 41.5934927,21.9372441 41.5934927,21.9372441 L41.8134927,22.1772441 C41.7104927,22.4672441 41.3614927,23.1542441 40.1954927,24.4972441 L40.1954927,24.4972441 Z M32.3234927,32.3752441 C31.1004927,33.5982441 30.4604927,33.9852441 30.1114927,34.0892441 L29.9274927,33.9052441 C29.9274927,33.9052441 29.9274927,33.9052441 29.9274927,33.9052441 C29.9274927,33.9042441 29.9274927,33.9042441 29.9264927,33.9042441 L29.6014927,33.5792441 L33.5804927,29.6022441 L33.8954927,29.9172441 C33.8964927,29.9182441 33.8964927,29.9182441 33.8964927,29.9192441 L34.0994927,30.1742441 C33.9754927,30.4562441 33.5794927,31.1192441 32.3234927,32.3752441 L32.3234927,32.3752441 Z M24.4974927,40.1942441 C23.1554927,41.3602441 22.4674927,41.7092441 22.1064927,41.7882441 L21.9374927,41.5942441 C21.9374927,41.5942441 21.9374927,41.5932441 21.9364927,41.5922441 L21.6424927,41.2542441 L25.8874927,37.5642441 L26.1864927,37.9072441 C26.1874927,37.9082441 26.1874927,37.9092441 26.1884927,37.9102441 L26.3724927,38.1852441 C26.2324927,38.4482441 25.8034927,39.0582441 24.4974927,40.1942441 L24.4974927,40.1942441 Z M20.8834927,40.5892441 C20.7284927,40.7242441 20.6434927,40.9032441 20.6084927,41.0892441 L18.1014927,38.1982441 C19.8264927,36.8882441 21.6304927,35.4012441 23.4774927,33.7642441 L25.8704927,36.5162441 C25.6804927,36.5262441 25.4904927,36.5852441 25.3344927,36.7202441 L20.8834927,40.5892441 Z M28.7994927,32.9682441 C28.6584927,33.1092441 28.5824927,33.2962441 28.5594927,33.4902441 L26.2744927,31.2052441 C27.8024927,29.7582441 28.7604927,28.7712441 28.7594927,28.7712441 C28.7704927,28.7612441 29.7574927,27.8022441 31.2054927,26.2752441 L33.4854927,28.5552441 C33.2934927,28.5792441 33.1094927,28.6582441 32.9684927,28.7992441 L28.7994927,32.9682441 Z M14.9434927,39.2532441 C14.3534927,39.6562441 13.5604927,39.5862441 13.0584927,39.0842441 L11.2674927,37.2932441 L5.63249266,31.6572441 L3.77749266,29.8022441 C3.27549266,29.3012441 3.20449266,28.5082441 3.60849266,27.9182441 C4.09549266,27.2052441 4.60549266,26.4982441 5.12449266,25.8012441 C5.12449266,25.8012441 5.12549266,25.8012441 5.12549266,25.8012441 C6.58049266,23.8552441 8.27649266,21.7952441 10.1674927,19.6802441 C10.1674927,19.6802441 10.1674927,19.6802441 10.1684927,19.6792441 C10.8344927,18.9342441 11.4634927,18.2512441 12.0294927,17.6462441 C12.0294927,17.6462441 12.0304927,17.6462441 12.0304927,17.6462441 C13.6554927,15.9162441 14.7864927,14.8202441 14.8084927,14.7972441 C14.8194927,14.7862441 15.9164927,13.6552441 17.6454927,12.0312441 C18.2494927,11.4652441 18.9294927,10.8382441 19.6744927,10.1732441 C19.6744927,10.1732441 19.6744927,10.1732441 19.6744927,10.1722441 C19.6754927,10.1722441 19.6754927,10.1722441 19.6754927,10.1722441 C19.6764927,10.1702441 19.6784927,10.1692441 19.6794927,10.1682441 C21.7934927,8.2782441 23.8524927,6.5822441 25.8014927,5.1252441 C26.4984927,4.6042441 27.2064927,4.0952441 27.9184927,3.6082441 C28.5084927,3.2052441 29.3014927,3.2762441 29.8024927,3.7772441 L31.6334927,5.6082441 L37.2694927,11.2442441 L39.0844927,13.0592441 C39.5854927,13.5602441 39.6614927,14.3462441 39.2644927,14.9272441 C38.7664927,15.6562441 38.2464927,16.3792441 37.7134927,17.0912441 C36.2594927,19.0332441 34.5684927,21.0852441 32.6844927,23.1922441 C32.6844927,23.1932441 32.6844927,23.1932441 32.6834927,23.1942441 C32.6824927,23.1952441 32.6814927,23.1962441 32.6804927,23.1972441 C32.0174927,23.9372441 31.3944927,24.6152441 30.8314927,25.2162441 C29.2064927,26.9462441 28.0754927,28.0422441 28.0524927,28.0642441 C28.0424927,28.0762441 26.9454927,29.2062441 25.2164927,30.8302441 C25.2164927,30.8302441 25.2164927,30.8302441 25.2164927,30.8302441 C24.6144927,31.3932441 23.9374927,32.0182441 23.1974927,32.6792441 C23.1974927,32.6792441 23.1974927,32.6792441 23.1974927,32.6802441 C23.1974927,32.6802441 23.1974927,32.6802441 23.1964927,32.6802441 C23.1954927,32.6822441 23.1944927,32.6832441 23.1924927,32.6842441 C21.0864927,34.5682441 19.0334927,36.2592441 17.0914927,37.7122441 C17.0904927,37.7132441 17.0904927,37.7132441 17.0904927,37.7132441 C16.3844927,38.2422441 15.6664927,38.7592441 14.9434927,39.2532441 L14.9434927,39.2532441 Z M4.89749266,37.9762441 C3.67449266,36.7512441 3.28849266,36.1122441 3.18549266,35.7632441 L3.37049266,35.5792441 C3.37049266,35.5792441 3.37049266,35.5792441 3.37049266,35.5782441 L3.69549266,35.2542441 L7.67249266,39.2302441 L7.35449266,39.5482441 L7.09849266,39.7512441 C6.81649266,39.6272441 6.15449266,39.2322441 4.89749266,37.9762441 L4.89749266,37.9762441 Z M8.47449266,38.6192441 L4.30649266,34.4512441 C4.16049266,34.3052441 3.97549266,34.2332441 3.78649266,34.2102441 L5.27949266,32.7182441 L10.2074927,37.6462441 L8.71449266,39.1392441 C8.69249266,38.9512441 8.62049266,38.7662441 8.47449266,38.6192441 L8.47449266,38.6192441 Z M2.80249266,18.5012441 C3.93949266,17.1952441 4.54949266,16.7662441 4.89149266,16.6382441 L5.08849266,16.8092441 L5.43349266,17.1102441 L1.74349266,21.3562441 L1.40549266,21.0622441 C1.40549266,21.0622441 1.40549266,21.0622441 1.40549266,21.0612441 L1.18449266,20.8222441 C1.28949266,20.5302441 1.63949266,19.8402441 2.80249266,18.5012441 L2.80249266,18.5012441 Z M4.65149266,24.7762441 L1.91049266,22.3932441 C2.10249266,22.3562441 2.27949266,22.2642441 2.40949266,22.1142441 L6.27649266,17.6652441 C6.40749266,17.5162441 6.47049266,17.3232441 6.48149266,17.1282441 L9.08749266,19.3942441 C7.44849266,21.2452441 5.96149266,23.0502441 4.65149266,24.7762441 L4.65149266,24.7762441 Z M10.6224927,10.6752441 C11.8804927,9.4182441 12.5424927,9.0222441 12.8954927,8.9182441 L13.0794927,9.1012441 C13.0804927,9.1022441 13.0814927,9.1022441 13.0824927,9.1032441 L13.3964927,9.4182441 L9.41849266,13.3962441 L9.09449266,13.0722441 C9.09449266,13.0722441 9.09449266,13.0712441 9.09349266,13.0712441 L8.89249266,12.8102441 C9.01349266,12.5382441 9.39849266,11.8992441 10.6224927,10.6752441 L10.6224927,10.6752441 Z M11.6564927,16.5872441 L9.50849266,14.4382441 C9.69649266,14.4162441 9.88249266,14.3452441 10.0294927,14.1992441 L14.1994927,10.0292441 C14.3454927,9.8842441 14.4174927,9.6992441 14.4404927,9.5102441 L16.5864927,11.6572441 C15.0594927,13.1032441 14.1004927,14.0902441 14.1014927,14.0902441 C14.0914927,14.1002441 13.1034927,15.0592441 11.6564927,16.5872441 L11.6564927,16.5872441 Z M18.5014927,2.8032441 C19.8414927,1.6392441 20.5304927,1.2892441 20.8914927,1.2102441 L21.0614927,1.4042441 C21.0614927,1.4042441 21.0614927,1.4052441 21.0614927,1.4052441 L21.3564927,1.7442441 L17.1104927,5.4342441 L16.8084927,5.0882441 L16.6264927,4.8122441 C16.7654927,4.5502441 17.1934927,3.9402441 18.5014927,2.8032441 L18.5014927,2.8032441 Z M19.3944927,9.0882441 L17.1334927,6.4872441 C17.3214927,6.4772441 17.5094927,6.4122441 17.6644927,6.2782441 L22.1154927,2.4092441 C22.2704927,2.2732441 22.3554927,2.0932441 22.3904927,1.9082441 L24.7764927,4.6512441 C23.0494927,5.9622441 21.2434927,7.4502441 19.3944927,9.0882441 L19.3944927,9.0882441 Z M37.8524927,5.0772441 C39.0754927,6.3002441 39.4614927,6.9402441 39.5634927,7.2902441 L39.3804927,7.4752441 C39.3794927,7.4752441 39.3794927,7.4752441 39.3794927,7.4752441 L39.0554927,7.7992441 L35.0794927,3.8222441 L35.3964927,3.5052441 L35.6514927,3.3012441 C35.9344927,3.4262441 36.5964927,3.8222441 37.8524927,5.0772441 L37.8524927,5.0772441 Z M34.2764927,4.4342441 L38.4444927,8.6012441 C38.5904927,8.7482441 38.7764927,8.8192441 38.9654927,8.8412441 L37.6234927,10.1832441 L32.6944927,5.2552441 L34.0354927,3.9142441 C34.0584927,4.1022441 34.1304927,4.2882441 34.2764927,4.4342441 L34.2764927,4.4342441 Z M36.7194927,25.3352441 C36.5904927,25.4852441 36.5284927,25.6762441 36.5184927,25.8702441 L33.7654927,23.4772441 C35.4034927,21.6282441 36.8924927,19.8222441 38.2014927,18.0972441 L41.0874927,20.6052441 C40.8964927,20.6432441 40.7184927,20.7332441 40.5894927,20.8842441 L36.7194927,25.3352441 Z M42.5964927,20.5922441 L38.7994927,17.2912441 C39.2394927,16.6962441 39.6764927,16.0972441 40.0914927,15.4912441 C40.7574927,14.5132441 40.6324927,13.1932441 39.7914927,12.3512441 L38.3304927,10.8902441 L40.4674927,8.7532441 C40.6884927,8.5322441 40.8104927,8.2382441 40.8104927,7.9252441 C40.8104927,7.6952441 40.7174927,7.4792441 40.5744927,7.2702441 C40.5794927,7.1132441 40.5624927,6.9552441 40.4964927,6.8062441 C40.2314927,6.2092441 39.5804927,5.3902441 38.5594927,4.3702441 C37.5134927,3.3242441 36.6714927,2.6572441 36.0544927,2.3862441 C35.9174927,2.3262441 35.7714927,2.3082441 35.6254927,2.3102441 C35.1734927,1.9932441 34.5214927,2.0132441 34.1264927,2.4102441 L31.9874927,4.5482441 L30.5094927,3.0702441 C29.6674927,2.2282441 28.3384927,2.1082441 27.3534927,2.7822441 C26.7574927,3.1902441 26.1674927,3.6212441 25.5804927,4.0532441 L22.4064927,0.401244097 C22.2014927,0.165244097 21.9174927,0.0232440971 21.6044927,0.00224409707 C21.3584927,-0.0147559029 21.1234927,0.0662440971 20.9134927,0.197244097 C20.7684927,0.186244097 20.6224927,0.193244097 20.4834927,0.243244097 C19.8474927,0.472244097 18.9604927,1.0792441 17.8444927,2.0492441 C16.7554927,2.9972441 16.0484927,3.7692441 15.7434927,4.3442441 C15.6684927,4.4862441 15.6394927,4.6382441 15.6314927,4.7902441 C15.4774927,4.9762441 15.3674927,5.1932441 15.3504927,5.4392441 C15.3294927,5.7502441 15.4294927,6.0512441 15.6344927,6.2872441 L18.6484927,9.7532441 C18.1744927,10.1802441 17.7304927,10.5872441 17.3164927,10.9732441 L14.3494927,8.0062441 C13.9564927,7.6132441 13.3484927,7.5272441 12.8284927,7.9062441 C12.6894927,7.9072441 12.5514927,7.9262441 12.4224927,7.9822441 C11.8064927,8.2532441 10.9634927,8.9212441 9.91549266,9.9682441 C8.89449266,10.9892441 8.24349266,11.8092441 7.97949266,12.4022441 C7.91449266,12.5472441 7.89649266,12.7022441 7.90049266,12.8562441 C7.57549266,13.3132441 7.59749266,13.9422441 8.00649266,14.3502441 L10.9724927,17.3172441 C10.5874927,17.7302441 10.1804927,18.1742441 9.75349266,18.6472441 L6.28749266,15.6352441 C6.05149266,15.4292441 5.73449266,15.3302441 5.43949266,15.3512441 C5.20949266,15.3672441 4.99949266,15.4752441 4.80049266,15.6332441 C4.64349266,15.6392441 4.48649266,15.6672441 4.34349266,15.7432441 C3.76849266,16.0492441 2.99649266,16.7562441 2.04849266,17.8452441 C1.07949266,18.9602441 0.471492661,19.8482441 0.243492661,20.4832441 C0.193492661,20.6222441 0.185492661,20.7682441 0.196492661,20.9122441 C0.0654926613,21.1202441 -0.0155073387,21.3552441 0.00249266126,21.6052441 C0.0234926613,21.9172441 0.166492661,22.2012441 0.401492661,22.4052441 L4.05349266,25.5802441 C3.62049266,26.1672441 3.19049266,26.7572441 2.78249266,27.3532441 C2.10749266,28.3412441 2.22849266,29.6682441 3.07049266,30.5092441 L4.57249266,32.0112441 L2.28249266,34.3012441 C1.89149266,34.6922441 1.85949266,35.2882441 2.17649266,35.7742441 C2.16949266,35.9342441 2.18649266,36.0962441 2.25449266,36.2462441 C2.51849266,36.8412441 3.17049266,37.6612441 4.19049266,38.6832441 C5.23749266,39.7292441 6.08149266,40.3972441 6.69649266,40.6662441 C6.83049266,40.7262441 6.97249266,40.7542441 7.11649266,40.7542441 C7.12249266,40.7542441 7.12749266,40.7512441 7.13349266,40.7512441 C7.32949266,40.8912441 7.55249266,40.9852441 7.79849266,40.9852441 C8.11049266,40.9852441 8.40349266,40.8642441 8.62549266,40.6432441 L10.9144927,38.3532441 L12.3514927,39.7912441 C12.8294927,40.2682441 13.4634927,40.5142441 14.1024927,40.5142441 C14.5904927,40.5142441 15.0804927,40.3712441 15.5084927,40.0792441 C16.1094927,39.6682441 16.7014927,39.2352441 17.2914927,38.7992441 L20.5914927,42.5962441 C20.7974927,42.8322441 21.0814927,42.9752441 21.3934927,42.9962441 C21.4214927,42.9982441 21.4484927,42.9992441 21.4764927,42.9992441 C21.6984927,42.9992441 21.9064927,42.9202441 22.0944927,42.8002441 C22.1184927,42.8022441 22.1404927,42.8152441 22.1654927,42.8152441 C22.2824927,42.8152441 22.4004927,42.7962441 22.5144927,42.7552441 C23.1484927,42.5282441 24.0364927,41.9202441 25.1534927,40.9492441 C26.2434927,40.0022441 26.9504927,39.2292441 27.2554927,38.6542441 C27.3294927,38.5142441 27.3584927,38.3612441 27.3654927,38.2082441 C27.7204927,37.7762441 27.7424927,37.1472441 27.3634927,36.7102441 L24.2244927,33.0992441 C24.6944927,32.6752441 25.1344927,32.2712441 25.5444927,31.8892441 L28.6474927,34.9922441 C28.8754927,35.2202441 29.1744927,35.3342441 29.4734927,35.3342441 C29.7074927,35.3342441 29.9324927,35.2432441 30.1324927,35.1032441 C30.1444927,35.1042441 30.1544927,35.1102441 30.1664927,35.1102441 C30.3114927,35.1102441 30.4574927,35.0802441 30.5934927,35.0192441 C31.1914927,34.7542441 32.0104927,34.1022441 33.0304927,33.0822441 C34.0764927,32.0362441 34.7444927,31.1932441 35.0154927,30.5762441 C35.0754927,30.4402441 35.0924927,30.2962441 35.0914927,30.1522441 C35.4234927,29.6952441 35.4034927,29.0602441 34.9924927,28.6482441 L31.8894927,25.5452441 C32.2714927,25.1342441 32.6754927,24.6942441 33.0994927,24.2242441 L36.7114927,27.3632441 C36.9304927,27.5552441 37.2044927,27.6492441 37.4764927,27.6492441 C37.7334927,27.6492441 37.9764927,27.5412441 38.1864927,27.3762441 C38.3464927,27.3712441 38.5064927,27.3342441 38.6544927,27.2552441 C39.2304927,26.9502441 40.0034927,26.2432441 40.9504927,25.1532441 C41.9214927,24.0342441 42.5284927,23.1462441 42.7554927,22.5152441 C42.8054927,22.3752441 42.8124927,22.2292441 42.8014927,22.0852441 C43.1004927,21.6052441 43.0364927,20.9732441 42.5964927,20.5922441 L42.5964927,20.5922441 Z" id="Fill-1"></path>
      </g>
    </g>
  </g>
</svg>
