<?xml version="1.0" encoding="UTF-8"?>
<svg xmlns="http://www.w3.org/2000/svg" xmlns:xlink="http://www.w3.org/1999/xlink" width="43px" height="44px" viewBox="0 0 43 44" version="1.1">
  <title>Group 7 Copy 2</title>
  <defs>
    <linearGradient x1="-1.2503923e-12%" y1="-2.1297453e-14%" x2="100%" y2="100%" id="linearGradient-1">
      <stop stop-color="#2D84EB" offset="0%"></stop>
      <stop stop-color="#D173DE" offset="100%"></stop>
    </linearGradient>
  </defs>
  <g id="Homepage" stroke="none" stroke-width="1" fill="none" fill-rule="evenodd">
    <g id="Group-7-Copy-2" transform="translate(0.000000, 0.500000)" fill="url(#linearGradient-1)">
      <path d="M21.5,0 C26.979,0 32.162,2.062 36.156,5.793 C36.633,5.495 37.192,5.315 37.795,5.315 C39.512,5.315 40.909,6.712 40.909,8.429 C40.909,9.273 40.569,10.037 40.022,10.599 C41.966,13.896 43,17.652 43,21.5 C43,33.355 33.355,43 21.5,43 C14.829,43 8.483,39.847 4.428,34.555 C4.051,34.718 3.637,34.809 3.201,34.809 C1.484,34.809 0.087,33.412 0.087,31.695 C0.087,30.642 0.616,29.713 1.419,29.149 C0.487,26.707 0,24.138 0,21.5 C0,9.645 9.645,0 21.5,0 Z M21.5,1 C10.196,1 1,10.196 1,21.5 C1,23.99 1.458,26.414 2.328,28.721 C2.607,28.639 2.896,28.581 3.201,28.581 C4.918,28.581 6.315,29.978 6.315,31.695 C6.315,32.616 5.906,33.436 5.269,34.006 C9.137,39.017 15.165,42 21.5,42 C32.804,42 42,32.804 42,21.5 C42,17.863 41.029,14.312 39.208,11.189 C38.782,11.408 38.306,11.544 37.795,11.544 C36.078,11.544 34.681,10.147 34.681,8.429 C34.681,7.679 34.958,6.999 35.403,6.46 C31.603,2.945 26.692,1 21.5,1 Z M21.5001,7.9296 C28.9821,7.9296 35.0701,14.0166 35.0701,21.4996 C35.0701,27.7966 30.6891,33.2766 24.6011,34.7016 C24.5311,36.3566 23.1721,37.6846 21.5001,37.6846 C19.8281,37.6846 18.4691,36.3566 18.3991,34.7016 C12.3101,33.2766 7.9301,27.7966 7.9301,21.4996 C7.9301,14.0166 14.0181,7.9296 21.5001,7.9296 Z M21.5001,32.4566 C20.3341,32.4566 19.3861,33.4046 19.3861,34.5706 C19.3861,35.7366 20.3341,36.6846 21.5001,36.6846 C22.6661,36.6846 23.6141,35.7366 23.6141,34.5706 C23.6141,33.4046 22.6661,32.4566 21.5001,32.4566 Z M3.201,29.581 C2.035,29.581 1.087,30.529 1.087,31.695 C1.087,32.861 2.035,33.809 3.201,33.809 C4.367,33.809 5.315,32.861 5.315,31.695 C5.315,30.529 4.367,29.581 3.201,29.581 Z M21.5001,8.9296 C14.5681,8.9296 8.9301,14.5686 8.9301,21.4996 C8.9301,27.2976 12.9391,32.3456 18.5241,33.7036 C18.9021,32.4106 20.0861,31.4566 21.5001,31.4566 C22.9141,31.4566 24.0981,32.4106 24.4761,33.7036 C30.0611,32.3456 34.0701,27.2976 34.0701,21.4996 C34.0701,14.5686 28.4321,8.9296 21.5001,8.9296 Z M21.5,15.7723 C24.659,15.7723 27.229,18.3413 27.229,21.5003 C27.229,24.6583 24.659,27.2283 21.5,27.2283 C18.341,27.2283 15.771,24.6583 15.771,21.5003 C15.771,18.3413 18.341,15.7723 21.5,15.7723 Z M21.5,16.7723 C18.893,16.7723 16.771,18.8933 16.771,21.5003 C16.771,24.1073 18.893,26.2283 21.5,26.2283 C24.107,26.2283 26.229,24.1073 26.229,21.5003 C26.229,18.8933 24.107,16.7723 21.5,16.7723 Z M37.795,6.315 C36.629,6.315 35.681,7.264 35.681,8.429 C35.681,9.595 36.629,10.544 37.795,10.544 C38.961,10.544 39.909,9.595 39.909,8.429 C39.909,7.264 38.961,6.315 37.795,6.315 Z" id="Combined-Shape"></path>
    </g>
  </g>
</svg>
