<?xml version="1.0" encoding="UTF-8"?>
<svg xmlns="http://www.w3.org/2000/svg" xmlns:xlink="http://www.w3.org/1999/xlink" width="40px" height="41px" viewBox="0 0 40 41" version="1.1">
  <title>Nav Icon - Guardian - Blue-hvr</title>
  <defs>
    <linearGradient x1="-1.2503923e-12%" y1="-2.1297453e-14%" x2="100%" y2="100%" id="linearGradient-1">
      <stop stop-color="#2D84EB" offset="0%"></stop>
      <stop stop-color="#D173DE" offset="100%"></stop>
    </linearGradient>
  </defs>
  <g id="Homepage" stroke="none" stroke-width="1" fill="none" fill-rule="evenodd">
    <g id="Nav-Icon---Guardian---Blue" transform="translate(-0.000000, 0.499953)" fill="url(#linearGradient-1)">
      <path d="M23.4837755,38.735904 C25.8586648,36.9656674 27.7721576,33.4298452 28.8614625,28.8614625 C33.4298452,27.7712274 36.9656674,25.8577346 38.735904,23.4837755 C37.3024123,31.2075144 31.2075144,37.3024123 23.4837755,38.735904 M1.26418899,23.4837755 C3.03628613,25.8605253 6.57675948,27.7749483 11.1525841,28.8642532 C12.2790983,33.5303105 14.1925911,36.9926442 16.5014337,38.7340436 C8.78420647,37.2949705 2.69675046,31.2028633 1.26418899,23.4837755 M16.5163175,1.26418899 C14.1414282,3.03442566 12.2279354,6.57024784 11.1386306,11.1386306 C6.57024784,12.2288656 3.03442566,14.1414282 1.26418899,16.5163175 C2.69768069,8.79257859 8.79257859,2.69768069 16.5163175,1.26418899 M38.735904,16.5163175 C36.9647371,14.1395678 33.4233335,12.2251447 28.8484392,11.1358399 C27.7219249,6.46978249 25.8075019,3.00744885 23.4986593,1.26604946 C31.2158865,2.70512257 37.3033426,8.79722976 38.735904,16.5163175 M20.0000465,0.930234721 C23.2316819,0.930234721 26.259596,4.82047633 27.8289019,10.89863 C25.435408,10.4093265 22.7935414,10.1404887 20.0000465,10.1404887 C17.20004,10.1404887 14.552592,10.4102568 12.1544469,10.9014207 C13.6697992,4.96652318 16.6186433,0.930234721 20.0000465,0.930234721 M20.0000465,39.0698583 C16.7684111,39.0698583 13.7404971,35.1796167 12.1721213,29.101463 C14.5656153,29.5898363 17.2065516,29.8596043 20.0000465,29.8596043 C22.800053,29.8596043 25.4484313,29.5898363 27.8456462,29.0986723 C26.3302938,35.0335698 23.38238,39.0698583 20.0000465,39.0698583 M29.8605346,20.0000465 L29.8605346,18.6642295 L33.1814725,21.9860976 C33.2726355,22.0772606 33.3917056,22.1219119 33.5107756,22.1219119 C33.6289154,22.1219119 33.7479855,22.0772606 33.8391485,21.9860976 C34.0205442,21.8047019 34.0205442,21.5098175 33.8391485,21.3284217 L29.7247203,17.2130633 C29.6819295,17.1702725 29.6298363,17.1358538 29.573092,17.1125979 C29.4596034,17.065156 29.331231,17.065156 29.2177424,17.1125979 C29.1600678,17.1358538 29.1089049,17.1702725 29.0661141,17.2130633 L24.9498255,21.3284217 C24.7684297,21.5098175 24.7684297,21.8047019 24.9498255,21.9860976 C25.1321515,22.1674934 25.4261056,22.1674934 25.6075014,21.9860976 L28.9302998,18.6642295 L28.9302998,20.0000465 C28.9302998,22.8893556 28.6186712,25.6205247 28.0772746,28.0772746 C25.6214549,28.617741 22.8902858,28.9293696 20.0000465,28.9293696 C9.48467322,28.9293696 0.930234721,24.9237789 0.930234721,20.0000465 C0.930234721,16.6177131 4.96652318,13.6697992 10.9014207,12.1544469 C10.4102568,14.552592 10.1404887,17.20004 10.1404887,20.0000465 L10.1404887,21.3349333 L6.81862051,18.0139954 C6.63722474,17.8325996 6.34234033,17.8325996 6.16094456,18.0139954 C5.97954879,18.1953912 5.97954879,18.4902756 6.16094456,18.6716713 L10.276303,22.7870297 C10.3190938,22.8298205 10.3702567,22.8642392 10.4279312,22.8874951 C10.4846755,22.910751 10.5442106,22.922844 10.6056061,22.922844 C10.6660713,22.922844 10.7256063,22.910751 10.7823507,22.8874951 C10.8400252,22.8642392 10.8911881,22.8298205 10.9349092,22.7870297 L15.0502676,18.6716713 C15.2316633,18.4902756 15.2316633,18.1953912 15.0502676,18.0139954 C14.8688718,17.8325996 14.5739874,17.8325996 14.3925916,18.0139954 L11.0707234,21.3349333 L11.0707234,20.0000465 C11.0707234,17.1107375 11.3814218,14.3795683 11.9228184,11.9228184 C14.3795683,11.3814218 17.1107375,11.0707234 20.0000465,11.0707234 C30.5154198,11.0707234 39.0698583,15.0763141 39.0698583,20.0000465 C39.0698583,23.3814497 35.0335698,26.3302938 29.0986723,27.8456462 C29.5898363,25.447501 29.8605346,22.7991228 29.8605346,20.0000465 M20.0000465,0 C8.97211389,0 0,8.97211389 0,20.0000465 C0,31.0279791 8.97211389,40.000093 20.0000465,40.000093 C31.0289094,40.000093 40.000093,31.0279791 40.000093,20.0000465 C40.000093,8.97211389 31.0289094,0 20.0000465,0" id="Fill-1"></path>
    </g>
  </g>
</svg>
