<?xml version="1.0" encoding="UTF-8"?>
<svg xmlns="http://www.w3.org/2000/svg" xmlns:xlink="http://www.w3.org/1999/xlink" width="47px" height="44px" viewBox="0 0 47 44" version="1.1">
  <title>Group 17</title>
  <defs>
    <linearGradient x1="-1.2503923e-12%" y1="5.59635222%" x2="100%" y2="94.4036478%" id="linearGradient-1">
      <stop stop-color="#2D84EB" offset="0%"></stop>
      <stop stop-color="#D173DE" offset="100%"></stop>
    </linearGradient>
  </defs>
  <g id="Homepage" stroke="none" stroke-width="1" fill="none" fill-rule="evenodd">
    <g id="Group-17" fill="url(#linearGradient-1)" fill-rule="nonzero">
      <path d="M16.705,0 C24.8749996,0 31.7757353,2.12607641 33.1575477,5.14234533 C34.0281625,4.85712553 34.9579001,4.7028 35.9225,4.7028 C40.8404707,4.7028 44.8515,8.71448595 44.8515,13.6328 L44.851,17.12 L46.1908,17.1208 C46.4669424,17.1208 46.6908,17.3446576 46.6908,17.6208 L46.6908,24.5408 C46.6908,30.4641051 41.8457797,35.3088 35.9218,35.3088 C35.0609156,35.3088 34.2228093,35.2064551 33.4190457,35.0133296 L33.4196,37.7293 C33.4196,41.2800157 26.1487811,43.9216478 17.120029,43.998575 L16.7146,44.0003 C7.49887657,44.0003 0.0086,41.3329545 0.0086,37.7293 L0.0086,27.7143 C0.0086,27.6662909 0.0153663164,27.6198622 0.0279973382,27.5759155 C0.015732006,27.4697442 0.009,27.362543 0.009,27.2545 L0.009,17.2395 C0.009,17.1872667 0.0170094072,17.1369041 0.0318670636,17.0895734 C0.016899715,16.9738557 0.0087,16.8556405 0.0087,16.7364 L0.0087,6.7214 C0.0087,6.68205422 0.0132446665,6.64376991 0.0218377,6.60704336 C0.00744835033,6.49645172 0,6.38418158 0,6.271 C0,2.67546897 7.51293954,0 16.705,0 Z M1.00781116,29.4502173 L1.0086,37.7293 C1.0086,40.4571057 7.81615606,42.9232954 16.3149976,42.9985326 L16.7146,43.0003 C25.3984658,43.0003 32.4196,40.4998066 32.4196,37.7293 L32.4195258,34.7207962 C30.7479644,34.1415176 29.2599931,33.1602527 28.0726948,31.8940845 L28.005631,31.9223332 C24.9633144,32.947268 20.9640537,33.5255 16.714,33.5255 C9.49792416,33.5255 3.34016139,31.8900687 1.00781116,29.4502173 Z M45.6908,18.1208 L26.1538,18.1208 L26.1538,24.5408 C26.1538,29.8206261 30.4031499,34.1594646 35.6495614,34.3050271 L35.9218,34.3088 C41.29351,34.3088 45.6908,29.9118053 45.6908,24.5408 L45.6908,18.1208 Z M1.00823415,18.9328734 L1.009,27.2545 C1.009,30.0250066 8.03013421,32.5255 16.714,32.5255 C20.7182687,32.5255 24.4852639,32.0007828 27.3800694,31.0751991 C25.984103,29.2601126 25.1538,26.9928536 25.1538,24.5408 L25.154614,22.1751832 C22.626404,22.7167256 19.7303336,23.0074 16.7137,23.0074 C9.49836966,23.0074 3.34113373,21.3723066 1.00823415,18.9328734 Z M35.9222,24.8145 C36.1983424,24.8145 36.4222,25.0383576 36.4222,25.3145 L36.4222,28.2535 C36.4222,28.5296424 36.1983424,28.7535 35.9222,28.7535 C35.6460576,28.7535 35.4222,28.5296424 35.4222,28.2535 L35.4222,25.3145 C35.4222,25.0383576 35.6460576,24.8145 35.9222,24.8145 Z M1.00795509,8.46976902 L1.0087,16.7364 C1.0087,19.5069066 8.02983421,22.0074 16.7137,22.0074 C19.7464388,22.0074 22.6498826,21.7071958 25.1552787,21.1515672 L25.1538,17.6208 C25.1538,17.3446576 25.3776576,17.1208 25.6538,17.1208 L26.992,17.12 L26.9925,13.6328 C26.9925,12.7672621 27.1167555,11.9297937 27.3483387,11.1373225 C24.3927281,12.0374642 20.6517356,12.541 16.705,12.541 C9.51428787,12.541 3.35069843,10.9036933 1.00795509,8.46976902 Z M35.9225,5.7028 C31.5566424,5.7028 27.9925,9.26694237 27.9925,13.6328 L27.992,17.12 L32.68,17.12 L32.6802,13.6322 C32.6802,11.8537413 34.1433738,10.3902 35.9222,10.3902 C37.7003424,10.3902 39.1642,11.8540576 39.1642,13.6322 L39.164,17.12 L43.851,17.12 L43.8515,13.6328 C43.8515,9.26673406 40.2881493,5.7028 35.9225,5.7028 Z M35.9222,11.3902 C34.6957148,11.3902 33.6802,12.4059699 33.6802,13.6322 L33.68,17.12 L38.164,17.12 L38.1642,13.6322 C38.1642,12.4063424 37.1480576,11.3902 35.9222,11.3902 Z M16.705,1 C8.04461218,1 1,3.50869067 1,6.271 C1,9.03244899 8.04506241,11.541 16.705,11.541 C20.8462338,11.541 24.7458384,10.9741519 27.6860302,9.98128101 C27.7190641,9.97012586 27.7524499,9.96261859 27.7857502,9.9585425 C28.6781935,7.99311485 30.2637397,6.40359947 32.2271624,5.50572953 C31.0746945,3.07559553 24.7203112,1.07143177 17.1136205,1.00186737 L16.705,1 Z" id="Combined-Shape"></path>
    </g>
  </g>
</svg>
