<?xml version="1.0" encoding="UTF-8"?>
<svg xmlns="http://www.w3.org/2000/svg" xmlns:xlink="http://www.w3.org/1999/xlink" width="42px" height="36px" viewBox="0 0 42 36" version="1.1">
  <title>Nav Icon - Grant Funding-std</title>
  <defs>
    <linearGradient x1="-1.2503923e-12%" y1="14.3884107%" x2="100%" y2="85.6115893%" id="linearGradient-1">
      <stop stop-color="#2D84EB" offset="0%"></stop>
      <stop stop-color="#D173DE" offset="100%"></stop>
    </linearGradient>
  </defs>
  <g id="Homepage" stroke="none" stroke-width="1" fill="none" fill-rule="evenodd">
    <g id="Main-Nav---Prod-2" transform="translate(-700.000000, -366.000000)" fill="url(#linearGradient-1)" fill-rule="nonzero">
      <g id="Nav-Icon---Grant-Funding" transform="translate(700.160917, 366.500000)">
        <path d="M37.5351419,0 C39.3849529,0 40.89618,1.44963819 40.9948732,3.27494832 L41,3.46506956 L41,23.5650823 C41,25.4148563 39.5503975,26.9261179 37.7252462,27.0248134 L37.5351419,27.0299404 L34.029,27.029 L34.0293483,32.9612002 C34.0293483,34.2815041 32.5590271,35.0401202 31.491278,34.3286403 L31.378502,34.2467435 L28.4726406,31.9553355 C28.2701819,31.7956907 27.9950803,31.775735 27.7744636,31.8954666 L27.68362,31.9553324 L24.7778091,34.2467005 C23.7411514,35.0643875 22.2350833,34.3794952 22.1324492,33.1004706 L22.1269083,32.9612002 L22.126,27.029 L3.46485812,27.0299404 C1.61508405,27.0299404 0.103822428,25.5803379 0.00512695735,23.7551866 L0,23.5650823 L0,3.46506956 C0,1.61512803 1.44956678,0.103825125 3.27475019,0.0051270883 L3.46485812,0 L37.5351419,0 Z M24.2488434,21.6775417 L23.9989485,21.7790949 C23.7035018,21.8914849 23.409174,21.937067 23.1265737,21.926916 L23.1269083,32.9612002 C23.1269083,33.4601447 23.6663826,33.7529674 24.0781135,33.5160496 L24.1585587,33.461507 L27.0644281,31.1700927 C27.6193099,30.7325515 28.3866137,30.7033821 28.9698216,31.082587 L29.0918325,31.1700958 L31.9977525,33.46155 C32.3894343,33.7704978 32.9533887,33.5281684 33.022353,33.0581449 L33.0293483,32.9612002 L33.0297304,22.11112 C32.6686757,22.1585385 32.2914553,22.1145664 31.9196452,21.9702906 L31.6151455,21.8350529 C31.0210881,21.6096704 30.342733,21.8734757 30.0731806,22.437266 L29.9533741,22.7182093 C29.1494471,24.4364071 26.6426471,24.4225769 25.8757492,22.6315538 L25.7653268,22.3421661 C25.5046173,21.7627159 24.8383205,21.4695539 24.2488434,21.6775417 Z M37.5351419,1 L3.46485812,1 C2.15800838,1 1.0886969,2.01708759 1.00524294,3.3029863 L1,3.46506956 L1,23.5650823 C1,24.8719059 2.01706254,25.9412414 3.30279622,26.0246973 L3.46485812,26.0299404 L22.126,26.029 L22.1258322,21.6398213 C21.2042379,21.1149063 20.6690814,19.9525914 21.1559722,18.8164019 L21.2185357,18.6818393 L21.2701959,18.5640739 C21.4955382,17.9700746 21.2316743,17.2916633 20.667929,17.0220813 L20.3870529,16.9023001 C18.6686949,16.0983996 18.6826165,13.5915822 20.4737027,12.8246643 L20.7630915,12.7142418 C21.3425439,12.4535327 21.6356525,11.7872635 21.4275664,11.1978439 L21.3241971,10.9430653 C20.6444953,9.14094604 22.4569057,7.35060941 24.2777014,8.10057675 L24.5409724,8.21911152 C25.1349813,8.44445512 25.8134443,8.18058408 26.0831822,7.61676059 L26.2029243,7.33601356 C27.0066254,5.61774693 29.51319,5.63099391 30.2725641,7.40277258 L30.3910134,7.71200397 C30.6517147,8.2914435 31.3179527,8.58456089 31.9071957,8.37649536 L32.1620187,8.27310352 C33.9643261,7.59342782 35.7546848,9.40585516 35.0044623,11.2266695 L34.8859884,11.489828 C34.6607082,12.0839398 34.9245743,12.7623787 35.4884344,13.0320829 L35.7692422,13.1518399 C37.4874837,13.9555498 37.4734623,16.4623501 35.6824827,17.229466 L35.3931003,17.339918 C34.8137932,17.6006211 34.5206574,18.2669282 34.728713,18.856447 L34.8374636,19.1262869 C35.1971058,20.1044477 34.8352819,21.1399441 34.0301598,21.7128515 L34.029,26.029 L37.5351419,26.0299404 C38.8419655,26.0299404 39.911301,25.0128778 39.9947569,23.7271442 L40,23.5650823 L40,3.46506956 C40,2.15806903 38.9829625,1.08870141 37.6972068,1.0052432 L37.5351419,1 Z M27.059767,7.87643116 L26.9940522,8.02893725 C26.4570107,9.15334205 25.0956485,9.62379094 23.9915557,9.06920088 L23.8797762,9.01780218 C22.8632277,8.59930398 21.8353232,9.65175603 22.3016152,10.6907008 L22.3630293,10.8450228 C22.7786541,12.0199175 22.1486946,13.315238 20.9779428,13.7029973 L20.8477392,13.7518327 C19.8444695,14.1816878 19.8682051,15.6424958 20.9274322,16.0454537 L21.0799445,16.1111386 C22.2044022,16.6479684 22.6748896,18.0093688 22.1122756,19.1302133 L22.0639535,19.2379247 C21.6647736,20.2445903 22.6997411,21.2712757 23.7418708,20.8033956 L23.8961919,20.7420147 C25.0710959,20.3266234 26.366342,20.95662 26.7540818,22.127313 L26.8029167,22.257515 C27.2327431,23.2607085 28.6935758,23.2369198 29.0965238,22.1778584 L29.1622074,22.0253178 C29.6989979,20.9007293 31.0603871,20.4303336 32.1597993,20.9828221 L32.3029292,21.0469765 C32.6408303,21.1777603 32.9899826,21.1532689 33.2969751,20.992226 C33.8797432,20.6864526 34.1437931,20.0080128 33.8543936,19.3631692 L33.79311,19.208912 C33.3777056,18.0342093 34.0076578,16.7389454 35.1781312,16.3511955 L35.3083377,16.3023413 C36.3116378,15.8723367 36.2879625,14.4115207 35.2288594,14.0086969 L35.0763252,13.9429834 C33.9518497,13.4060103 33.4814285,12.0447302 34.0358683,10.9404182 L34.0872831,10.8286378 C34.5059112,9.81210936 33.4534702,8.78422215 32.4143784,9.25051683 L32.260081,9.31193402 C31.0853359,9.72758974 29.790013,9.09759346 29.4022805,7.92691452 L29.3534267,7.7967096 C28.9234409,6.79346288 27.4626215,6.81725151 27.059767,7.87643116 Z M16.6194232,19.596693 C16.8955656,19.596693 17.1194232,19.8205507 17.1194232,20.096693 C17.1194232,20.3421529 16.942548,20.5463014 16.7092988,20.5886374 L16.6194232,20.596693 L5.63430879,20.596693 C5.35816642,20.596693 5.13430879,20.3728354 5.13430879,20.096693 C5.13430879,19.8512331 5.31118395,19.6470847 5.54443316,19.6047487 L5.63430879,19.596693 L16.6194232,19.596693 Z M16.6194232,15.208906 C16.8955656,15.208906 17.1194232,15.4327636 17.1194232,15.708906 C17.1194232,15.9543659 16.942548,16.1585144 16.7092988,16.2008503 L16.6194232,16.208906 L5.63430879,16.208906 C5.35816642,16.208906 5.13430879,15.9850484 5.13430879,15.708906 C5.13430879,15.4634461 5.31118395,15.2592976 5.54443316,15.2169617 L5.63430879,15.208906 L16.6194232,15.208906 Z M16.6194232,10.8210978 C16.8955656,10.8210978 17.1194232,11.0449554 17.1194232,11.3210978 C17.1194232,11.5665577 16.942548,11.7707062 16.7092988,11.8130421 L16.6194232,11.8210978 L5.63430879,11.8210978 C5.35816642,11.8210978 5.13430879,11.5972402 5.13430879,11.3210978 C5.13430879,11.0756379 5.31118395,10.8714894 5.54443316,10.8291535 L5.63430879,10.8210978 L16.6194232,10.8210978 Z M16.6194232,6.43328964 C16.8955656,6.43328964 17.1194232,6.65714726 17.1194232,6.93328964 C17.1194232,7.17874952 16.942548,7.38289801 16.7092988,7.42523397 L16.6194232,7.43328964 L5.63430879,7.43328964 C5.35816642,7.43328964 5.13430879,7.20943201 5.13430879,6.93328964 C5.13430879,6.68782975 5.31118395,6.48368126 5.54443316,6.4413453 L5.63430879,6.43328964 L16.6194232,6.43328964 Z" id="Combined-Shape"></path>
      </g>
    </g>
  </g>
</svg>
