<?xml version="1.0" encoding="UTF-8"?>
<svg xmlns="http://www.w3.org/2000/svg" xmlns:xlink="http://www.w3.org/1999/xlink" width="34px" height="41px" viewBox="0 0 34 41" version="1.1">
  <title>Nav Icon - Get Started - Blue-hvr</title>
  <defs>
    <linearGradient x1="14.0660662%" y1="-2.1297453e-14%" x2="85.9339338%" y2="100%" id="linearGradient-1">
      <stop stop-color="#2D84EB" offset="0%"></stop>
      <stop stop-color="#D173DE" offset="100%"></stop>
    </linearGradient>
  </defs>
  <g id="Homepage" stroke="none" stroke-width="1" fill="none" fill-rule="evenodd">
    <g id="Nav-Icon---Get-Started---Blue" transform="translate(-0.000000, 0.949817)" fill="url(#linearGradient-1)" fill-rule="nonzero">
      <path d="M19.6545717,2.51163152 L20.891553,3.11972133 C26.0905476,5.69996128 28.8785897,6.36052802 33.3044851,5.25407549 C33.6346503,5.17153578 33.9455605,5.44432513 33.9066644,5.7824212 C33.8763092,6.04627733 33.782931,6.48396609 33.591977,7.03840555 C33.2767298,7.95373311 32.7941033,8.86797027 32.108627,9.72146768 C31.0798317,11.002437 29.6855813,12.0285685 27.9031491,12.6963765 C26.3150811,13.37945 24.9191296,13.5374941 22.6032115,13.3144706 L21.9774589,13.2477409 L21.3055814,13.1642907 L20.5831918,13.0646878 L18.7216788,12.7879817 L18.4128527,12.7454212 L17.8098633,12.6713643 C17.4142906,12.6270198 17.0314292,12.5928744 16.6605061,12.5698028 L16.1129783,12.54361 C11.6232488,12.3963698 8.93843953,14.0477346 6.5481941,19.2059201 L6.26268189,19.8418444 C6.23827734,19.897898 6.21389764,19.9543311 6.18954113,20.0111453 L11.9530454,39.3736499 C12.0298205,39.6315422 11.882996,39.9028438 11.6251037,39.979619 C11.3958661,40.0478636 11.1560334,39.9394368 11.0516457,39.7333734 L11.0191346,39.6516773 L5.20856175,20.1332452 C5.20705939,20.1286184 5.20562564,20.1239682 5.20426116,20.1192964 L0.0203788501,2.70579238 C-0.0563923153,2.44789885 0.0904363778,2.1765995 0.348329915,2.09982834 C0.577568615,2.0315873 0.817399558,2.14001776 0.921784059,2.34608277 L0.954293963,2.4277794 L1.49929706,4.25959323 C2.71644428,2.43657988 4.3888803,1.10431507 6.58099385,0.578162005 L6.87998634,0.512078603 C11.5743942,-0.569317838 14.5306574,0.0458721716 19.6545717,2.51163152 Z M7.45282524,1.38272246 L7.08599824,1.46438016 C4.74230565,1.93870487 3.03900456,3.43317131 1.87294547,5.51493857 L5.76427152,18.5837734 C8.7238176,12.3474192 12.294761,10.9507111 18.5410767,11.7795261 L19.9526218,11.9861923 L20.3309305,12.043091 L21.0463107,12.1458739 L21.710166,12.2335866 L22.3266459,12.3057678 L22.8999001,12.3619565 L23.434078,12.4016914 C25.1541549,12.5062058 26.2921215,12.3288045 27.5395734,11.7926248 C29.1770493,11.1785884 30.4280125,10.2579124 31.3488995,9.11130153 C31.9598652,8.35057844 32.3902546,7.53529362 32.6706707,6.72109922 L32.729041,6.5453221 L32.7814747,6.37468734 L32.4283432,6.44819258 C28.4570182,7.22383306 25.5823669,6.49515354 20.8900331,4.20505009 L20.0956763,3.81236998 C14.7488524,1.15542194 11.9311244,0.421376745 7.45282524,1.38272246 Z" id="Combined-Shape"></path>
    </g>
  </g>
</svg>
